<svg id="Layer_1" data-name="Layer 1" xmlns="http://www.w3.org/2000/svg" xmlns:xlink="http://www.w3.org/1999/xlink" viewBox="0 0 230.73 175.79"><defs><style>.cls-1,.cls-2{fill:none;}.cls-1{clip-rule:evenodd;}.cls-3{clip-path:url(#clip-path);}.cls-4{clip-path:url(#clip-path-2);}.cls-5{fill:#fff;}</style><clipPath id="clip-path" transform="translate(30.32 2.86)"><path class="cls-1" d="M84.91,99.49,96.62,88q16.77-16.55,33.53-33.09a9.58,9.58,0,0,1,12.3-1c3.7,2.64,4.06,7.15.74,10.42Q117.56,89.64,91.88,115a9.56,9.56,0,0,1-13.89.1Q52.61,90,27.24,65c-2.65-2.62-3.5-5.46-1.61-8.61,1.7-2.84,4.61-4.07,8.32-3.9a9.3,9.3,0,0,1,6.26,2.91Q59.28,74.24,78.36,93.06l6.55,6.43"/></clipPath><clipPath id="clip-path-2" transform="translate(30.32 2.86)"><rect class="cls-2" x="-3689" y="-2980.34" width="4548.62" height="14898.38"/></clipPath></defs><title>s</title><g class="cls-3"><g class="cls-4"><rect class="cls-5" width="230.73" height="175.79"/></g></g></svg>