<?xml version="1.0" encoding="UTF-8"?>
<svg width="29px" height="29px" viewBox="0 0 29 29" version="1.1" xmlns="http://www.w3.org/2000/svg" xmlns:xlink="http://www.w3.org/1999/xlink">
    <title>Fill 144</title>
    <g id="Symbols" stroke="none" stroke-width="1" fill="none" fill-rule="evenodd">
        <g id="footer" transform="translate(-106.000000, -508.000000)" fill="#FFFFFF">
            <path d="M123.239922,518.423991 L123.092757,518.423991 C122.738738,518.423991 122.387806,518.41478 122.033786,518.423991 C121.548039,518.441388 121.191961,518.628664 121.174466,519.225285 C121.161087,519.664308 121.158,520.676416 121.158,520.676416 L122.790194,520.676416 L123.179204,520.676416 C123.08967,521.375374 123.002194,522.046701 122.913689,522.723145 L121.17035,522.723145 L121.17035,527.839967 L119.034913,527.839967 L119.034913,522.711888 L117.286427,522.711888 L117.286427,520.671299 L119.044175,520.671299 L119.044175,520.517794 C119.044175,520.108449 119.033883,519.699103 119.044175,519.289757 C119.045204,519.027776 119.065786,518.765794 119.106951,518.506883 C119.195456,517.893888 119.529922,517.343318 120.034194,516.981047 C120.483922,516.669944 121.021126,516.506206 121.568621,516.510299 C121.931903,516.502112 122.28901,516.519509 122.657437,516.53486 C122.855029,516.545093 123.051592,516.571701 123.240951,516.590121 L123.239922,518.423991 Z M120.263689,508 C112.387786,507.998977 106.002058,514.348953 106,522.180762 C106.001029,530.013593 112.386757,536.362547 120.263689,536.362547 C128.14165,536.36357 134.528408,530.014617 134.529437,522.181785 C134.528408,514.348953 128.14268,507.998977 120.265748,508 L120.263689,508 Z" id="Fill-144"></path>
        </g>
    </g>
</svg>