<?xml version="1.0" encoding="UTF-8"?>
<svg width="108px" height="41px" viewBox="0 0 108 41" version="1.1" xmlns="http://www.w3.org/2000/svg" xmlns:xlink="http://www.w3.org/1999/xlink">
    <title>Group 3 Copy</title>
    <defs>
        <filter id="filter-1">
            <feColorMatrix in="SourceGraphic" type="matrix" values="0 0 0 0 1.000000 0 0 0 0 1.000000 0 0 0 0 1.000000 0 0 0 1.000000 0"></feColorMatrix>
        </filter>
        <polygon id="path-2" points="0 0 108 0 108 41 0 41"></polygon>
    </defs>
    <g id="Symbols" stroke="none" stroke-width="1" fill="none" fill-rule="evenodd">
        <g id="Group-3-Copy" transform="translate(-221.000000, -516.000000)" filter="url(#filter-1)">
            <g transform="translate(221.000000, 516.000000)">
                <mask id="mask-3" fill="white">
                    <use xlink:href="#path-2"></use>
                </mask>
                <g id="Clip-2"></g>
                <path d="M63.4353362,27.6812784 L58.942189,27.6812784 L58.942189,21.8805617 L63.4353362,21.8805617 C66.4970775,21.8805617 67.4951377,23.1150548 67.4951377,24.8145756 C67.4951377,26.5489479 66.4636383,27.6812784 63.4353362,27.6812784 L63.4353362,27.6812784 Z M58.942189,13.2842118 L63.0361121,13.2842118 C65.8658258,13.2842118 66.8301055,14.3833993 66.8301055,15.9175466 C66.8301055,17.4154756 65.8658258,18.6171674 63.0361121,18.6171674 L58.942189,18.6171674 L58.942189,13.2842118 Z M67.828848,20.0840035 C69.7922114,19.0821951 70.6575381,17.6823284 70.6575381,15.5502396 C70.6575381,12.1160048 68.5614412,9.75157298 63.0361121,9.75157298 L55.1823174,9.75157298 L55.1823174,31.2125505 L63.4353362,31.2125505 C68.8603474,31.2125505 71.3232527,28.2453936 71.3232527,24.8791533 C71.3232527,22.7480895 70.2893648,21.0844452 67.828848,20.0840035 L67.828848,20.0840035 Z M99.8466166,20.3177132 L95.4885913,20.3177132 L95.4885913,13.2842118 L99.8466166,13.2842118 C103.141409,13.2842118 104.206689,14.552873 104.206689,16.8161673 C104.206689,19.0821951 103.141409,20.3177132 99.8466166,20.3177132 L99.8466166,20.3177132 Z M99.8466166,9.75157298 L91.7276961,9.75157298 L91.7276961,31.2125505 L95.4885913,31.2125505 L95.4885913,23.8506938 L99.8466166,23.8506938 C105.704291,23.8506938 108,21.0140589 108,16.8161673 C108,12.6182758 105.738072,9.75157298 99.8466166,9.75157298 L99.8466166,9.75157298 Z M84.3144126,27.7786574 C83.5156233,28.0123672 82.5820532,28.1145298 81.6853346,28.1145298 C78.5222518,28.1145298 77.3580189,26.6135256 77.3580189,22.9804325 C77.3580189,19.6832118 78.192636,17.8822118 81.5508951,17.8822118 C82.8809595,17.8822118 83.8486512,18.1500896 84.3144126,18.3827743 L84.3144126,27.7786574 Z M84.3144126,14.8839618 C83.449086,14.552873 82.3486607,14.4162007 81.2854281,14.4162007 C76.3592764,14.4162007 73.666732,17.8497521 73.666732,22.8143756 C73.666732,28.3455061 76.2265429,31.5805409 81.8187505,31.5805409 C83.0495207,31.5805409 85.9454305,31.4114088 87.9746488,30.544906 L87.9746488,9.80282512 L84.3144126,9.80282512 L84.3144126,14.8839618 Z M34.7144076,26.7406309 C34.7144076,31.1616401 31.1200263,34.75954 26.7026293,34.75954 C24.1871766,34.75954 21.9406029,33.5909913 20.4716632,31.7708571 C19.0016998,33.5909913 16.7568322,34.75954 14.2403559,34.75954 C9.82364129,34.75954 6.22994244,31.1616401 6.22994244,26.7375557 C6.22994244,22.3148381 9.82364129,18.7183049 14.2403559,18.7183049 L18.6922158,18.7183049 L18.6922158,14.2603942 C18.6922158,9.83835993 22.2859147,6.23977666 26.7036529,6.23977666 C31.1200263,6.23977666 34.7144076,9.83835993 34.7144076,14.2603942 C34.7144076,16.7802908 33.5460801,19.0306013 31.7267104,20.5022209 C33.5460801,21.9714488 34.7144076,24.2214176 34.7144076,26.7406309 L34.7144076,26.7406309 Z M26.7036529,0 L0,0 L0,26.7406309 C0,34.6156923 6.37598337,41 14.2403559,41 L40.9436676,41 L40.9436676,14.2597108 C40.9436676,6.38533272 34.5680254,0 26.7036529,0 L26.7036529,0 Z M26.7036529,9.80282512 C24.2492781,9.80282512 22.2514518,11.8026834 22.2514518,14.2603942 L22.2514518,18.7183049 L26.7036529,18.7183049 C29.1573453,18.7183049 31.1527831,16.71913 31.1527831,14.2603942 C31.1527831,11.8026834 29.1573453,9.80282512 26.7036529,9.80282512 L26.7036529,9.80282512 Z M26.7026293,22.2823784 L22.2514518,22.2823784 L22.2514518,26.7406309 C22.2514518,29.1956082 24.2485956,31.1971749 26.7026293,31.1971749 C29.1566629,31.1971749 31.1527831,29.1956082 31.1527831,26.7406309 C31.1527831,24.28087 29.1566629,22.2823784 26.7026293,22.2823784 L26.7026293,22.2823784 Z M9.79020201,26.7375557 C9.79020201,29.1956082 11.785981,31.1971749 14.2403559,31.1971749 C16.6950719,31.1971749 18.6922158,29.1956082 18.6922158,26.7375557 L18.6922158,22.2823784 L14.2403559,22.2823784 C11.785981,22.2823784 9.79020201,24.28087 9.79020201,26.7375557 L9.79020201,26.7375557 Z" id="Fill-1" fill="#FFFFFF" mask="url(#mask-3)"></path>
            </g>
        </g>
    </g>
</svg>