<?xml version="1.0" encoding="UTF-8"?>
<svg width="87px" height="87px" viewBox="0 0 87 87" version="1.1" xmlns="http://www.w3.org/2000/svg" xmlns:xlink="http://www.w3.org/1999/xlink">
    <title>Group 9</title>
    <g id="Mobile" stroke="none" stroke-width="1" fill="none" fill-rule="evenodd">
        <g id="2.Como-ganar3" transform="translate(-164.000000, -271.000000)">
            <g id="Group-9" transform="translate(165.000000, 272.000000)">
                <path d="M38.5118321,5.545038 C38.5235123,5.57035205 38.5338948,5.59501702 38.5455751,5.62033107 L46.4492317,5.62033107 C46.4369025,5.57229928 46.4388492,5.54049445 46.4245733,5.5301092 C45.3558276,4.70058725 44.2948688,3.86132913 43.2111983,3.05192861 C42.778379,2.72868767 42.2540642,2.70661901 41.8218938,3.02077286 C40.7005869,3.83796232 39.613023,4.70058725 38.5118321,5.545038 M4.64096485,82.1518441 L80.3343748,82.1518441 C80.190318,82.0324138 80.0988225,81.9519281 80.0027846,81.8772841 C74.7524984,77.7971785 69.5009145,73.7190201 64.2499794,69.6389145 C57.3131905,64.2489691 50.3757527,58.8577255 43.4383149,53.467131 C42.7777301,52.9543592 42.2060453,52.9550083 41.5441627,53.4677801 C40.5344673,54.2492702 39.5267187,55.0327076 38.51897,55.816145 C28.5777534,63.542772 18.6371856,71.2706971 8.69726676,78.9973241 C7.370906,80.0280603 6.04519415,81.0600946 4.64096485,82.1518441 M4.20879447,32.2065744 C4.28990753,32.2747276 4.34571331,32.3253557 4.40476362,32.3714402 C10.8749902,37.3953056 17.3458657,42.4191709 23.8154434,47.4430362 C25.1534844,48.4815613 26.5032057,49.5064558 27.8204818,50.5709441 C28.6316124,51.226513 28.4628973,52.4487273 27.5369106,52.9043802 C26.8724324,53.2315156 26.3280015,52.9803224 25.7933042,52.5655614 C18.6268031,46.9938741 11.4564086,41.4280284 4.286663,35.8608847 C3.8226963,35.5012953 3.35678288,35.1443023 2.85842424,34.760048 L2.85842424,79.9034372 C2.97717376,79.8216534 3.06218025,79.7697271 3.14069769,79.7093629 C11.3279255,73.3509928 19.5151534,66.9913245 27.7017323,60.6323053 C31.7061219,57.5219226 35.7111603,54.4141361 39.7142521,51.3031043 C40.6915022,50.5436828 41.7706304,50.1419034 43.0275584,50.3002784 C43.9379713,50.4158144 44.6952429,50.844206 45.4051444,51.3952734 C57.5448494,60.8270288 69.6865012,70.2561879 81.8281529,79.685996 C81.9209463,79.7580437 82.0234732,79.818408 82.1350847,79.8924029 L82.1350847,34.7723805 C82.0027082,34.8690932 81.9099149,34.9320538 81.8203661,35.0015051 C74.9809128,40.3129121 68.1414596,45.6256172 61.3013575,50.9376732 C60.5122896,51.5504031 59.7355509,52.1787108 58.9315583,52.7706701 C58.0289322,53.434028 56.8894559,53.0244597 56.6422233,51.9541297 C56.4799972,51.251178 56.8647975,50.7831926 57.3858678,50.379466 C64.1000825,45.1738588 70.8104037,39.963708 77.5226717,34.7555045 C78.6082889,33.9123519 79.6926083,33.0672521 80.795097,32.2104688 C77.4746527,29.6349265 74.1762713,27.0769093 70.8149461,24.4695622 L70.8149461,24.9823339 C70.8142971,28.4484116 70.8129993,31.9138401 70.8149461,35.3792686 C70.815595,36.0419775 70.4833559,36.4852979 69.8947995,36.7254568 C69.3503686,36.9474416 68.8487655,36.8039953 68.4263287,36.4126011 C68.0661867,36.078975 67.9876692,35.6466889 67.9883181,35.1696164 C67.9948072,26.8464866 67.9831269,18.5240058 68.0045407,10.201525 C68.0071364,9.14352757 67.3523917,8.48081872 66.2758592,8.48211688 C50.4185804,8.50094015 34.5613016,8.50223831 18.7040228,8.4795187 C17.6891362,8.47822241 16.9850748,9.1545619 16.9889682,10.2132085 C17.0188178,18.4980427 17.0051908,26.7828769 17.003893,35.066413 C17.003893,35.2682763 17.0032441,35.4740341 16.9675544,35.6707048 C16.8604851,36.2522788 16.4893118,36.619008 15.9396897,36.7721905 C15.4127792,36.9195312 14.9403768,36.7611561 14.5523319,36.3717092 C14.2012746,36.0199088 14.1558513,35.5720449 14.1565002,35.1066558 C14.157798,31.7418344 14.1571491,28.3783111 14.1571491,25.0134897 L14.1571491,24.4747548 C10.7977706,27.0853473 7.51885623,29.6336284 4.20879447,32.2065744 M42.4753406,84.9954558 C29.830139,84.9954558 17.1842885,84.9922104 4.53908685,85 C3.1127948,85 1.91491712,84.5398029 0.993472761,83.4344227 C0.381555835,82.7009643 0.0674860661,81.8480755 0.017520421,80.8965269 C0.00843575826,80.7199776 0.00778685378,80.5427793 0.00778685378,80.3655809 C0.00778685378,64.5683156 0.00973356722,48.7704011 0,32.9724867 C0,32.2260467 0.256966175,31.6756284 0.848118157,31.2180283 C5.17436433,27.8661884 9.48698352,24.4968234 13.8125808,21.1436854 C14.0708448,20.9437694 14.1649359,20.741257 14.164287,20.4173669 C14.1526067,17.0019174 14.1590958,13.587766 14.1565002,10.1723165 C14.1552024,9.06044556 14.4387736,8.04853264 15.1648977,7.18396047 C16.0850443,6.08961461 17.282922,5.64304881 18.6865024,5.64499604 C23.5682108,5.65018867 28.4492703,5.64434697 33.3309787,5.6521359 C33.6385594,5.65278498 33.8799519,5.57554468 34.1245889,5.3840666 C35.9862958,3.92688603 37.8622787,2.48723057 39.7252834,1.03199724 C41.1372996,-0.0701375576 42.6622251,-0.314840041 44.307198,0.420565566 C44.6595531,0.578940648 44.9827076,0.81715235 45.2909372,1.05471497 C47.1448573,2.48073979 48.9935862,3.91390447 50.8351771,5.35550716 C51.0979834,5.56061588 51.3575452,5.65473222 51.6956244,5.65408314 C56.5520256,5.64369789 61.4077778,5.64824143 66.2641789,5.64564512 C67.37121,5.64499604 68.3958301,5.88645314 69.2621176,6.61991151 C70.2062737,7.41957586 70.788341,8.424998 70.7980745,9.67187723 C70.8253285,13.2262295 70.8181906,16.7805817 70.8065103,20.3342849 C70.8052125,20.7126975 70.9148773,20.9502601 71.2146712,21.1832792 C75.5532466,24.5403117 79.8794928,27.912273 84.2154725,31.2725508 C84.7469253,31.6847155 84.9948068,32.19554 84.9941579,32.8666869 C84.9896155,48.7405435 84.9824776,64.6144001 85,80.4882567 C85.0019447,82.7210857 83.5698125,84.4365994 81.7295194,84.8623947 C81.29086,84.9636509 80.8268933,84.9896141 80.3752558,84.9902631 C67.7423833,84.9967539 55.108862,84.9954558 42.4753406,84.9954558" id="Fill-1" fill="#1F9AD6"></path>
                <path d="M38.5118321,5.545038 C38.5235123,5.57035205 38.5338948,5.59501702 38.5455751,5.62033107 L46.4492317,5.62033107 C46.4369025,5.57229928 46.4388492,5.54049445 46.4245733,5.5301092 C45.3558276,4.70058725 44.2948688,3.86132913 43.2111983,3.05192861 C42.778379,2.72868767 42.2540642,2.70661901 41.8218938,3.02077286 C40.7005869,3.83796232 39.613023,4.70058725 38.5118321,5.545038 Z M4.64096485,82.1518441 L80.3343748,82.1518441 C80.190318,82.0324138 80.0988225,81.9519281 80.0027846,81.8772841 C74.7524984,77.7971785 69.5009145,73.7190201 64.2499794,69.6389145 C57.3131905,64.2489691 50.3757527,58.8577255 43.4383149,53.467131 C42.7777301,52.9543592 42.2060453,52.9550083 41.5441627,53.4677801 C40.5344673,54.2492702 39.5267187,55.0327076 38.51897,55.816145 C28.5777534,63.542772 18.6371856,71.2706971 8.69726676,78.9973241 C7.370906,80.0280603 6.04519415,81.0600946 4.64096485,82.1518441 Z M4.20879447,32.2065744 C4.28990753,32.2747276 4.34571331,32.3253557 4.40476362,32.3714402 C10.8749902,37.3953056 17.3458657,42.4191709 23.8154434,47.4430362 C25.1534844,48.4815613 26.5032057,49.5064558 27.8204818,50.5709441 C28.6316124,51.226513 28.4628973,52.4487273 27.5369106,52.9043802 C26.8724324,53.2315156 26.3280015,52.9803224 25.7933042,52.5655614 C18.6268031,46.9938741 11.4564086,41.4280284 4.286663,35.8608847 C3.8226963,35.5012953 3.35678288,35.1443023 2.85842424,34.760048 L2.85842424,79.9034372 C2.97717376,79.8216534 3.06218025,79.7697271 3.14069769,79.7093629 C11.3279255,73.3509928 19.5151534,66.9913245 27.7017323,60.6323053 C31.7061219,57.5219226 35.7111603,54.4141361 39.7142521,51.3031043 C40.6915022,50.5436828 41.7706304,50.1419034 43.0275584,50.3002784 C43.9379713,50.4158144 44.6952429,50.844206 45.4051444,51.3952734 C57.5448494,60.8270288 69.6865012,70.2561879 81.8281529,79.685996 C81.9209463,79.7580437 82.0234732,79.818408 82.1350847,79.8924029 L82.1350847,34.7723805 C82.0027082,34.8690932 81.9099149,34.9320538 81.8203661,35.0015051 C74.9809128,40.3129121 68.1414596,45.6256172 61.3013575,50.9376732 C60.5122896,51.5504031 59.7355509,52.1787108 58.9315583,52.7706701 C58.0289322,53.434028 56.8894559,53.0244597 56.6422233,51.9541297 C56.4799972,51.251178 56.8647975,50.7831926 57.3858678,50.379466 C64.1000825,45.1738588 70.8104037,39.963708 77.5226717,34.7555045 C78.6082889,33.9123519 79.6926083,33.0672521 80.795097,32.2104688 C77.4746527,29.6349265 74.1762713,27.0769093 70.8149461,24.4695622 L70.8149461,24.9823339 C70.8142971,28.4484116 70.8129993,31.9138401 70.8149461,35.3792686 C70.815595,36.0419775 70.4833559,36.4852979 69.8947995,36.7254568 C69.3503686,36.9474416 68.8487655,36.8039953 68.4263287,36.4126011 C68.0661867,36.078975 67.9876692,35.6466889 67.9883181,35.1696164 C67.9948072,26.8464866 67.9831269,18.5240058 68.0045407,10.201525 C68.0071364,9.14352757 67.3523917,8.48081872 66.2758592,8.48211688 C50.4185804,8.50094015 34.5613016,8.50223831 18.7040228,8.4795187 C17.6891362,8.47822241 16.9850748,9.1545619 16.9889682,10.2132085 C17.0188178,18.4980427 17.0051908,26.7828769 17.003893,35.066413 C17.003893,35.2682763 17.0032441,35.4740341 16.9675544,35.6707048 C16.8604851,36.2522788 16.4893118,36.619008 15.9396897,36.7721905 C15.4127792,36.9195312 14.9403768,36.7611561 14.5523319,36.3717092 C14.2012746,36.0199088 14.1558513,35.5720449 14.1565002,35.1066558 C14.157798,31.7418344 14.1571491,28.3783111 14.1571491,25.0134897 L14.1571491,24.4747548 C10.7977706,27.0853473 7.51885623,29.6336284 4.20879447,32.2065744 Z M42.4753406,84.9954558 C29.830139,84.9954558 17.1842885,84.9922104 4.53908685,85 C3.1127948,85 1.91491712,84.5398029 0.993472761,83.4344227 C0.381555835,82.7009643 0.0674860661,81.8480755 0.017520421,80.8965269 C0.00843575826,80.7199776 0.00778685378,80.5427793 0.00778685378,80.3655809 C0.00778685378,64.5683156 0.00973356722,48.7704011 0,32.9724867 C0,32.2260467 0.256966175,31.6756284 0.848118157,31.2180283 C5.17436433,27.8661884 9.48698352,24.4968234 13.8125808,21.1436854 C14.0708448,20.9437694 14.1649359,20.741257 14.164287,20.4173669 C14.1526067,17.0019174 14.1590958,13.587766 14.1565002,10.1723165 C14.1552024,9.06044556 14.4387736,8.04853264 15.1648977,7.18396047 C16.0850443,6.08961461 17.282922,5.64304881 18.6865024,5.64499604 C23.5682108,5.65018867 28.4492703,5.64434697 33.3309787,5.6521359 C33.6385594,5.65278498 33.8799519,5.57554468 34.1245889,5.3840666 C35.9862958,3.92688603 37.8622787,2.48723057 39.7252834,1.03199724 C41.1372996,-0.0701375576 42.6622251,-0.314840041 44.307198,0.420565566 C44.6595531,0.578940648 44.9827076,0.81715235 45.2909372,1.05471497 C47.1448573,2.48073979 48.9935862,3.91390447 50.8351771,5.35550716 C51.0979834,5.56061588 51.3575452,5.65473222 51.6956244,5.65408314 C56.5520256,5.64369789 61.4077778,5.64824143 66.2641789,5.64564512 C67.37121,5.64499604 68.3958301,5.88645314 69.2621176,6.61991151 C70.2062737,7.41957586 70.788341,8.424998 70.7980745,9.67187723 C70.8253285,13.2262295 70.8181906,16.7805817 70.8065103,20.3342849 C70.8052125,20.7126975 70.9148773,20.9502601 71.2146712,21.1832792 C75.5532466,24.5403117 79.8794928,27.912273 84.2154725,31.2725508 C84.7469253,31.6847155 84.9948068,32.19554 84.9941579,32.8666869 C84.9896155,48.7405435 84.9824776,64.6144001 85,80.4882567 C85.0019447,82.7210857 83.5698125,84.4365994 81.7295194,84.8623947 C81.29086,84.9636509 80.8268933,84.9896141 80.3752558,84.9902631 C67.7423833,84.9967539 55.108862,84.9954558 42.4753406,84.9954558 Z" id="Stroke-3" stroke="#1F9AD6" stroke-width="2"></path>
                <path d="M47.7318499,34.2756705 C47.5133247,34.452306 47.3414873,34.5958223 47.1657593,34.7334941 C42.095585,38.6954537 34.5042649,35.622516 33.5919058,29.2493522 C32.8721343,24.21654 36.5890085,19.8324736 41.4231498,19.5266084 C42.0618659,19.486346 42.66816,19.4740074 43.1110464,20.0389812 C43.4527758,20.4760241 43.5182685,20.9630705 43.308173,21.4670011 C43.1032651,21.9572944 42.7304105,22.2670559 42.1857185,22.3047208 C41.261039,22.3690109 40.3577582,22.4988899 39.5128372,22.9255425 C36.7692756,24.3132999 35.6228287,27.4420856 36.8308777,30.2766953 C37.7652838,32.4664557 40.1509049,33.8925274 42.469088,33.647056 C45.0842579,33.3697643 47.0756258,31.594318 47.5425046,29.1058359 C47.6190209,28.696717 47.6507946,28.2791559 47.6871074,27.8635431 C47.7461157,27.1784312 48.2376353,26.671903 48.9308207,26.6004695 C49.613631,26.5290361 50.2380814,26.9264659 50.4170516,27.5713152 C50.4767084,27.7869144 50.498107,28.0193979 50.4987554,28.244738 C50.5045914,30.0156385 50.4935679,31.7878378 50.5045914,33.5587383 C50.5162634,35.3666543 51.8903137,36.6368712 53.6372187,36.4758212 C55.062496,36.3446434 56.1557706,35.1406648 56.1654972,33.5925068 C56.1784661,31.3533924 56.2465526,29.1064853 56.0915747,26.8764625 C55.8257132,23.074254 54.1974733,19.8798794 51.3352467,17.3563299 C48.8063197,15.1276059 45.8338578,13.9125876 42.463252,13.8521939 C37.2886783,13.7599797 33.1710665,15.8711633 30.2498316,20.1467808 C26.1153602,26.1978446 27.4109489,34.4042507 33.1840353,39.0753499 C35.6565478,41.0748375 38.5116415,42.0606193 41.6799331,42.1827055 C42.0456549,42.1963428 42.4418534,42.2619317 42.7641295,42.4242805 C43.3191966,42.7035204 43.5344796,43.3730468 43.365236,43.9971155 C43.2057191,44.5809217 42.6493551,44.9958852 41.998967,45 C39.0822712,45.0140683 36.3361158,44.3276576 33.8026498,42.8860005 C29.3283943,40.3403716 26.4758944,36.5492028 25.3994793,31.5040521 C24.4799874,27.1940167 25.1439928,23.0872419 27.4310506,19.3071129 C30.2076828,14.7191363 34.2734192,11.9215421 39.5789784,11.1883751 C45.6360827,10.3513047 50.7613748,12.3131274 54.841377,16.8907136 C57.0259808,19.3421802 58.3170305,22.2358849 58.8079017,25.4802629 C58.9148948,26.1913506 58.9719577,26.9154262 58.9810359,27.6336572 C59.0056768,29.6201569 59.003083,31.6079553 58.991411,33.5938056 C58.9713093,37.1421006 56.0961138,39.6890283 52.573124,39.294196 C50.1116351,39.0182031 48.1066499,36.9680627 47.7318499,34.2756705" id="Fill-5" fill="#1F9AD6"></path>
                <path d="M47.7318499,34.2756705 C47.5133247,34.452306 47.3414873,34.5958223 47.1657593,34.7334941 C42.095585,38.6954537 34.5042649,35.622516 33.5919058,29.2493522 C32.8721343,24.21654 36.5890085,19.8324736 41.4231498,19.5266084 C42.0618659,19.486346 42.66816,19.4740074 43.1110464,20.0389812 C43.4527758,20.4760241 43.5182685,20.9630705 43.308173,21.4670011 C43.1032651,21.9572944 42.7304105,22.2670559 42.1857185,22.3047208 C41.261039,22.3690109 40.3577582,22.4988899 39.5128372,22.9255425 C36.7692756,24.3132999 35.6228287,27.4420856 36.8308777,30.2766953 C37.7652838,32.4664557 40.1509049,33.8925274 42.469088,33.647056 C45.0842579,33.3697643 47.0756258,31.594318 47.5425046,29.1058359 C47.6190209,28.696717 47.6507946,28.2791559 47.6871074,27.8635431 C47.7461157,27.1784312 48.2376353,26.671903 48.9308207,26.6004695 C49.613631,26.5290361 50.2380814,26.9264659 50.4170516,27.5713152 C50.4767084,27.7869144 50.498107,28.0193979 50.4987554,28.244738 C50.5045914,30.0156385 50.4935679,31.7878378 50.5045914,33.5587383 C50.5162634,35.3666543 51.8903137,36.6368712 53.6372187,36.4758212 C55.062496,36.3446434 56.1557706,35.1406648 56.1654972,33.5925068 C56.1784661,31.3533924 56.2465526,29.1064853 56.0915747,26.8764625 C55.8257132,23.074254 54.1974733,19.8798794 51.3352467,17.3563299 C48.8063197,15.1276059 45.8338578,13.9125876 42.463252,13.8521939 C37.2886783,13.7599797 33.1710665,15.8711633 30.2498316,20.1467808 C26.1153602,26.1978446 27.4109489,34.4042507 33.1840353,39.0753499 C35.6565478,41.0748375 38.5116415,42.0606193 41.6799331,42.1827055 C42.0456549,42.1963428 42.4418534,42.2619317 42.7641295,42.4242805 C43.3191966,42.7035204 43.5344796,43.3730468 43.365236,43.9971155 C43.2057191,44.5809217 42.6493551,44.9958852 41.998967,45 C39.0822712,45.0140683 36.3361158,44.3276576 33.8026498,42.8860005 C29.3283943,40.3403716 26.4758944,36.5492028 25.3994793,31.5040521 C24.4799874,27.1940167 25.1439928,23.0872419 27.4310506,19.3071129 C30.2076828,14.7191363 34.2734192,11.9215421 39.5789784,11.1883751 C45.6360827,10.3513047 50.7613748,12.3131274 54.841377,16.8907136 C57.0259808,19.3421802 58.3170305,22.2358849 58.8079017,25.4802629 C58.9148948,26.1913506 58.9719577,26.9154262 58.9810359,27.6336572 C59.0056768,29.6201569 59.003083,31.6079553 58.991411,33.5938056 C58.9713093,37.1421006 56.0961138,39.6890283 52.573124,39.294196 C50.1116351,39.0182031 48.1066499,36.9680627 47.7318499,34.2756705 Z" id="Stroke-7" stroke="#1F9AD6" stroke-width="2"></path>
            </g>
        </g>
    </g>
</svg>