<?xml version="1.0" encoding="utf-8"?>
<!-- Generator: Adobe Illustrator 24.1.2, SVG Export Plug-In . SVG Version: 6.00 Build 0)  -->
<svg version="1.1" id="Capa_1" xmlns="http://www.w3.org/2000/svg" xmlns:xlink="http://www.w3.org/1999/xlink" x="0px" y="0px"
	 viewBox="0 0 117 76" style="enable-background:new 0 0 117 76;" xml:space="preserve">
<style type="text/css">
	.st0{filter:url(#Adobe_OpacityMaskFilter);}
	.st1{fill-rule:evenodd;clip-rule:evenodd;fill:#FFFFFF;}
	.st2{mask:url(#mask-3_1_);fill-rule:evenodd;clip-rule:evenodd;fill:#1E9AD6;}
	.st3{fill-rule:evenodd;clip-rule:evenodd;fill:#1E9AD6;}
</style>
<g id="Mobile">
	<g id="Group-20" transform="translate(-149.000000, -274.000000)">
		<g transform="translate(149.000000, 274.000000)">
			<g id="Group-3">
				<g id="Clip-2">
				</g>
				<defs>
					<filter id="Adobe_OpacityMaskFilter" filterUnits="userSpaceOnUse" x="0" y="0.2" width="116.9" height="75.8">
						<feColorMatrix  type="matrix" values="1 0 0 0 0  0 1 0 0 0  0 0 1 0 0  0 0 0 1 0"/>
					</filter>
				</defs>
				<mask maskUnits="userSpaceOnUse" x="0" y="0.2" width="116.9" height="75.8" id="mask-3_1_">
					<g class="st0">
						<polygon id="path-2_1_" class="st1" points="0,0.2 116.9,0.2 116.9,76 0,76 						"/>
					</g>
				</mask>
				<path id="Fill-1" class="st2" d="M4.6,71.4h107.7V4.7h-0.7c-24.6,0-49.2,0-73.8,0c-1.1,0-1.9-0.3-2.5-1.3
					c-0.7-1.4,0.3-3.2,1.8-3.3c0.2,0,0.4,0,0.6,0c25.5,0,51,0,76.5,0c0.8,0,1.6,0.1,2.1,0.9c0.3,0.4,0.4,0.8,0.5,1.3
					c0.1,0.2,0,0.4,0,0.6c0,23.4,0,46.9,0,70.3c0,0.4,0,0.8-0.1,1.1c-0.2,0.9-1,1.5-2,1.6c-0.2,0-0.4,0-0.6,0C77,76,39.9,76,2.8,76
					c-0.3,0-0.6,0-0.9,0c-1-0.2-1.7-1-1.8-2c0-0.2,0-0.4,0-0.6c0-23.5,0-47,0-70.4C0,2,0.2,1.2,0.9,0.7c0.5-0.4,1-0.5,1.5-0.5
					c5.6,0,11.2,0,16.9,0c0.1,0,0.1,0,0.2,0c1.2,0,2.1,0.9,2.2,2.1c0.1,1.1-0.7,2.1-1.8,2.3c-0.3,0.1-0.6,0.1-0.9,0.1
					c-4.6,0-9.1,0-13.7,0H4.6V71.4z"/>
			</g>
			<path id="Fill-4" class="st3" d="M31.7,22.7c0-1.2,0-2.5,0-3.7c-0.1-1.9-1.6-3.4-3.5-3.5c-2-0.1-3.6,1.4-3.8,3.4
				c-0.2,1.7,1.3,3.6,3,3.7C28.8,22.8,30.2,22.7,31.7,22.7L31.7,22.7z M36.4,22.8c1.3,0,2.6,0.1,3.9,0c1.9-0.1,3.3-1.6,3.4-3.5
				c0-1.7-1.4-3.4-3.1-3.6c-2-0.2-3.8,0.9-4.1,2.8C36.2,19.8,36.4,21.3,36.4,22.8L36.4,22.8z M41.8,36.4h9.6v-9.1h-9.6V36.4z
				 M16.6,36.4h9.6v-9.1h-9.6V36.4z M41.8,41v15.4h0.6c1.3,0,2.7,0,4,0c1.8,0,2.7-0.9,2.7-2.6c0-4.1,0-8.1,0-12.2c0-0.2,0-0.4,0-0.6
				H41.8z M18.9,41c0,0.1,0,0.2,0,0.3c0,4.3,0,8.6,0,12.8c0,1.4,0.9,2.3,2.3,2.3c1.1,0,2.2,0,3.2,0h1.7V41H18.9z M30.8,56.4h6.3v-29
				h-6.3V56.4z M47.4,22.8H48c1.8,0,3.6,0,5.3,0c1.8,0,2.7,0.9,2.7,2.6c0,4.3,0,8.6,0,12.8c0,1.7-0.6,2.4-2.3,2.7v0.6
				c0,4.1,0,8.3,0,12.4c0,2.9-1.4,5-3.9,6.3c-1,0.5-2.1,0.7-3.2,0.7c-5.2,0-10.3,0-15.5,0c-3.2,0-6.5,0-9.7,0c-3.6,0-6.4-2.4-7-6
				c-0.1-0.4-0.1-0.8-0.1-1.2c0-4.1,0-8.1,0-12.2v-0.6C14.2,41,14.1,41,14,41c-1.3-0.2-2-1-2-2.3c0-2.6,0-5.2,0-7.8
				c0-1.8,0-3.6,0-5.3c0-1.7,0.9-2.6,2.6-2.6c1.8,0,3.6,0,5.3,0h0.6c-1-2.3-1.1-4.6-0.2-6.8c0.7-1.6,1.7-2.8,3.2-3.7
				c2.7-1.7,7.1-2,10.4,1.2c1.6-1.6,3.5-2.5,5.8-2.5c1.7,0,3.3,0.4,4.7,1.4c1.7,1.1,2.8,2.7,3.4,4.7C48.4,19,48.2,20.9,47.4,22.8
				L47.4,22.8z"/>
			<path id="Fill-6" class="st3" d="M85,47c5.5,0,11.1,0,16.6,0c1.6,0,2.7,1.5,2.3,3.2c-0.2,0.9-0.8,1.5-1.7,1.7
				c-0.3,0.1-0.5,0.1-0.8,0.1c-11,0-21.9,0-32.9,0c-0.5,0-1.1-0.2-1.6-0.5c-0.8-0.6-1.1-1.7-0.8-2.8c0.3-1,1.2-1.7,2.2-1.7
				C73.9,47,79.4,47,85,47"/>
			<path id="Fill-8" class="st3" d="M93,36.3c1.3,0,2.3-1,2.4-2.3c0-1.3-1-2.4-2.3-2.4c-1.3,0-2.4,1-2.4,2.2
				C90.6,35.2,91.7,36.3,93,36.3 M86,34c0-3.8,3.1-6.9,6.9-7c3.9-0.1,7.1,3,7.1,7c0.1,3.8-3.1,7-7,7C89.2,41,86.1,37.9,86,34"/>
			<path id="Fill-10" class="st3" d="M79.3,17c0-1.3-1-2.4-2.3-2.4c-1.3,0-2.4,1-2.4,2.3c0,1.3,1,2.4,2.3,2.4
				C78.2,19.3,79.3,18.3,79.3,17 M76.9,24c-4-0.1-7-3.3-6.9-7.3c0.1-3.7,3.4-6.8,7.2-6.7c3.8,0.1,6.9,3.4,6.8,7.2
				C83.9,21,80.6,24.1,76.9,24"/>
			<path id="Fill-12" class="st3" d="M78.3,40c-1.6,0-2.7-1.6-2.1-3.1c0.5-1.1,1.2-2.1,1.8-3.2c3.5-6.1,7.1-12.3,10.6-18.4
				c0.7-1.1,1.7-1.6,2.8-1.3c1.4,0.4,2,1.9,1.3,3.3c-0.6,1.1-1.2,2.1-1.8,3.1c-3.5,6-6.9,12-10.4,18.1C80,39.4,79.3,40,78.3,40"/>
			<path id="Fill-14" class="st3" d="M77.5,62c-2.7,0-5.5,0-8.2,0c-1,0-1.8-0.7-2.1-1.7c-0.3-1-0.1-2.1,0.7-2.8
				c0.4-0.3,0.9-0.5,1.3-0.5c5.6,0,11.1,0,16.7,0c1.2,0,2.1,1,2.2,2.3c0.1,1.2-0.7,2.3-1.7,2.6C86,62,85.7,62,85.5,62
				C82.8,62,80.1,62,77.5,62"/>
			<path id="Fill-16" class="st3" d="M31,2.5C31,3.9,29.9,5,28.5,5C27.1,5,26,3.9,26,2.5C26,1.1,27.1,0,28.5,0C29.9,0,31,1.1,31,2.5
				"/>
			<path id="Fill-18" class="st3" d="M96,59.5c0,1.4-1.1,2.5-2.5,2.5c-1.4,0-2.5-1.2-2.5-2.5c0-1.4,1.1-2.5,2.5-2.5
				C94.9,57,96,58.1,96,59.5"/>
		</g>
	</g>
</g>
</svg>
