<?xml version="1.0" encoding="UTF-8"?>
<svg width="63px" height="101px" viewBox="0 0 63 101" version="1.1" xmlns="http://www.w3.org/2000/svg" xmlns:xlink="http://www.w3.org/1999/xlink">
    <title>Group 6</title>
    <defs>
        <polygon id="path-1" points="0 0.0109318852 62.8784244 0.0109318852 62.8784244 100 0 100"></polygon>
    </defs>
    <g id="Mobile" stroke="none" stroke-width="1" fill="none" fill-rule="evenodd">
        <g id="2.Como-ganar2" transform="translate(-176.000000, -262.000000)">
            <g id="Group-6" transform="translate(176.000000, 262.000000)">
                <g id="Group-3">
                    <mask id="mask-2" fill="white">
                        <use xlink:href="#path-1"></use>
                    </mask>
                    <g id="Clip-2"></g>
                    <path d="M50.0765037,67.9513793 L50.0765037,67.8036782 C50.9885587,67.8036782 51.9011917,67.8168966 52.8132468,67.8008046 C54.380733,67.7743678 55.5655954,66.5508046 55.5604106,64.9841379 C55.5563477,63.5743678 54.3657055,62.4611494 52.7987972,62.4674445 C51.0035862,62.4743678 49.2083752,62.5375862 47.4137422,62.5617241 C47.1207055,62.5651724 47.0334303,62.6852874 46.9975954,62.9496552 C46.789522,64.4714943 46.6831734,65.9950575 46.8057055,67.5324138 C46.8340266,67.8910345 46.9554028,67.9686207 47.294678,67.96 C48.2211826,67.9352874 49.1494211,67.9513793 50.0765037,67.9513793 L50.0765037,67.9513793 Z M45.1954486,91.0077011 L45.1954486,91.0151724 C43.924467,90.9594253 42.6546413,90.8783908 41.3836596,90.855977 C39.7138706,90.8272414 38.5966321,92.0536782 38.8174211,93.6214943 C38.9833018,94.7967816 39.8988248,95.7197701 41.090045,95.7829885 C43.7788156,95.926092 46.4698982,96.0410345 49.1615587,96.122069 C50.4319624,96.16 51.546889,95.0743678 51.5694303,93.8852874 C51.5960174,92.4933333 50.5654761,91.2732184 49.2754211,91.1996552 C47.9165862,91.1226437 46.5554394,91.0709195 45.1954486,91.0077011 L45.1954486,91.0077011 Z M44.9128156,87.0990805 C47.9512651,87.2174713 50.2406505,87.2944828 52.5283018,87.4013793 C53.7073844,87.455977 54.8026596,86.8714943 55.2494394,85.8858621 C55.6638523,84.9714943 55.3858431,83.7151724 54.6148156,82.9151724 C54.0316321,82.31 53.3022193,82.1433333 52.4976688,82.1122989 C49.656311,82.0002299 46.8149532,81.8697701 43.9735954,81.7525287 C42.1789624,81.6783908 40.3843294,81.5749425 38.5891183,81.5611494 C37.1360725,81.5496552 35.9974486,82.6726437 36.000333,83.9864368 C36.0032284,85.568046 37.1152651,86.7697701 38.6191734,86.8318391 C40.9669349,86.9278161 43.3152743,87.0306897 44.9128156,87.0990805 L44.9128156,87.0990805 Z M37.3643752,72.8916092 C36.962678,73.4295402 36.6326505,73.9508046 36.2217055,74.3985057 C35.891678,74.7582759 35.8205862,75.1398851 35.9725954,75.5427586 C36.1205587,75.9375862 36.3147606,76.3433333 36.5881459,76.6594253 C37.2112101,77.3824138 38.0562193,77.6404598 39.0012193,77.6255172 C42.6829624,77.5668966 46.3652835,77.5151724 50.0470266,77.4582759 C52.0676505,77.4272414 54.0882743,77.4042529 56.1088982,77.355977 C57.9960083,77.3111494 59.388944,75.4065517 58.8519991,73.6347126 C58.506944,72.4967816 57.3989532,71.6921839 56.0222009,71.7031034 C53.0883661,71.726092 50.1551092,71.7962069 47.2224303,71.8674713 C47.0623294,71.8714943 46.8426963,72.0243678 46.7612009,72.1697701 C46.3311826,72.9329885 45.7456872,73.5272414 44.9631,73.926092 C43.7227514,74.5565517 42.4014853,74.7249425 41.0351367,74.5462069 C39.6526046,74.3645977 38.4324853,73.7950575 37.3643752,72.8916092 L37.3643752,72.8916092 Z M50.8440633,58.6071264 L50.8440633,58.0214943 L50.8440633,39.176092 C50.8440633,28.1898851 50.8463752,17.2042529 50.8342376,6.21862069 C50.8336596,5.79965517 50.759678,5.3462069 50.5857055,4.97034483 C50.2105954,4.15942529 49.2852468,3.76287356 48.4454394,3.96229885 C47.5056413,4.18586207 46.9080083,4.95425287 46.9080083,5.94908046 C46.9074303,21.7875862 46.9091642,37.6255172 46.9039315,53.4645977 C46.9033844,54.5031034 46.9062743,55.5105747 47.3495862,56.5065517 C47.6304853,57.1358621 47.6345312,57.8858621 47.768045,58.6071264 L50.8440633,58.6071264 Z M42.9413202,35.1571264 L42.9413202,7.86804598 L5.92853119,7.86804598 C6.04123761,8.03011494 6.11348532,8.14103448 6.19266881,8.2462069 C9.1224578,12.1795402 12.0528248,16.1122989 14.9831917,20.0444828 C15.7432376,21.064023 15.7675128,21.897931 15.0531275,22.8571264 C12.1244945,26.7904598 9.19354954,30.7226437 6.26376055,34.6548276 C6.15278807,34.8042529 6.04701743,34.9571264 5.90367798,35.1571264 L42.9413202,35.1571264 Z M16.9986138,92.8921839 C17.1506229,92.9249425 17.2662193,92.9508046 17.3829716,92.9743678 C19.2111275,93.351954 21.0485312,93.6887356 22.8645495,94.1168966 C25.5099716,94.7410345 28.0929716,95.6554023 30.821045,95.8829885 C32.3342009,96.0088506 33.8577606,96.0054023 35.4703294,96.064023 C34.6172284,93.9502299 34.598733,91.9686207 35.6951642,90.0496552 C33.7560358,88.9617241 32.5653936,87.3783908 32.1775679,85.2398851 C31.7851183,83.072069 32.3856413,81.1812644 33.8727881,79.6203448 C33.3953752,78.9433333 32.9433936,78.3036782 32.4833202,77.6508046 C32.3683018,77.718046 32.2423018,77.7944828 32.1139899,77.8668966 C29.9523385,79.0887356 27.669889,79.9122989 25.1533569,79.9916092 C24.0655954,80.026092 23.1714578,79.2571264 23.101522,78.1824138 C23.0321642,77.1122989 23.8228431,76.1416092 24.8840174,76.1054023 C27.1150266,76.0283908 29.0824761,75.2398851 30.8927147,74.0031034 C32.5307147,72.8841379 33.8138339,71.4605747 34.5773477,69.6134483 C34.6345679,69.4726437 34.6652009,69.2973563 34.6397697,69.1502299 C34.4305404,67.9375862 34.1947239,66.7289655 33.9878064,65.5163218 C33.8808798,64.8864368 33.7514119,64.2513793 33.7444761,63.6168966 C33.7340725,62.6462069 34.5507606,61.8214943 35.5050083,61.7312644 C36.5153202,61.6358621 37.4181275,62.2881609 37.6285128,63.3214943 C37.7649165,63.9904598 37.8712651,64.6726437 37.9123018,65.3531034 C38.0174945,67.0657471 38.3879807,68.6427586 39.7843844,69.8272414 C40.6831459,70.5898851 41.6634028,70.8847126 42.8170541,70.5898851 C43.1164486,70.5128736 43.1950541,70.3812644 43.169045,70.0554023 C43.0389991,68.4122989 42.8026046,66.7582759 42.884678,65.1214943 C42.978311,63.2450575 43.3083385,61.3714943 43.6470358,59.5163218 C43.9036596,58.105977 43.5690083,57.0145977 42.4228706,56.1318391 C40.9669349,55.0105747 39.386155,54.1197701 37.6643477,53.4910345 C36.6361183,53.1151724 35.5610725,52.9950575 34.4958523,53.372069 C32.583311,54.0490805 30.7545771,54.91 29.1778431,56.1933333 C27.9987606,57.1531034 26.8780541,58.1893103 25.7862468,59.2467816 C23.8407606,61.1301149 21.6317147,62.4956322 18.911155,62.9341379 C18.2805771,63.0352874 17.6494211,63.1266667 16.9986138,63.2255172 L16.9986138,63.7956322 C16.9974578,65.6404598 17.0090174,67.4870115 16.9893661,69.3324138 C16.9795404,70.2651724 16.2414578,71.0686207 15.3502101,71.1864368 C14.3503018,71.3191954 13.462522,70.7921839 13.179311,69.8588506 C13.0908798,69.5663218 13.0723844,69.2433333 13.0712284,68.9341379 C13.0625587,66.6864368 13.0666046,64.4387356 13.0666046,62.1910345 L13.0666046,61.6605747 L3.97495321,61.6605747 L3.97495321,94.4214943 L13.0666046,94.4214943 L13.0666046,93.8496552 C13.0666046,91.5571264 13.0579349,89.2645977 13.0746963,86.972069 C13.0775862,86.6404598 13.1405862,86.2812644 13.2810358,85.9835632 C13.6653936,85.1703448 14.5751367,84.7416092 15.3987606,84.9243678 C16.3570541,85.1381609 16.9795404,85.8467816 16.989944,86.8186207 C17.0095954,88.6795402 16.9974578,90.5404598 16.9986138,92.4013793 L16.9986138,92.8921839 Z M58.6803385,68.2347126 C64.8913294,70.8364368 63.7833385,79.193908 58.1549532,80.9778161 C60.681889,84.7973563 59.1398339,89.5289655 54.979522,91.0042529 C55.1407789,91.7462069 55.3690817,92.4737931 55.4465312,93.2168966 C55.7910083,96.5151724 53.341522,99.5703448 50.0239073,99.9398851 C48.9910541,100.055402 47.9350817,99.9697701 46.8895128,99.9657471 C43.2667239,99.951954 39.640467,99.8255172 36.0228798,99.9444828 C31.3718615,100.097356 26.880944,99.397931 22.4484028,98.0577011 C20.7526046,97.5444828 18.9857147,97.2634483 17.2506138,96.8789655 C17.1656505,96.86 17.0754853,96.8611494 16.9650908,96.8502299 C16.582467,98.0398851 15.698733,98.3835632 14.5288982,98.3766667 C10.3824578,98.3525287 6.23486147,98.3416092 2.08899908,98.3835632 C0.84576055,98.3962069 -0.00156055046,97.3985057 -0.00040576846,96.3157471 C0.0140449541,84.0944828 0.00826513761,71.8726437 0.0105770642,59.6513793 C0.0105770642,58.5801149 0.863677982,57.7134483 1.94565963,57.7111494 C6.31693486,57.7025287 10.6887881,57.7036782 15.0600633,57.7134483 C15.825889,57.7145977 16.4599349,58.0634483 16.7460358,58.7651724 C16.9564211,59.2795402 17.2454119,59.2513793 17.6731183,59.1950575 C19.8625128,58.905977 21.6409624,57.8663218 23.1616321,56.3174713 C25.0394945,54.4048276 27.0289073,52.6232184 29.4252193,51.3622989 C31.0903844,50.4852874 32.772889,49.6237931 34.6657789,49.3329885 C36.6609716,49.026092 38.5295862,49.5088506 40.3190174,50.3485057 C41.1940817,50.7594253 42.0431367,51.2249425 42.9390083,51.6835632 L42.9390083,39.0864368 L42.2616138,39.0864368 C28.9824853,39.0864368 15.7033569,39.0875862 2.42422844,39.0812644 C2.04044862,39.0812644 1.63065963,39.0714943 1.27635688,38.9450575 C0.0360082569,38.5031034 -0.374936697,37.0174713 0.426145872,35.9197701 C1.35727431,34.6427586 2.30978807,33.3818391 3.25363211,32.1145977 C5.81755872,28.6697701 8.38148532,25.226092 10.9454119,21.7818391 C11.0159257,21.6870115 11.0789257,21.5875862 11.1557972,21.4755172 C9.70853119,19.5347126 8.26531101,17.5990805 6.82266881,15.6628736 C4.71997156,12.8416092 2.61380642,10.0232184 0.517466972,7.19735632 C-0.313670642,6.07724138 -0.0975055046,4.79275862 1.02146697,4.16574713 C1.23589817,4.04563218 1.4931,3.98241379 1.73932018,3.94045977 C1.97224679,3.9008046 2.21673303,3.91862069 2.45601743,3.91862069 C15.8998706,3.91804598 29.3437239,3.91574713 42.7875771,3.92781609 C43.1771367,3.9283908 43.3453294,3.81747126 43.5019624,3.45885057 C44.5683385,1.01057471 47.2172284,-0.355517241 49.9528156,0.0967816092 C52.4785954,0.514022989 54.5327422,2.78356322 54.727522,5.38068966 C54.7575771,5.78068966 54.7737606,6.18298851 54.7737606,6.58471264 C54.7760725,23.8071264 54.7778064,41.0306897 54.7633569,58.2542529 C54.7627789,58.6967816 54.884733,58.8887356 55.3026138,59.0496552 C58.8716505,60.4186207 60.460522,64.2904598 58.8988156,67.755977 C58.8271459,67.9157471 58.7531642,68.0755172 58.6803385,68.2347126 L58.6803385,68.2347126 Z" id="Fill-1" fill="#1F9AD6" mask="url(#mask-2)"></path>
                </g>
                <path d="M15.0208284,76.0001712 C16.1510132,76.0143093 17.0139563,76.8920468 16.999829,78.0118985 C16.9862903,79.1335174 16.0850857,80.0248038 14.989042,79.9994732 C13.8700413,79.9735534 12.9729572,79.0634162 13.0006231,77.9800878 C13.0288778,76.8490435 13.9094801,75.9860332 15.0208284,76.0001712" id="Fill-4" fill="#1F9AD6"></path>
            </g>
        </g>
    </g>
</svg>