<?xml version="1.0" encoding="UTF-8"?>
<svg width="125px" height="69px" viewBox="0 0 125 69" version="1.1" xmlns="http://www.w3.org/2000/svg" xmlns:xlink="http://www.w3.org/1999/xlink">
    <title>Group 25</title>
    <g id="Mobile" stroke="none" stroke-width="1" fill="none" fill-rule="evenodd">
        <g id="2.Como-ganar4" transform="translate(-147.000000, -271.000000)">
            <g id="Group-25" transform="translate(148.000000, 272.000000)">
                <path d="M100.5705,30.8591993 C95.6452966,30.8591993 90.7214268,30.8572107 85.7962237,30.8631765 C85.3782348,30.8638394 84.9449129,30.8578735 84.5442568,30.9579667 C82.735638,31.4140205 81.675666,32.8378628 81.6743327,34.7866971 C81.6703329,41.1184202 81.6709995,47.4488176 81.6736661,53.7805407 C81.6749994,56.2417727 83.2442912,57.8207262 85.7168925,57.8220519 C95.5846315,57.8280178 105.452371,57.826692 115.32011,57.8180747 C115.754098,57.8174119 116.20342,57.7743254 116.620075,57.6589862 C118.402695,57.1624975 119.370669,55.7936733 119.372002,53.8044039 C119.375336,47.5091386 119.334003,41.2145362 119.393567,34.9199338 C119.416668,32.5415604 117.678047,30.7922495 115.288777,30.8340103 C110.38424,30.9188575 105.47637,30.8591993 100.5705,30.8591993 M97.4805814,27.2538557 C96.1166174,26.307279 94.7933191,25.6291642 93.3966894,25.0876004 C90.9980862,24.1562696 88.5068187,23.7572226 85.9342201,23.7585483 C65.1874355,23.7665028 44.4413175,23.7665028 23.6945329,23.7592112 C20.5866151,23.7578855 17.62736,24.3783307 14.8281007,25.7239544 C14.1381189,26.0553888 13.4628035,26.1269787 12.798821,25.6841823 C11.6621844,24.9271861 11.7508487,23.2461507 12.9861494,22.6237169 C15.2400898,21.4888855 17.6240267,20.7272492 20.1306271,20.4117236 C21.3792608,20.2546237 22.6465606,20.1856853 23.9065272,20.1843596 C44.5059824,20.1717651 65.1067709,20.1856853 85.7062261,20.1691136 C92.2840521,20.1638107 97.9399026,22.3923757 102.691777,26.898558 C102.964436,27.1577397 103.235096,27.2651245 103.611753,27.2611473 C105.276375,27.2432498 106.940998,27.2538557 108.657619,27.2538557 C108.672285,27.0742182 108.696285,26.9197698 108.696285,26.7646585 C108.698951,24.6905419 108.712284,22.6157625 108.695618,20.5416459 C108.656286,15.8505232 105.622366,11.9594831 101.074486,10.9751229 C97.8199057,10.2698305 94.9126493,11.1183026 92.4720472,13.4151431 C92.2460531,13.6272611 92.0413919,13.8619167 91.8160645,14.0753604 C90.7500927,15.0855725 89.3641294,15.2294151 88.1608279,14.3796172 C86.7288657,13.3680794 85.3175697,12.3247238 83.9349396,11.2482248 C82.5883086,10.2008921 82.4209797,8.49864493 83.54095,7.20141062 C86.5955359,3.65903958 90.3994353,1.342313 95.023313,0.422913932 C100.303173,-0.625744563 105.243043,0.28768869 109.849588,3.03063992 C110.366241,3.33821106 110.865561,3.68223999 111.342881,4.04880645 C112.093528,4.62550233 112.247524,5.69736124 111.720871,6.44441441 C111.132887,7.27962914 110.100914,7.51759905 109.26627,6.94090317 C107.647646,5.82131771 105.944358,4.87407815 104.045074,4.32588562 C98.6858828,2.77941263 93.7246807,3.64180499 89.1868007,6.84810153 C88.356156,7.43540332 87.6128424,8.14467297 86.7521984,8.86189705 C87.7915043,9.63215063 88.7488123,10.3407574 89.7247865,11.0639473 C90.8087578,9.94369898 92.0293922,9.07799229 93.4026892,8.44959263 C97.4032501,6.61874892 101.402478,6.66514974 105.281042,8.73727771 C108.903613,10.6721918 111.108221,13.7518804 112.000197,17.726442 C112.221525,18.711465 112.27219,19.7455404 112.295523,20.7597297 C112.339522,22.7052498 112.308189,24.6534213 112.308189,26.600267 L112.308189,27.2293296 L115.866095,27.2293296 C115.882761,27.1908832 115.920094,27.1424937 115.920094,27.0941043 C115.901428,24.3836337 115.93676,21.6711744 115.838096,18.9640181 C115.765431,16.9667943 115.194113,15.0617092 114.343469,13.2454486 C114.205472,12.9491463 114.05481,12.6482038 113.988145,12.334004 C113.801483,11.4484112 114.310803,10.6072307 115.17478,10.3056254 C116.030757,10.0073344 116.999398,10.3639578 117.364722,11.2634708 C117.972706,12.7595658 118.625355,14.2636152 118.982013,15.8266599 C119.33867,17.3903675 119.446667,19.0269906 119.501999,20.637099 C119.583997,23.0181239 119.531332,25.4044517 119.515999,27.7874651 C119.513332,28.1878379 119.621329,28.439728 119.962653,28.6896296 C121.806605,30.0412191 122.856577,31.8720629 122.952574,34.1476916 C123.037905,36.1641386 122.981907,38.1872142 122.982574,40.2069756 C122.984574,44.8284971 122.994573,49.4506815 122.97924,54.0728658 C122.967907,57.6510318 120.513972,60.5935065 116.984732,61.2676441 C116.414747,61.3763546 115.81943,61.3889491 115.236112,61.3902749 C110.860228,61.399555 106.48301,61.399555 102.107126,61.3882863 C101.663804,61.3876234 101.321146,61.4943453 100.965156,61.7800418 C97.1839226,64.8146553 92.8613702,66.5255197 88.016165,66.9152866 C87.2515186,66.9762705 86.4808723,66.9954937 85.7128926,66.9961566 C72.1259186,67 58.5389446,67 44.9519706,66.9988081 C44.7146436,66.9988081 44.4746499,67.0067625 44.2393228,66.9815735 C43.352013,66.8874461 42.6786974,66.1874566 42.6273655,65.3224128 C42.5720336,64.3983736 43.1346854,63.6546348 44.0573276,63.4710201 C44.3406535,63.4146763 44.6393122,63.4133506 44.9306379,63.4133506 C58.5902766,63.4106991 72.2512486,63.4087105 85.9108874,63.4140134 C88.6154825,63.4153392 91.2254135,62.9599483 93.7273473,61.9285244 C94.0233395,61.8072194 94.3099986,61.6653654 94.6013242,61.5327917 C94.5946577,61.4870537 94.5886579,61.4413158 94.582658,61.394915 C94.3766635,61.394915 94.1706689,61.3955778 93.965341,61.394915 C90.9620871,61.3869605 87.9574999,61.4419786 84.9569126,61.3524914 C81.4310058,61.2484209 78.4790839,58.3907934 78.1437595,54.8921717 C78.0930941,54.3685053 78.0670948,53.839536 78.0664282,53.3132181 C78.061095,47.1810186 78.0617616,41.0481561 78.0637616,34.9159565 C78.0644282,33.2388984 78.4384183,31.6672364 79.4663911,30.2984123 C80.8736873,28.4231563 82.7436378,27.3227941 85.1089086,27.2843477 C88.9528069,27.222038 92.7987052,27.2584958 96.6439368,27.2538557 C96.8632644,27.2531928 97.0832585,27.2538557 97.4805814,27.2538557" id="Fill-1" fill="#1F9AD6"></path>
                <path d="M100.5705,30.8591993 C95.6452966,30.8591993 90.7214268,30.8572107 85.7962237,30.8631765 C85.3782348,30.8638394 84.9449129,30.8578735 84.5442568,30.9579667 C82.735638,31.4140205 81.675666,32.8378628 81.6743327,34.7866971 C81.6703329,41.1184202 81.6709995,47.4488176 81.6736661,53.7805407 C81.6749994,56.2417727 83.2442912,57.8207262 85.7168925,57.8220519 C95.5846315,57.8280178 105.452371,57.826692 115.32011,57.8180747 C115.754098,57.8174119 116.20342,57.7743254 116.620075,57.6589862 C118.402695,57.1624975 119.370669,55.7936733 119.372002,53.8044039 C119.375336,47.5091386 119.334003,41.2145362 119.393567,34.9199338 C119.416668,32.5415604 117.678047,30.7922495 115.288777,30.8340103 C110.38424,30.9188575 105.47637,30.8591993 100.5705,30.8591993 Z M97.4805814,27.2538557 C96.1166174,26.307279 94.7933191,25.6291642 93.3966894,25.0876004 C90.9980862,24.1562696 88.5068187,23.7572226 85.9342201,23.7585483 C65.1874355,23.7665028 44.4413175,23.7665028 23.6945329,23.7592112 C20.5866151,23.7578855 17.62736,24.3783307 14.8281007,25.7239544 C14.1381189,26.0553888 13.4628035,26.1269787 12.798821,25.6841823 C11.6621844,24.9271861 11.7508487,23.2461507 12.9861494,22.6237169 C15.2400898,21.4888855 17.6240267,20.7272492 20.1306271,20.4117236 C21.3792608,20.2546237 22.6465606,20.1856853 23.9065272,20.1843596 C44.5059824,20.1717651 65.1067709,20.1856853 85.7062261,20.1691136 C92.2840521,20.1638107 97.9399026,22.3923757 102.691777,26.898558 C102.964436,27.1577397 103.235096,27.2651245 103.611753,27.2611473 C105.276375,27.2432498 106.940998,27.2538557 108.657619,27.2538557 C108.672285,27.0742182 108.696285,26.9197698 108.696285,26.7646585 C108.698951,24.6905419 108.712284,22.6157625 108.695618,20.5416459 C108.656286,15.8505232 105.622366,11.9594831 101.074486,10.9751229 C97.8199057,10.2698305 94.9126493,11.1183026 92.4720472,13.4151431 C92.2460531,13.6272611 92.0413919,13.8619167 91.8160645,14.0753604 C90.7500927,15.0855725 89.3641294,15.2294151 88.1608279,14.3796172 C86.7288657,13.3680794 85.3175697,12.3247238 83.9349396,11.2482248 C82.5883086,10.2008921 82.4209797,8.49864493 83.54095,7.20141062 C86.5955359,3.65903958 90.3994353,1.342313 95.023313,0.422913932 C100.303173,-0.625744563 105.243043,0.28768869 109.849588,3.03063992 C110.366241,3.33821106 110.865561,3.68223999 111.342881,4.04880645 C112.093528,4.62550233 112.247524,5.69736124 111.720871,6.44441441 C111.132887,7.27962914 110.100914,7.51759905 109.26627,6.94090317 C107.647646,5.82131771 105.944358,4.87407815 104.045074,4.32588562 C98.6858828,2.77941263 93.7246807,3.64180499 89.1868007,6.84810153 C88.356156,7.43540332 87.6128424,8.14467297 86.7521984,8.86189705 C87.7915043,9.63215063 88.7488123,10.3407574 89.7247865,11.0639473 C90.8087578,9.94369898 92.0293922,9.07799229 93.4026892,8.44959263 C97.4032501,6.61874892 101.402478,6.66514974 105.281042,8.73727771 C108.903613,10.6721918 111.108221,13.7518804 112.000197,17.726442 C112.221525,18.711465 112.27219,19.7455404 112.295523,20.7597297 C112.339522,22.7052498 112.308189,24.6534213 112.308189,26.600267 L112.308189,27.2293296 L115.866095,27.2293296 C115.882761,27.1908832 115.920094,27.1424937 115.920094,27.0941043 C115.901428,24.3836337 115.93676,21.6711744 115.838096,18.9640181 C115.765431,16.9667943 115.194113,15.0617092 114.343469,13.2454486 C114.205472,12.9491463 114.05481,12.6482038 113.988145,12.334004 C113.801483,11.4484112 114.310803,10.6072307 115.17478,10.3056254 C116.030757,10.0073344 116.999398,10.3639578 117.364722,11.2634708 C117.972706,12.7595658 118.625355,14.2636152 118.982013,15.8266599 C119.33867,17.3903675 119.446667,19.0269906 119.501999,20.637099 C119.583997,23.0181239 119.531332,25.4044517 119.515999,27.7874651 C119.513332,28.1878379 119.621329,28.439728 119.962653,28.6896296 C121.806605,30.0412191 122.856577,31.8720629 122.952574,34.1476916 C123.037905,36.1641386 122.981907,38.1872142 122.982574,40.2069756 C122.984574,44.8284971 122.994573,49.4506815 122.97924,54.0728658 C122.967907,57.6510318 120.513972,60.5935065 116.984732,61.2676441 C116.414747,61.3763546 115.81943,61.3889491 115.236112,61.3902749 C110.860228,61.399555 106.48301,61.399555 102.107126,61.3882863 C101.663804,61.3876234 101.321146,61.4943453 100.965156,61.7800418 C97.1839226,64.8146553 92.8613702,66.5255197 88.016165,66.9152866 C87.2515186,66.9762705 86.4808723,66.9954937 85.7128926,66.9961566 C72.1259186,67 58.5389446,67 44.9519706,66.9988081 C44.7146436,66.9988081 44.4746499,67.0067625 44.2393228,66.9815735 C43.352013,66.8874461 42.6786974,66.1874566 42.6273655,65.3224128 C42.5720336,64.3983736 43.1346854,63.6546348 44.0573276,63.4710201 C44.3406535,63.4146763 44.6393122,63.4133506 44.9306379,63.4133506 C58.5902766,63.4106991 72.2512486,63.4087105 85.9108874,63.4140134 C88.6154825,63.4153392 91.2254135,62.9599483 93.7273473,61.9285244 C94.0233395,61.8072194 94.3099986,61.6653654 94.6013242,61.5327917 C94.5946577,61.4870537 94.5886579,61.4413158 94.582658,61.394915 C94.3766635,61.394915 94.1706689,61.3955778 93.965341,61.394915 C90.9620871,61.3869605 87.9574999,61.4419786 84.9569126,61.3524914 C81.4310058,61.2484209 78.4790839,58.3907934 78.1437595,54.8921717 C78.0930941,54.3685053 78.0670948,53.839536 78.0664282,53.3132181 C78.061095,47.1810186 78.0617616,41.0481561 78.0637616,34.9159565 C78.0644282,33.2388984 78.4384183,31.6672364 79.4663911,30.2984123 C80.8736873,28.4231563 82.7436378,27.3227941 85.1089086,27.2843477 C88.9528069,27.222038 92.7987052,27.2584958 96.6439368,27.2538557 C96.8632644,27.2531928 97.0832585,27.2538557 97.4805814,27.2538557 Z" id="Stroke-3" stroke="#1F9AD6" stroke-width="1.105"></path>
                <path d="M28.8479082,66.9219259 C26.5804256,66.9219259 24.3082428,67.0199913 22.0474747,66.9012454 C17.7938465,66.6757617 13.8920575,65.3121858 10.390452,62.9019119 C5.15583716,59.2981754 1.75360607,54.3929044 0.517468826,48.2021095 C-1.02350618,40.4856305 0.884751322,33.5836947 6.14085256,27.645068 C6.83781642,26.8572093 7.93496376,26.7884968 8.71115858,27.4529399 C9.44908081,28.0853616 9.56322711,29.1834272 8.87834933,29.9672832 C7.26888655,31.808511 5.92598894,33.8085113 5.05847709,36.0967038 C2.77689405,42.1160511 3.15894842,47.9646178 6.43696148,53.5223239 C9.60552838,58.894573 14.4010157,62.0380025 20.5501439,63.1313982 C21.6848924,63.333533 22.8612707,63.369557 24.0195199,63.3782295 C27.9461525,63.4062482 31.874128,63.3822322 35.801432,63.3982428 C36.2157159,63.3995771 36.6548434,63.4616184 37.0368978,63.6117185 C37.6882032,63.8672222 38.0501141,64.5883698 37.9943838,65.3188569 C37.9359678,66.0840338 37.4693108,66.6977764 36.7468319,66.8965757 C36.4675092,66.9732935 36.1646858,66.9939739 35.873277,66.9946411 C33.5319351,67.0026464 31.1892502,66.9993108 28.8479082,66.9993108 L28.8479082,66.9219259 Z" id="Fill-5" fill="#1F9AD6"></path>
                <path d="M28.8479082,66.9219259 C26.5804256,66.9219259 24.3082428,67.0199913 22.0474747,66.9012454 C17.7938465,66.6757617 13.8920575,65.3121858 10.390452,62.9019119 C5.15583716,59.2981754 1.75360607,54.3929044 0.517468826,48.2021095 C-1.02350618,40.4856305 0.884751322,33.5836947 6.14085256,27.645068 C6.83781642,26.8572093 7.93496376,26.7884968 8.71115858,27.4529399 C9.44908081,28.0853616 9.56322711,29.1834272 8.87834933,29.9672832 C7.26888655,31.808511 5.92598894,33.8085113 5.05847709,36.0967038 C2.77689405,42.1160511 3.15894842,47.9646178 6.43696148,53.5223239 C9.60552838,58.894573 14.4010157,62.0380025 20.5501439,63.1313982 C21.6848924,63.333533 22.8612707,63.369557 24.0195199,63.3782295 C27.9461525,63.4062482 31.874128,63.3822322 35.801432,63.3982428 C36.2157159,63.3995771 36.6548434,63.4616184 37.0368978,63.6117185 C37.6882032,63.8672222 38.0501141,64.5883698 37.9943838,65.3188569 C37.9359678,66.0840338 37.4693108,66.6977764 36.7468319,66.8965757 C36.4675092,66.9732935 36.1646858,66.9939739 35.873277,66.9946411 C33.5319351,67.0026464 31.1892502,66.9993108 28.8479082,66.9993108 L28.8479082,66.9219259 Z" id="Stroke-7" stroke="#1F9AD6" stroke-width="1.105"></path>
                <path d="M62.1714489,46.5456824 C60.9769141,47.200835 59.9006027,47.8110516 58.8031067,48.3854497 C57.6318065,48.9995738 56.3484333,48.4284319 56.0593668,47.1910663 C55.8905739,46.4668818 56.2363603,45.7505122 57.0188216,45.3037581 C57.9181395,44.7892745 58.8359086,44.3034457 59.7441104,43.801987 C59.9006027,43.7153714 60.0495778,43.6163821 60.2798743,43.4744107 C59.200146,42.8804752 58.1614201,42.3575254 57.1821475,41.74796 C56.7659738,41.4887645 56.3682511,41.0986687 56.1488886,40.6786156 C55.8078858,40.0254168 56.0832849,39.2654138 56.663468,38.7958661 C57.2716693,38.3035249 58.0964997,38.2247242 58.8707606,38.6330549 C59.7885296,39.1175812 60.6851141,39.637926 61.5926325,40.140036 C61.7498082,40.2266515 61.9138175,40.3015447 62.1714489,40.42984 C62.1714489,39.8417657 62.1707655,39.3337946 62.1721323,38.8258234 C62.1728156,38.1107563 62.1577814,37.395038 62.1810161,36.6812734 C62.2104011,35.7597616 62.9491266,35.0446946 63.8798797,35.0023636 C64.9090384,34.9567765 65.7448028,35.5741568 65.81314,36.5477682 C65.8869442,37.5982265 65.8507255,38.6551972 65.8609761,39.7089117 C65.8630262,39.9179614 65.8609761,40.1283135 65.8609761,40.4480749 C66.7773783,39.9401037 67.5960584,39.4855347 68.4167885,39.0335706 C68.7079052,38.8720618 68.992188,38.6942719 69.2983388,38.5614179 C70.2523266,38.147226 71.3170207,38.4676386 71.7796638,39.2901611 C72.23889,40.1087762 71.9682745,41.0954125 71.0798905,41.6235722 C70.1744222,42.1628031 69.2347852,42.6499344 68.3101825,43.1598593 C68.1489066,43.2490799 67.9896808,43.3402542 67.7675848,43.4652933 C67.911093,43.5662362 68.0142822,43.6535031 68.1311389,43.7179763 C69.1186119,44.2663247 70.1170189,44.7977407 71.0962914,45.3604164 C71.7475453,45.7342311 72.0564295,46.3177466 71.9757916,47.0367212 C71.8985705,47.7224823 71.521349,48.2402221 70.8290928,48.5059301 C70.2489097,48.7286559 69.6940114,48.6570189 69.1575641,48.3593999 C68.2507291,47.8559875 67.3397938,47.3597388 66.4288585,46.8621875 C66.2716828,46.7762232 66.1069901,46.7032837 65.8616594,46.5834546 C65.8616594,47.3805786 65.8630262,48.1067168 65.8609761,48.8328551 C65.8596093,49.3154277 65.8794271,49.7993028 65.8438917,50.2792704 C65.7694042,51.2867465 64.972592,52.0115823 63.9892193,52 C62.9764615,51.9881374 62.1953669,51.224227 62.1775992,50.1907011 C62.1591482,49.1903886 62.1721323,48.1887737 62.1714489,47.1884613 L62.1714489,46.5456824 Z" id="Fill-9" fill="#1F9AD6"></path>
                <path d="M62.1714489,46.5456824 C60.9769141,47.200835 59.9006027,47.8110516 58.8031067,48.3854497 C57.6318065,48.9995738 56.3484333,48.4284319 56.0593668,47.1910663 C55.8905739,46.4668818 56.2363603,45.7505122 57.0188216,45.3037581 C57.9181395,44.7892745 58.8359086,44.3034457 59.7441104,43.801987 C59.9006027,43.7153714 60.0495778,43.6163821 60.2798743,43.4744107 C59.200146,42.8804752 58.1614201,42.3575254 57.1821475,41.74796 C56.7659738,41.4887645 56.3682511,41.0986687 56.1488886,40.6786156 C55.8078858,40.0254168 56.0832849,39.2654138 56.663468,38.7958661 C57.2716693,38.3035249 58.0964997,38.2247242 58.8707606,38.6330549 C59.7885296,39.1175812 60.6851141,39.637926 61.5926325,40.140036 C61.7498082,40.2266515 61.9138175,40.3015447 62.1714489,40.42984 C62.1714489,39.8417657 62.1707655,39.3337946 62.1721323,38.8258234 C62.1728156,38.1107563 62.1577814,37.395038 62.1810161,36.6812734 C62.2104011,35.7597616 62.9491266,35.0446946 63.8798797,35.0023636 C64.9090384,34.9567765 65.7448028,35.5741568 65.81314,36.5477682 C65.8869442,37.5982265 65.8507255,38.6551972 65.8609761,39.7089117 C65.8630262,39.9179614 65.8609761,40.1283135 65.8609761,40.4480749 C66.7773783,39.9401037 67.5960584,39.4855347 68.4167885,39.0335706 C68.7079052,38.8720618 68.992188,38.6942719 69.2983388,38.5614179 C70.2523266,38.147226 71.3170207,38.4676386 71.7796638,39.2901611 C72.23889,40.1087762 71.9682745,41.0954125 71.0798905,41.6235722 C70.1744222,42.1628031 69.2347852,42.6499344 68.3101825,43.1598593 C68.1489066,43.2490799 67.9896808,43.3402542 67.7675848,43.4652933 C67.911093,43.5662362 68.0142822,43.6535031 68.1311389,43.7179763 C69.1186119,44.2663247 70.1170189,44.7977407 71.0962914,45.3604164 C71.7475453,45.7342311 72.0564295,46.3177466 71.9757916,47.0367212 C71.8985705,47.7224823 71.521349,48.2402221 70.8290928,48.5059301 C70.2489097,48.7286559 69.6940114,48.6570189 69.1575641,48.3593999 C68.2507291,47.8559875 67.3397938,47.3597388 66.4288585,46.8621875 C66.2716828,46.7762232 66.1069901,46.7032837 65.8616594,46.5834546 C65.8616594,47.3805786 65.8630262,48.1067168 65.8609761,48.8328551 C65.8596093,49.3154277 65.8794271,49.7993028 65.8438917,50.2792704 C65.7694042,51.2867465 64.972592,52.0115823 63.9892193,52 C62.9764615,51.9881374 62.1953669,51.224227 62.1775992,50.1907011 C62.1591482,49.1903886 62.1721323,48.1887737 62.1714489,47.1884613 L62.1714489,46.5456824 Z" id="Stroke-11" stroke="#1F9AD6" stroke-width="1.105"></path>
                <path d="M40.2816272,43.4817333 C39.1548776,42.8630537 38.102788,42.2854024 37.0513834,41.7077511 C36.3814982,41.3397995 35.9883345,40.8083864 36.0129928,40.0522948 C36.0561449,38.7061784 37.5370159,37.9605067 38.8644571,38.637798 C39.7569523,39.0936671 40.6193096,39.6042406 41.496051,40.0874619 C41.6857833,40.1923118 41.8809952,40.2880443 42.1563468,40.430015 C42.1563468,39.160745 42.1447026,37.9722291 42.1597716,36.7837131 C42.1748406,35.6668337 43.0618562,34.9146496 44.2201137,35.0077771 C45.1482266,35.0833212 45.8400303,35.8211779 45.8633188,36.8169264 C45.8872922,37.8172335 45.8694834,38.8181919 45.8694834,39.8184991 L45.8694834,40.448901 C46.9708897,39.8380363 47.9853068,39.2773173 48.999039,38.713342 C49.596319,38.3805576 50.2189424,38.2405406 50.8792382,38.5173183 C51.5285747,38.7895373 51.9326977,39.2506164 51.9922887,39.9441887 C52.0566744,40.7002803 51.7155672,41.2701167 51.0552714,41.6504418 C50.1401726,42.1785988 49.2017854,42.6715887 48.2757274,43.1815109 C48.1188729,43.268126 47.9695529,43.3645098 47.743518,43.5006193 C48.8558836,44.1121352 49.9052333,44.6897865 50.955953,45.2654841 C51.5648773,45.5982686 51.9614658,46.0639063 51.9950285,46.755525 C52.062839,48.1667656 50.5949822,49.0758989 49.283295,48.4122837 C48.3380582,47.9342723 47.4229594,47.4035104 46.4941616,46.8981469 C46.3181283,46.8030656 46.1393553,46.712543 45.8694834,46.5718748 C45.8694834,47.2393975 45.8708533,47.8352836 45.8694834,48.4311697 C45.8674285,49.0563616 45.8961966,49.6835073 45.8544144,50.3060943 C45.7866039,51.2972841 44.947535,52.0253723 43.9632559,51.9993226 C42.9659626,51.9726217 42.1816901,51.2178326 42.1618264,50.2240379 C42.1412778,49.205496 42.1556618,48.1869541 42.1556618,47.1684122 C42.1549769,46.9958331 42.1556618,46.8226028 42.1556618,46.556245 C41.2070003,47.0733309 40.3329988,47.5474348 39.4603672,48.0234924 C39.2322774,48.1478796 39.0096673,48.2813841 38.7767829,48.3979564 C37.8383957,48.8694553 36.7904158,48.6070049 36.2712206,47.7747181 C35.7540802,46.94699 35.9869646,45.9160745 36.8801448,45.3840101 C37.8822328,44.7868215 38.9240481,44.2501984 39.9473696,43.6862231 C40.0281942,43.6419387 40.1042241,43.5904906 40.2816272,43.4817333" id="Fill-13" fill="#1F9AD6"></path>
                <path d="M40.2816272,43.4817333 C39.1548776,42.8630537 38.102788,42.2854024 37.0513834,41.7077511 C36.3814982,41.3397995 35.9883345,40.8083864 36.0129928,40.0522948 C36.0561449,38.7061784 37.5370159,37.9605067 38.8644571,38.637798 C39.7569523,39.0936671 40.6193096,39.6042406 41.496051,40.0874619 C41.6857833,40.1923118 41.8809952,40.2880443 42.1563468,40.430015 C42.1563468,39.160745 42.1447026,37.9722291 42.1597716,36.7837131 C42.1748406,35.6668337 43.0618562,34.9146496 44.2201137,35.0077771 C45.1482266,35.0833212 45.8400303,35.8211779 45.8633188,36.8169264 C45.8872922,37.8172335 45.8694834,38.8181919 45.8694834,39.8184991 L45.8694834,40.448901 C46.9708897,39.8380363 47.9853068,39.2773173 48.999039,38.713342 C49.596319,38.3805576 50.2189424,38.2405406 50.8792382,38.5173183 C51.5285747,38.7895373 51.9326977,39.2506164 51.9922887,39.9441887 C52.0566744,40.7002803 51.7155672,41.2701167 51.0552714,41.6504418 C50.1401726,42.1785988 49.2017854,42.6715887 48.2757274,43.1815109 C48.1188729,43.268126 47.9695529,43.3645098 47.743518,43.5006193 C48.8558836,44.1121352 49.9052333,44.6897865 50.955953,45.2654841 C51.5648773,45.5982686 51.9614658,46.0639063 51.9950285,46.755525 C52.062839,48.1667656 50.5949822,49.0758989 49.283295,48.4122837 C48.3380582,47.9342723 47.4229594,47.4035104 46.4941616,46.8981469 C46.3181283,46.8030656 46.1393553,46.712543 45.8694834,46.5718748 C45.8694834,47.2393975 45.8708533,47.8352836 45.8694834,48.4311697 C45.8674285,49.0563616 45.8961966,49.6835073 45.8544144,50.3060943 C45.7866039,51.2972841 44.947535,52.0253723 43.9632559,51.9993226 C42.9659626,51.9726217 42.1816901,51.2178326 42.1618264,50.2240379 C42.1412778,49.205496 42.1556618,48.1869541 42.1556618,47.1684122 C42.1549769,46.9958331 42.1556618,46.8226028 42.1556618,46.556245 C41.2070003,47.0733309 40.3329988,47.5474348 39.4603672,48.0234924 C39.2322774,48.1478796 39.0096673,48.2813841 38.7767829,48.3979564 C37.8383957,48.8694553 36.7904158,48.6070049 36.2712206,47.7747181 C35.7540802,46.94699 35.9869646,45.9160745 36.8801448,45.3840101 C37.8822328,44.7868215 38.9240481,44.2501984 39.9473696,43.6862231 C40.0281942,43.6419387 40.1042241,43.5904906 40.2816272,43.4817333 Z" id="Stroke-15" stroke="#1F9AD6" stroke-width="1.105"></path>
                <path d="M22.1587304,40.4285337 C22.1587304,39.5298564 22.1573626,38.7158371 22.1594143,37.9011666 C22.1607821,37.4726669 22.1464201,37.0428647 22.175828,36.6156674 C22.2407989,35.6746611 23.0136105,35.0006531 23.9984323,35 C24.9805184,34.9986995 25.7765827,35.6688001 25.8189848,36.6150162 C25.8648064,37.6673803 25.838818,38.7230005 25.8436053,39.7773183 C25.8449731,39.9655195 25.8442892,40.1537208 25.8442892,40.4519774 C26.7538816,39.9498903 27.5588366,39.5057614 28.3624239,39.0616325 C28.6216235,38.9183651 28.8760358,38.7646783 29.1413906,38.6318303 C30.1303158,38.1375578 31.2348208,38.3986952 31.753904,39.2420192 C32.2709354,40.0820871 31.9542879,41.1207757 30.9824602,41.6814722 C30.164511,42.1529521 29.3274125,42.5951274 28.4992047,43.050327 C28.2721486,43.1753603 28.0471441,43.3010449 27.7592205,43.4605927 C27.9089955,43.5660896 28.0136328,43.6553061 28.1305804,43.7210789 C29.0559026,44.2316318 29.986696,44.731114 30.9079147,45.248179 C31.9481327,45.8323193 32.2784584,46.8430056 31.7429615,47.7534048 C31.2225105,48.6377553 30.0988562,48.8708905 29.0504313,48.3023794 C28.0136328,47.7410317 26.9809377,47.170567 25.8436053,46.5473538 L25.8436053,48.555051 C25.8436053,49.0551844 25.8497605,49.5559691 25.8422375,50.0554513 C25.8237721,51.206149 25.0598513,52.0045391 23.9902254,52 C22.9137605,51.9941196 22.1737763,51.2074514 22.161466,50.0372173 C22.1512075,49.0903501 22.1594143,48.1428316 22.1587304,47.1959644 L22.1587304,46.5987998 C21.9665534,46.6815042 21.8352438,46.7257868 21.7162445,46.7909084 C20.7389456,47.3223002 19.7712214,47.8706236 18.7857157,48.3883398 C17.8515028,48.8793563 16.8044458,48.6136604 16.2812592,47.7833607 C15.7546531,46.9472001 15.976238,45.9326065 16.8728362,45.3914464 C17.8063652,44.8281451 18.7822962,44.3280117 19.738394,43.7979223 C19.8936403,43.7113106 20.0427313,43.6136283 20.2691036,43.4755707 C19.1550239,42.8614745 18.1031795,42.2910098 17.0602259,41.7055671 C16.2217595,41.2353896 15.8613421,40.511238 16.0528352,39.7382453 C16.3530691,38.5308919 17.6873659,38.0164317 18.9095024,38.6591814 C19.8122557,39.1345686 20.6924402,39.6477264 21.5849349,40.1413477 C21.7408651,40.2266569 21.9036342,40.3008955 22.1587304,40.4285337" id="Fill-17" fill="#1F9AD6"></path>
                <path d="M22.1587304,40.4285337 C22.1587304,39.5298564 22.1573626,38.7158371 22.1594143,37.9011666 C22.1607821,37.4726669 22.1464201,37.0428647 22.175828,36.6156674 C22.2407989,35.6746611 23.0136105,35.0006531 23.9984323,35 C24.9805184,34.9986995 25.7765827,35.6688001 25.8189848,36.6150162 C25.8648064,37.6673803 25.838818,38.7230005 25.8436053,39.7773183 C25.8449731,39.9655195 25.8442892,40.1537208 25.8442892,40.4519774 C26.7538816,39.9498903 27.5588366,39.5057614 28.3624239,39.0616325 C28.6216235,38.9183651 28.8760358,38.7646783 29.1413906,38.6318303 C30.1303158,38.1375578 31.2348208,38.3986952 31.753904,39.2420192 C32.2709354,40.0820871 31.9542879,41.1207757 30.9824602,41.6814722 C30.164511,42.1529521 29.3274125,42.5951274 28.4992047,43.050327 C28.2721486,43.1753603 28.0471441,43.3010449 27.7592205,43.4605927 C27.9089955,43.5660896 28.0136328,43.6553061 28.1305804,43.7210789 C29.0559026,44.2316318 29.986696,44.731114 30.9079147,45.248179 C31.9481327,45.8323193 32.2784584,46.8430056 31.7429615,47.7534048 C31.2225105,48.6377553 30.0988562,48.8708905 29.0504313,48.3023794 C28.0136328,47.7410317 26.9809377,47.170567 25.8436053,46.5473538 L25.8436053,48.555051 C25.8436053,49.0551844 25.8497605,49.5559691 25.8422375,50.0554513 C25.8237721,51.206149 25.0598513,52.0045391 23.9902254,52 C22.9137605,51.9941196 22.1737763,51.2074514 22.161466,50.0372173 C22.1512075,49.0903501 22.1594143,48.1428316 22.1587304,47.1959644 L22.1587304,46.5987998 C21.9665534,46.6815042 21.8352438,46.7257868 21.7162445,46.7909084 C20.7389456,47.3223002 19.7712214,47.8706236 18.7857157,48.3883398 C17.8515028,48.8793563 16.8044458,48.6136604 16.2812592,47.7833607 C15.7546531,46.9472001 15.976238,45.9326065 16.8728362,45.3914464 C17.8063652,44.8281451 18.7822962,44.3280117 19.738394,43.7979223 C19.8936403,43.7113106 20.0427313,43.6136283 20.2691036,43.4755707 C19.1550239,42.8614745 18.1031795,42.2910098 17.0602259,41.7055671 C16.2217595,41.2353896 15.8613421,40.511238 16.0528352,39.7382453 C16.3530691,38.5308919 17.6873659,38.0164317 18.9095024,38.6591814 C19.8122557,39.1345686 20.6924402,39.6477264 21.5849349,40.1413477 C21.7408651,40.2266569 21.9036342,40.3008955 22.1587304,40.4285337 Z" id="Stroke-19" stroke="#1F9AD6" stroke-width="1.105"></path>
                <path d="M101.41723,47.3863703 C101.41723,46.8839049 101.433089,46.4312874 101.413927,45.979999 C101.355119,44.6095182 101.866545,43.5733496 103.027495,42.7970539 C104.424996,41.8619101 104.828057,39.9158538 104.025238,38.4137749 C103.371088,37.1888495 101.997375,36.4517674 100.632912,36.5920057 C99.3021479,36.7295855 98.0559605,37.7916749 97.7017949,39.0917043 C97.3178951,40.5033927 97.7566377,41.9582824 98.946,42.7711331 C100.147256,43.5912948 100.68379,44.6706647 100.590624,46.1069446 C100.562872,46.5323121 100.585998,46.9610028 100.585998,47.3863703 L101.41723,47.3863703 Z M101.013508,50.9754084 C100.451865,50.9754084 99.8855962,51.0245916 99.3298997,50.9667682 C97.9172016,50.8185542 97.0403773,49.832898 97.011304,48.4079169 C96.9974281,47.7153654 96.9908205,47.0214847 97.0159293,46.3302626 C97.0284837,45.9700295 96.921441,45.7327542 96.6326903,45.5041192 C93.7795423,43.2490069 93.1557879,39.0936982 95.2028125,36.0835586 C96.8190237,33.7074824 99.6378124,32.5629781 102.422242,33.1531754 C105.254906,33.7533424 107.393115,35.9107531 107.880754,38.7879654 C108.346587,41.5349088 107.438707,43.799326 105.313053,45.5865341 C105.138613,45.7334188 105.007783,46.0225358 104.993246,46.2538294 C104.951619,46.9437222 104.942368,47.6402615 104.985317,48.3301544 C105.077163,49.8023247 103.8878,51 102.373346,51 L101.013508,51 L101.013508,50.9754084 Z" id="Fill-21" fill="#1F9AD6"></path>
                <path d="M101.41723,47.3863703 C101.41723,46.8839049 101.433089,46.4312874 101.413927,45.979999 C101.355119,44.6095182 101.866545,43.5733496 103.027495,42.7970539 C104.424996,41.8619101 104.828057,39.9158538 104.025238,38.4137749 C103.371088,37.1888495 101.997375,36.4517674 100.632912,36.5920057 C99.3021479,36.7295855 98.0559605,37.7916749 97.7017949,39.0917043 C97.3178951,40.5033927 97.7566377,41.9582824 98.946,42.7711331 C100.147256,43.5912948 100.68379,44.6706647 100.590624,46.1069446 C100.562872,46.5323121 100.585998,46.9610028 100.585998,47.3863703 L101.41723,47.3863703 Z M101.013508,50.9754084 C100.451865,50.9754084 99.8855962,51.0245916 99.3298997,50.9667682 C97.9172016,50.8185542 97.0403773,49.832898 97.011304,48.4079169 C96.9974281,47.7153654 96.9908205,47.0214847 97.0159293,46.3302626 C97.0284837,45.9700295 96.921441,45.7327542 96.6326903,45.5041192 C93.7795423,43.2490069 93.1557879,39.0936982 95.2028125,36.0835586 C96.8190237,33.7074824 99.6378124,32.5629781 102.422242,33.1531754 C105.254906,33.7533424 107.393115,35.9107531 107.880754,38.7879654 C108.346587,41.5349088 107.438707,43.799326 105.313053,45.5865341 C105.138613,45.7334188 105.007783,46.0225358 104.993246,46.2538294 C104.951619,46.9437222 104.942368,47.6402615 104.985317,48.3301544 C105.077163,49.8023247 103.8878,51 102.373346,51 L101.013508,51 L101.013508,50.9754084 Z" id="Stroke-23" stroke="#1F9AD6" stroke-width="1.105"></path>
            </g>
        </g>
    </g>
</svg>