<svg version="1.1" id="Layer_1" xmlns="http://www.w3.org/2000/svg" xmlns:xlink="http://www.w3.org/1999/xlink" x="0px" y="0px"
	 viewBox="0 0 321.9 260.4" style="enable-background:new 0 0 321.9 260.4;" xml:space="preserve">
<style type="text/css">
	.st0{fill-rule:evenodd;clip-rule:evenodd;fill:#209AD6;}
	.st1{fill:none;stroke:#209AD6;stroke-width:2.896;}
</style>
<g id="Mobile">
</g>
<g id="Group-17" transform="translate(165.000000, 268.000000)">
	<path id="Fill-1" class="st0" d="M-142.3-203.3c0.7,0,1.3,0,1.9,0c83.5,0.4,166.9,0.8,250.4,1.2c0.9,0,1.9,0.1,2.7,0.3
		c2.2,0.6,3.7,2.9,3.5,5c-0.3,2.5-2.2,4.4-4.6,4.5c-0.7,0-1.3,0-2,0c-83.3-0.4-166.7-0.8-250-1.2c-0.6,0-1.2,0-2,0
		c-0.1,10.7-0.1,21.3-0.2,32.2c0.6,0,1.2,0,1.8,0c83.6,0.4,167.1,0.8,250.7,1.2c1.7,0,3.4,0.1,4.6,1.5c1.4,1.5,1.8,3.3,1.1,5.3
		c-0.7,1.9-2.2,2.9-4.3,3.1c-0.5,0.1-1.1,0-1.6,0c-85.4-0.4-170.7-0.8-256.1-1.2c-4.4,0-6.2-1.8-6.2-6.2c0.1-21.6,0.2-43.2,0.3-64.8
		c0-6.4,2-12.2,6.3-17c4.5-5.1,10.3-7.7,17.1-8.2c0.8-0.1,1.6,0,2.4,0c81.9,0.4,163.8,0.8,245.6,1.1c6.5,0,12.4,2,17.2,6.3
		c5.1,4.5,7.8,10.3,8.2,17.1c0.1,0.8,0,1.6,0,2.4c-0.3,55.8-0.5,111.6-0.8,167.4c0,7.8-2.7,14.3-8.6,19.4c-4.3,3.8-9.5,5.7-15.2,6
		c-0.7,0-1.3,0-2,0c-81.9-0.4-163.8-0.8-245.6-1.1c-7.8,0-14.3-2.7-19.5-8.6c-3.8-4.3-5.7-9.5-6-15.2c0-0.8,0-1.7,0-2.5
		c0.1-23.9,0.2-47.9,0.3-71.8c0-3.2,1.4-5.1,4.1-5.6c2.7-0.5,5.5,1.6,5.7,4.4c0,0.6,0,1.2,0,1.9c-0.1,24-0.2,48.1-0.3,72.1
		c0,6.8,3.7,12.5,9.9,14.6c1.9,0.6,4,0.9,6,0.9c66.6,0.4,133.3,0.7,199.9,1c15.3,0.1,30.6,0.2,45.9,0.2c6.8,0,12.4-3.7,14.6-9.8
		c0.6-1.7,0.9-3.5,0.9-5.3c0.3-56.1,0.6-112.3,0.8-168.4c0-8.9-6.6-15.3-15.6-15.3c-51.9-0.2-103.8-0.5-155.8-0.7
		c-30-0.1-60.1-0.3-90.1-0.4c-6.9,0-12.6,3.7-14.8,9.9c-0.5,1.5-0.8,3.2-0.9,4.8c-0.1,6.3-0.1,12.6-0.1,18.9
		C-142.4-203.9-142.3-203.7-142.3-203.3"/>
	<path id="Stroke-3" class="st1" d="M-142.3-203.3c0.7,0,1.3,0,1.9,0c83.5,0.4,166.9,0.8,250.4,1.2c0.9,0,1.9,0.1,2.7,0.3
		c2.2,0.6,3.7,2.9,3.5,5c-0.3,2.5-2.2,4.4-4.6,4.5c-0.7,0-1.3,0-2,0c-83.3-0.4-166.7-0.8-250-1.2c-0.6,0-1.2,0-2,0
		c-0.1,10.7-0.1,21.3-0.2,32.2c0.6,0,1.2,0,1.8,0c83.6,0.4,167.1,0.8,250.7,1.2c1.7,0,3.4,0.1,4.6,1.5c1.4,1.5,1.8,3.3,1.1,5.3
		c-0.7,1.9-2.2,2.9-4.3,3.1c-0.5,0.1-1.1,0-1.6,0c-85.4-0.4-170.7-0.8-256.1-1.2c-4.4,0-6.2-1.8-6.2-6.2c0.1-21.6,0.2-43.2,0.3-64.8
		c0-6.4,2-12.2,6.3-17c4.5-5.1,10.3-7.7,17.1-8.2c0.8-0.1,1.6,0,2.4,0c81.9,0.4,163.8,0.8,245.6,1.1c6.5,0,12.4,2,17.2,6.3
		c5.1,4.5,7.8,10.3,8.2,17.1c0.1,0.8,0,1.6,0,2.4c-0.3,55.8-0.5,111.6-0.8,167.4c0,7.8-2.7,14.3-8.6,19.4c-4.3,3.8-9.5,5.7-15.2,6
		c-0.7,0-1.3,0-2,0c-81.9-0.4-163.8-0.8-245.6-1.1c-7.8,0-14.3-2.7-19.5-8.6c-3.8-4.3-5.7-9.5-6-15.2c0-0.8,0-1.7,0-2.5
		c0.1-23.9,0.2-47.9,0.3-71.8c0-3.2,1.4-5.1,4.1-5.6c2.7-0.5,5.5,1.6,5.7,4.4c0,0.6,0,1.2,0,1.9c-0.1,24-0.2,48.1-0.3,72.1
		c0,6.8,3.7,12.5,9.9,14.6c1.9,0.6,4,0.9,6,0.9c66.6,0.4,133.3,0.7,199.9,1c15.3,0.1,30.6,0.2,45.9,0.2c6.8,0,12.4-3.7,14.6-9.8
		c0.6-1.7,0.9-3.5,0.9-5.3c0.3-56.1,0.6-112.3,0.8-168.4c0-8.9-6.6-15.3-15.6-15.3c-51.9-0.2-103.8-0.5-155.8-0.7
		c-30-0.1-60.1-0.3-90.1-0.4c-6.9,0-12.6,3.7-14.8,9.9c-0.5,1.5-0.8,3.2-0.9,4.8c-0.1,6.3-0.1,12.6-0.1,18.9
		C-142.4-203.9-142.3-203.7-142.3-203.3z"/>
	<path id="Fill-5" class="st0" d="M60.4-76.5c8.8,0,15.8-6.7,15.9-15.2c0-8.4-7-15.3-15.8-15.3c-8.7,0-15.8,6.8-15.8,15.3
		C44.8-83.3,51.7-76.6,60.4-76.5 M75.4-111.8c3.1-1.3,5.8-2.9,8.7-3.6c10.5-2.6,19.4,0.3,26.5,8.2c8.1,9,7.6,23.2-0.7,32
		c-4.9,5.2-11.1,7.9-18.3,8.3c-3.1,0.2-5.4-1.6-5.7-4.5c-0.2-2.6,1.9-4.7,5.1-5c1.8-0.2,3.6-0.4,5.2-0.9c5.7-2,9.2-6,10.2-11.7
		c1-6.1-1.1-11.3-6.4-15c-5.3-3.7-12.1-3.9-17.6-0.4c4.3,7.1,4.8,14.6,1.6,22.2c-2.3,5.6-6.4,9.8-11.9,12.5
		c-11.4,5.6-24.8,2.4-32.5-7.9c-7-9.5-6.1-22.6,2.5-31.2C50.1-116.8,64.1-119.8,75.4-111.8"/>
	<path id="Stroke-7" class="st1" d="M60.4-76.5c8.8,0,15.8-6.7,15.9-15.2c0-8.4-7-15.3-15.8-15.3c-8.7,0-15.8,6.8-15.8,15.3
		C44.8-83.3,51.7-76.6,60.4-76.5z M75.4-111.8c3.1-1.3,5.8-2.9,8.7-3.6c10.5-2.6,19.4,0.3,26.5,8.2c8.1,9,7.6,23.2-0.7,32
		c-4.9,5.2-11.1,7.9-18.3,8.3c-3.1,0.2-5.4-1.6-5.7-4.5c-0.2-2.6,1.9-4.7,5.1-5c1.8-0.2,3.6-0.4,5.2-0.9c5.7-2,9.2-6,10.2-11.7
		c1-6.1-1.1-11.3-6.4-15c-5.3-3.7-12.1-3.9-17.6-0.4c4.3,7.1,4.8,14.6,1.6,22.2c-2.3,5.6-6.4,9.8-11.9,12.5
		c-11.4,5.6-24.8,2.4-32.5-7.9c-7-9.5-6.1-22.6,2.5-31.2C50.1-116.8,64.1-119.8,75.4-111.8z"/>
	<path id="Fill-9" class="st0" d="M-85.6-74.1c-6.5,0-13,0-19.5-0.1c-3.2,0-5.3-2.1-5.3-5.2c0-2.6,1.6-4.6,3.9-5
		c0.5-0.1,1-0.2,1.5-0.2c12.9,0.1,25.8,0.1,38.7,0.2c2.7,0,4.4,1.2,5.2,3.5c1,2.9-0.6,6.1-3.4,6.8c-0.7,0.2-1.4,0.2-2,0.2
		C-72.9-74-79.2-74-85.6-74.1"/>
	<path id="Stroke-11" class="st1" d="M-85.6-74.1c-6.5,0-13,0-19.5-0.1c-3.2,0-5.3-2.1-5.3-5.2c0-2.6,1.6-4.6,3.9-5
		c0.5-0.1,1-0.2,1.5-0.2c12.9,0.1,25.8,0.1,38.7,0.2c2.7,0,4.4,1.2,5.2,3.5c1,2.9-0.6,6.1-3.4,6.8c-0.7,0.2-1.4,0.2-2,0.2
		C-72.9-74-79.2-74-85.6-74.1z"/>
	<path id="Fill-13" class="st0" d="M-85.5-112.9c6.7,0,13.3,0,20,0.1c3.7,0,5.9,4.2,4.1,7.7c-1,1.9-2.5,2.7-4.5,2.7
		c-3.3,0-6.6,0-9.9,0c-9.8,0-19.6-0.1-29.4-0.2c-3,0-5.1-2-5.3-4.9c-0.1-3.1,1.9-5.5,4.7-5.5C-98.9-113-92.2-112.9-85.5-112.9"/>
	<path id="Stroke-15" class="st1" d="M-85.5-112.9c6.7,0,13.3,0,20,0.1c3.7,0,5.9,4.2,4.1,7.7c-1,1.9-2.5,2.7-4.5,2.7
		c-3.3,0-6.6,0-9.9,0c-9.8,0-19.6-0.1-29.4-0.2c-3,0-5.1-2-5.3-4.9c-0.1-3.1,1.9-5.5,4.7-5.5C-98.9-113-92.2-112.9-85.5-112.9z"/>
</g>
</svg>
