<svg id="Layer_1" data-name="Layer 1" xmlns="http://www.w3.org/2000/svg" xmlns:xlink="http://www.w3.org/1999/xlink" viewBox="0 0 121.38 85.63"><defs><style>.cls-1,.cls-2{fill:none;}.cls-2{clip-rule:evenodd;}.cls-3{isolation:isolate;}.cls-4{clip-path:url(#clip-path);}.cls-5{clip-path:url(#clip-path-2);}.cls-6{clip-path:url(#clip-path-3);}.cls-7{clip-path:url(#clip-path-4);}.cls-8{fill:#fff;}.cls-9{clip-path:url(#clip-path-6);}.cls-10{clip-path:url(#clip-path-8);}.cls-11{clip-path:url(#clip-path-10);}</style><clipPath id="clip-path" transform="translate(5.01 4.61)"><rect class="cls-1" x="-0.01" width="112" height="77"/></clipPath><clipPath id="clip-path-2" transform="translate(5.01 4.61)"><rect class="cls-1" x="-0.01" y="0.39" width="111.38" height="75.63"/></clipPath><clipPath id="clip-path-3" transform="translate(5.01 4.61)"><rect class="cls-1" x="-1.01" width="113" height="77"/></clipPath><clipPath id="clip-path-4" transform="translate(5.01 4.61)"><path class="cls-2" d="M55.69.4Q78.37.4,101,.39a10.13,10.13,0,0,1,7.12,2.66,9.61,9.61,0,0,1,3.2,6.71c0,.29,0,.58,0,.88V65.83a9.89,9.89,0,0,1-6.81,9.67A10.26,10.26,0,0,1,101,76H10.31A10,10,0,0,1,2.38,72.5a9.45,9.45,0,0,1-2.37-6c0-.22,0-.43,0-.64Q0,38.24,0,10.67A9.92,9.92,0,0,1,2.71,3.56,9.82,9.82,0,0,1,9.46.42c.37,0,.73,0,1.1,0H55.69m0,6.88H10.27A3.06,3.06,0,0,0,7,10.52V65.9a3.06,3.06,0,0,0,3.26,3.24q45.47,0,90.93,0A3,3,0,0,0,104.41,66q0-27.73,0-55.48a3.48,3.48,0,0,0-.11-1,3.06,3.06,0,0,0-3.19-2.22H55.71"/></clipPath><clipPath id="clip-path-6" transform="translate(5.01 4.61)"><path class="cls-2" d="M24.5,38.92a30.69,30.69,0,0,1-3.59,0,7.44,7.44,0,0,1-6.3-4.57,5.82,5.82,0,0,1-.54-2.11,55.87,55.87,0,0,1,0-6.6,7,7,0,0,1,4.81-6,6.83,6.83,0,0,1,2.22-.51,64,64,0,0,1,6.93.05,7.28,7.28,0,0,1,6.3,4.56,5.82,5.82,0,0,1,.54,2.1,56,56,0,0,1,0,6.61c-.27,2.89-2,4.88-4.81,6A8,8,0,0,1,27,39H24.5v-.08m0-13.25H22.05c-.73,0-1.05.31-1.05,1q0,2.36,0,4.71c0,.65.33,1,1,1,1.65,0,3.29,0,4.94,0,.7,0,1-.31,1-1q0-2.36,0-4.71c0-.68-.32-1-1-1H24.49"/></clipPath><clipPath id="clip-path-8" transform="translate(5.01 4.61)"><path class="cls-2" d="M97,38.34a25.71,25.71,0,0,1-6.71,17.39,3.58,3.58,0,0,1-4.31.89,3.34,3.34,0,0,1-1.83-4A4.62,4.62,0,0,1,85.07,51a18.52,18.52,0,0,0,4.6-15.22A18.3,18.3,0,0,0,85.09,26a3.47,3.47,0,0,1-.66-4.19,3.59,3.59,0,0,1,5.79-.62,25.41,25.41,0,0,1,6.56,14.25c0,.24.08.49.1.73,0,.78.08,1.55.11,2.17"/></clipPath><clipPath id="clip-path-10" transform="translate(5.01 4.61)"><path class="cls-2" d="M86,38.51a13.26,13.26,0,0,1-2.84,8.13,3.47,3.47,0,0,1-4.73.74,3.24,3.24,0,0,1-.86-4.51,8.16,8.16,0,0,0,1.5-3.16,6.37,6.37,0,0,0-1.18-5.09,3.42,3.42,0,0,1-.71-3.33A3.24,3.24,0,0,1,79.93,29a3.3,3.3,0,0,1,3.21,1.31A13.13,13.13,0,0,1,86,38.51"/></clipPath></defs><title>hey</title><g class="cls-3"><g class="cls-4"><g class="cls-5"><g class="cls-3"><g class="cls-6"><g class="cls-7"><g class="cls-4"><rect class="cls-8" width="121.38" height="85.63"/></g></g></g></g></g><g class="cls-9"><g class="cls-4"><rect class="cls-8" x="14" y="18.61" width="31" height="30"/></g></g><g class="cls-10"><g class="cls-4"><rect class="cls-8" x="84" y="19.61" width="23" height="47"/></g></g><g class="cls-11"><g class="cls-4"><rect class="cls-8" x="77" y="28.61" width="19" height="29"/></g></g></g></g></svg>