<?xml version="1.0" encoding="UTF-8"?>
<svg width="29px" height="29px" viewBox="0 0 29 29" version="1.1" xmlns="http://www.w3.org/2000/svg" xmlns:xlink="http://www.w3.org/1999/xlink">
    <title>Group</title>
    <g id="Symbols" stroke="none" stroke-width="1" fill="none" fill-rule="evenodd">
        <g id="footer" transform="translate(-244.000000, -508.000000)" fill="#FFFFFF">
            <g id="Group" transform="translate(244.000000, 508.000205)">
                <path d="M17.1511087,11.8399178 C16.7816524,11.8399178 16.4811476,11.5421187 16.4811476,11.1747308 L16.4811476,11.1737075 C16.4811476,10.8042729 16.7806233,10.5054505 17.1511087,10.5044271 C17.520565,10.5044271 17.8210699,10.8032495 17.8210699,11.1726841 L17.8210699,11.1737075 C17.8210699,11.5410953 17.5215942,11.8388944 17.1521379,11.8388944 L17.1511087,11.8388944 L17.1511087,11.8399178 Z M14.2294194,16.886128 C12.7330699,16.8840813 11.5197301,15.6775346 11.5176718,14.1895626 C11.5197301,12.7015907 12.7320408,11.4950439 14.2294194,11.4940206 C15.7247398,11.4960673 16.9370505,12.702614 16.9391087,14.1895626 C16.9370505,15.6775346 15.7237107,16.8830579 14.2283903,16.886128 L14.2294194,16.886128 Z M16.6499243,9.69289907 L11.877866,9.69289907 C10.7026039,9.69392243 9.75169126,10.6415579 9.75066214,11.8102402 L9.75066214,16.5535346 C9.75169126,17.7211935 10.703633,18.6667822 11.877866,18.6667822 L16.6499243,18.6667822 C17.8231282,18.6667822 18.7750699,17.7211935 18.776099,16.5535346 L18.776099,11.8102402 C18.7750699,10.6415579 17.8241573,9.69494579 16.6499243,9.69289907 L16.6499243,9.69289907 Z" id="Fill-132"></path>
                <path d="M20.0957476,16.7678271 C20.0947184,18.5413178 18.6487961,19.9791449 16.8642913,19.9801682 L11.66,19.9801682 C9.87549515,19.9791449 8.43163107,18.5402944 8.42957282,16.7678271 L8.42957282,11.5936963 C8.43163107,9.82020561 9.87652427,8.38340187 11.66,8.38135514 L16.8642913,8.38135514 C18.6487961,8.3823785 20.0947184,9.82020561 20.0967767,11.5936963 L20.0957476,16.7678271 Z M14.2626602,7.46069873e-14 C6.38675728,-0.00102336449 0.00102912621,6.34792991 5.86197757e-14,14.1807617 C5.86197757e-14,22.0135935 6.38675728,28.3625467 14.2626602,28.3625467 C22.1395922,28.3625467 28.5263495,22.0135935 28.5263495,14.1807617 C28.5263495,6.34792991 22.1406214,-0.00102336449 14.2636893,7.46069873e-14 L14.2626602,7.46069873e-14 Z" id="Fill-134"></path>
                <path d="M14.2285961,12.5154407 C13.298266,12.516464 12.5439165,13.2645435 12.5418583,14.189665 C12.5439165,15.1147864 13.298266,15.8628659 14.2285961,15.8638893 C15.156868,15.8628659 15.9101883,15.1137631 15.9112175,14.189665 C15.9101883,13.2655668 15.156868,12.516464 14.2285961,12.5154407" id="Fill-136"></path>
            </g>
        </g>
    </g>
</svg>