<?xml version="1.0" encoding="UTF-8"?>
<svg width="92px" height="92px" viewBox="0 0 92 92" version="1.1" xmlns="http://www.w3.org/2000/svg" xmlns:xlink="http://www.w3.org/1999/xlink">
    <title>Group 5</title>
    <defs>
        <polygon id="path-1" points="0 0 92 0 92 92 0 92"></polygon>
    </defs>
    <g id="Mobile" stroke="none" stroke-width="1" fill="none" fill-rule="evenodd">
        <g id="1.-Home-Banner4" transform="translate(-161.000000, -1253.000000)">
            <g id="Group-5" transform="translate(161.000000, 1253.000000)">
                <mask id="mask-2" fill="white">
                    <use xlink:href="#path-1"></use>
                </mask>
                <g id="Clip-2"></g>
                <path d="M5.44202926,86.6024581 L14.7020522,86.6024581 L14.7020522,56.1812494 L5.44202926,56.1812494 L5.44202926,86.6024581 Z M20.1218527,81.2375343 C20.2739989,81.2440475 20.380436,81.2525146 20.487526,81.2525146 C35.0752781,81.253166 49.6630302,81.2863833 64.2501294,81.234929 C69.1605992,81.2173434 73.0164934,79.0614738 75.7002741,74.9360121 C78.9475835,69.9462487 82.1609375,64.9349918 85.3847393,59.9308993 C85.7171102,59.4150538 86.0677648,58.9037675 86.3296129,58.3520993 C86.8454735,57.2643947 86.54314,55.8738263 85.6936026,55.1658413 C84.2615999,53.9739255 82.5350996,54.1660649 81.3930236,55.6530288 C78.0647437,59.9856102 74.7456057,64.3253561 71.4107959,68.652727 C68.7244032,72.1379409 65.1617006,74.0117889 60.7586025,74.0541247 C53.5339432,74.1231646 46.3079779,74.0743156 39.0826655,74.0743156 C38.946191,74.0743156 38.8084106,74.0678024 38.673242,74.0502168 C37.5990768,73.9108343 36.8448756,73.3357186 36.4713665,72.329429 C35.8177255,70.5682594 37.042078,68.7725699 38.9292133,68.732188 C40.4474105,68.699622 41.9669136,68.7224182 43.4857637,68.7224182 C48.316569,68.7217669 53.1473743,68.7191616 57.9775266,68.7237209 C59.2168978,68.7243722 60.2669025,68.3055734 61.0243686,67.3181721 C61.9209212,66.1510064 62.0541307,64.8477149 61.4070196,63.5405154 C60.7605615,62.2359212 59.6498289,61.5487785 58.172117,61.5468245 C52.0686381,61.53966 45.9658121,61.5324955 39.8623332,61.5546403 C38.8012277,61.5585483 37.9425485,61.2459146 37.15178,60.5301138 C34.8023291,58.4042049 32.0121114,57.2963094 28.8425076,57.2077299 C25.7284077,57.120453 22.9616976,58.1332558 20.4751192,59.9719325 C20.2211069,60.1595127 20.1133639,60.3464415 20.1133639,60.6707989 C20.1244647,67.3592052 20.1218527,74.0476115 20.1218527,80.7360178 L20.1218527,81.2375343 Z M67.2016352,65.2971257 C68.0400718,64.2055132 68.8125566,63.2018289 69.5837354,62.1974933 C72.1976464,58.7976023 74.7665013,55.3618887 77.4372222,52.0069387 C80.501042,48.1576369 86.1324106,48.0417019 89.6089187,51.4428955 C92.2313186,54.0097481 92.7870114,58.2752436 90.8254354,61.3664088 C87.1386651,67.1768356 83.4721374,73.002894 79.6168962,78.7012937 C76.7117526,82.9960986 72.5143456,85.5010758 67.37533,86.3406274 C66.1398767,86.5418853 64.871774,86.6219977 63.618037,86.6239516 C49.3456781,86.6428399 35.0733192,86.6356754 20.8003072,86.6356754 L20.1492782,86.6356754 C20.1388304,86.7750579 20.1231587,86.8916442 20.1231587,87.0075792 C20.1205467,87.7038404 20.1244647,88.4001016 20.1211997,89.0963628 C20.1127109,90.9011709 19.0111201,91.9921321 17.1918955,91.9986453 C16.6309788,92.0012505 16.0700621,91.9992966 15.5091454,91.9992966 C11.3078205,91.9992966 7.1064957,91.9986453 2.90582383,91.9992966 C1.74481115,92 0.797325551,91.5798464 0.303013628,90.4947471 C0.0960164287,90.0414283 0.0150459155,89.4936681 0.0137399395,88.988895 C-0.00389073674,81.1131321 0.000480285041,73.2373693 0.000480285041,65.3616064 C0.000480285041,61.4719227 -0.0012787847,57.5815876 0.00263914336,53.6919039 C0.00459810739,52.2160125 0.755534318,51.1921373 2.079794,50.8755957 C2.36776171,50.8065558 2.67597205,50.8013452 2.97504056,50.8013452 C7.69614387,50.7974373 12.4172472,50.7974373 17.1383505,50.7987399 C18.9974073,50.7993913 20.0441471,51.7985163 20.1225057,53.6417522 C20.1251176,53.6945092 20.1329535,53.7472661 20.1420953,53.8332404 C20.7689638,53.5622912 21.3723247,53.2815722 21.9900514,53.0386298 C25.0447293,51.8402008 28.2025793,51.5783701 31.4283401,52.0675115 C34.6234104,52.5520937 37.4691322,53.8469181 39.9870539,55.8594972 C40.2586969,56.0770382 40.529687,56.1688743 40.8790355,56.168223 C46.4490233,56.1591045 52.018358,56.1695256 57.5876927,56.1564992 C59.1829424,56.1532426 60.730524,56.3486386 62.1586088,57.0983081 C65.2707496,58.7311676 66.9561117,61.2986715 67.1729037,64.8099383 C67.1807396,64.9317352 67.1872695,65.0541833 67.2016352,65.2971257 L67.2016352,65.2971257 Z" id="Fill-1" fill="#FFFFFF" mask="url(#mask-2)"></path>
                <path d="M69.5990261,22.5170047 C69.6244844,13.1023131 61.9757541,5.43917673 52.5306717,5.4175391 C43.0934421,5.39599307 35.4440575,13.0126743 35.4118947,22.462698 C35.3805798,31.8852412 43.0057513,39.5464147 52.4560691,39.5884607 C61.8861001,39.6301648 69.5734405,31.97488 69.5990261,22.5170047 M52.0418283,44.9967157 C39.6322739,44.7075161 29.5759736,34.4075594 30.0137731,21.6867008 C30.4332491,9.50432922 40.708122,-0.544377049 53.5371524,0.0228991811 C65.841347,0.566620689 75.5135093,10.9961283 74.9788573,23.4703167 C74.4572935,35.6225905 64.3401332,45.2034738 52.0418283,44.9967157" id="Fill-3" fill="#FFFFFF" mask="url(#mask-2)"></path>
                <path d="M51.0733965,18.2035554 L51.0733965,14.6623465 C50.3789802,15.2773784 50.0945205,15.9968258 50.1350656,16.8257819 C50.1640264,17.4338104 50.3937824,17.958434 51.0733965,18.2035554 L51.0733965,18.2035554 Z M54.6632521,29.2703108 C55.8873298,28.4057006 56.5321909,27.3411732 56.4234269,25.9067353 C56.3391187,24.796367 55.6698018,24.1138471 54.6632521,23.6446146 L54.6632521,29.2703108 Z M54.6465192,14.3070795 C54.6465192,16.1069712 54.640727,17.9062263 54.6613214,19.7054813 C54.6619649,19.81308 54.8531064,19.9697031 54.9863262,20.0161807 C55.9310928,20.3466171 56.8404628,20.7254411 57.637851,21.3519333 C59.5968902,22.8907866 60.4644279,25.5438283 59.7545658,27.9345581 C59.0131686,30.4322501 57.4151744,32.1207229 54.9007309,32.9305787 C54.6941436,32.9967933 54.6330041,33.098662 54.6420141,33.3017626 C54.6561728,33.6347457 54.6574599,33.9696389 54.6394398,34.3019854 C54.5879539,35.2512739 53.9025476,35.9427073 52.974514,35.9968251 C52.0599954,36.0503061 51.2754787,35.4231772 51.1409717,34.4904424 C51.0804758,34.0715076 51.0959216,33.6423859 51.0772579,33.2323646 C50.4446247,33.0776516 49.7888228,33.0025234 49.2076755,32.7548553 C48.3349892,32.3836714 47.4783923,31.9481829 46.6829348,31.4356563 C45.9421812,30.958147 45.8057435,29.9381871 46.2652553,29.2238332 C46.7659559,28.4458114 47.7087917,28.1478456 48.5209821,28.5362198 C48.9566817,28.7444139 49.3576283,29.0245527 49.7965457,29.2251066 C50.194918,29.4071968 50.6235383,29.5256191 51.0972087,29.692429 L51.0972087,29.2187398 C51.0972087,27.0171036 51.0920601,24.8154674 51.1036444,22.6138312 C51.1049316,22.3362392 51.0122569,22.20763 50.7670553,22.070744 C49.9593699,21.6199752 49.1053473,21.2125006 48.3961287,20.634396 C46.6996678,19.2534392 46.2948597,17.3835128 46.7524408,15.3486865 C47.2563592,13.1088496 48.6593505,11.6011935 50.8880472,10.8836562 C50.9511174,10.8632825 51.0116134,10.836542 51.0746836,10.8123482 C51.095278,10.3641261 51.0811194,9.92099751 51.143546,9.48869243 C51.2767658,8.56869119 52.039401,7.96002601 52.9507017,8.00204683 C53.879379,8.04470432 54.6535985,8.69984707 54.6079047,9.62685178 C54.566716,10.4691782 54.8910773,10.7435869 55.6556431,10.9167636 C56.6415985,11.1402379 57.4924033,11.6782317 58.1681559,12.4435199 C58.7827691,13.1387735 58.7447982,14.1670102 58.0980064,14.7992325 C57.4048772,15.476659 56.380951,15.5027628 55.6472767,14.8813641 C55.367322,14.6438828 55.0519708,14.4465123 54.7527089,14.2313147 C54.7173123,14.2561452 54.6819157,14.2816124 54.6465192,14.3070795 L54.6465192,14.3070795 Z" id="Fill-4" fill="#FFFFFF" mask="url(#mask-2)"></path>
            </g>
        </g>
    </g>
</svg>