<?xml version="1.0" encoding="UTF-8"?>
<svg width="93px" height="91px" viewBox="0 0 93 91" version="1.1" xmlns="http://www.w3.org/2000/svg" xmlns:xlink="http://www.w3.org/1999/xlink">
    <title>Group 13</title>
    <g id="Mobile" stroke="none" stroke-width="1" fill="none" fill-rule="evenodd">
        <g id="1.-Home-Banner2" transform="translate(-161.000000, -1251.000000)">
            <g id="Group-13" transform="translate(163.000000, 1253.000000)">
                <path d="M21.068771,16.482135 C21.1261346,16.6745534 21.1640058,16.8149057 21.209117,16.9535602 C23.2385655,23.2060276 25.2702417,29.4579291 27.2991333,35.7109625 C28.372892,39.0222574 29.4472076,42.3335524 30.5076,45.6499408 C30.6078472,45.9640356 30.7381685,46.0879757 31.0645288,46.0194974 C31.3351962,45.9634697 31.6158883,45.9555466 31.8926819,45.9261179 C34.8405059,45.6142868 37.7877731,45.2990601 40.7355971,44.9906247 C43.9474054,44.6544584 47.1597707,44.3262151 50.371022,43.9894829 C54.0829524,43.6001185 57.7943258,43.2045288 61.5062562,42.8129007 C65.613049,42.3799592 69.7209557,41.9606002 73.8260778,41.5118125 C76.7722311,41.1897946 79.1475323,39.0613071 79.8481488,36.1484314 C81.3128715,30.0629153 82.7703541,23.9757013 84.2300644,17.8884874 C84.2623663,17.7526626 84.2840865,17.6134422 84.319173,17.4306447 C63.2210399,17.1142861 42.1741442,16.7990595 21.068771,16.482135 M19.7321419,12.2806217 C23.6707422,12.3366495 27.5636744,12.3921112 31.4560497,12.447573 C43.9156605,12.6247112 56.3758282,12.8024153 68.8359959,12.9795534 C74.7678444,13.063878 80.6996929,13.1515981 86.6320983,13.2285655 C87.3455241,13.2376205 87.9570319,13.4702204 88.4655078,13.9659809 C88.9205187,14.4085433 89.0953943,14.9671227 88.9500359,15.5873892 C88.1759049,18.8975523 87.3861799,22.203188 86.6053657,25.5110873 C85.6853193,29.405297 84.8566093,33.3249738 83.8290757,37.1897548 C82.6433743,41.650467 79.721169,44.4371387 75.3041668,45.5169457 C74.051634,45.8231174 72.7395097,45.8859364 71.4513335,46.0279865 C68.5168757,46.3517022 65.5807471,46.656742 62.6451755,46.9680071 C59.7491458,47.2747448 56.8525592,47.5797846 53.9565296,47.8859563 C50.7837063,48.2209908 47.610883,48.5554593 44.4380597,48.8916256 C41.2518701,49.2283579 38.0662375,49.5673539 34.879491,49.9046521 C33.550102,50.0455703 32.2195991,50.1808292 30.890767,50.3291045 C30.7882921,50.3404233 30.6368075,50.40494 30.6045056,50.485303 C30.1662027,51.5594507 29.6115016,52.5792684 29.5101405,53.788109 C29.2628642,56.7298474 31.4326587,59.8068446 34.9039958,59.7977896 C38.1085641,59.7893006 41.3136892,59.7960918 44.5177005,59.7960918 C54.5028767,59.7960918 64.4880529,59.7983556 74.4726721,59.7921302 C75.2345507,59.7921302 75.9223578,59.9290869 76.4219229,60.5748206 C76.921488,61.2211201 77.0445693,61.9375959 76.7354738,62.6965168 C76.4336184,63.4373278 75.8761327,63.873099 75.0819522,63.9676104 C74.872547,63.9925116 74.6598002,63.998171 74.4481673,63.998171 C61.3113311,63.9998527 48.1744949,64.0010007 35.0382157,63.9987369 C29.2049436,63.997605 24.7628796,58.919456 25.3955507,53.020133 C25.55706,51.5170054 26.112875,50.1587576 26.7344075,48.8225813 C26.9861393,48.28098 26.9866962,47.8208736 26.8029097,47.2600304 C22.538506,34.2389614 18.291924,21.211667 14.0414436,8.18550458 C13.2027088,5.6150206 11.2785199,4.20980005 8.60080626,4.20980005 C6.45551658,4.20980005 4.3102269,4.21602535 2.16549415,4.2075363 C1.02434707,4.20244287 0.134374871,3.42314819 0.014078253,2.35465991 C-0.125153943,1.11978627 0.784310762,0.0450726875 2.03517281,0.0190396044 C3.33225995,-0.00812535189 4.63046095,0.00149557012 5.92810502,0.0122483653 C7.25136781,0.0230011605 8.58799689,-0.0601915181 9.89566568,0.0994026 C13.9328424,0.591767432 16.579925,2.90701402 17.9338188,6.76443781 C18.5330742,8.4718685 19.0554734,10.2064641 19.6129591,11.9286092 C19.6497164,12.0417965 19.6892584,12.1538519 19.7321419,12.2806217" id="Fill-1" fill="#FFFFFF"></path>
                <path d="M21.068771,16.482135 C21.1261346,16.6745534 21.1640058,16.8149057 21.209117,16.9535602 C23.2385655,23.2060276 25.2702417,29.4579291 27.2991333,35.7109625 C28.372892,39.0222574 29.4472076,42.3335524 30.5076,45.6499408 C30.6078472,45.9640356 30.7381685,46.0879757 31.0645288,46.0194974 C31.3351962,45.9634697 31.6158883,45.9555466 31.8926819,45.9261179 C34.8405059,45.6142868 37.7877731,45.2990601 40.7355971,44.9906247 C43.9474054,44.6544584 47.1597707,44.3262151 50.371022,43.9894829 C54.0829524,43.6001185 57.7943258,43.2045288 61.5062562,42.8129007 C65.613049,42.3799592 69.7209557,41.9606002 73.8260778,41.5118125 C76.7722311,41.1897946 79.1475323,39.0613071 79.8481488,36.1484314 C81.3128715,30.0629153 82.7703541,23.9757013 84.2300644,17.8884874 C84.2623663,17.7526626 84.2840865,17.6134422 84.319173,17.4306447 C63.2210399,17.1142861 42.1741442,16.7990595 21.068771,16.482135 Z M19.7321419,12.2806217 C23.6707422,12.3366495 27.5636744,12.3921112 31.4560497,12.447573 C43.9156605,12.6247112 56.3758282,12.8024153 68.8359959,12.9795534 C74.7678444,13.063878 80.6996929,13.1515981 86.6320983,13.2285655 C87.3455241,13.2376205 87.9570319,13.4702204 88.4655078,13.9659809 C88.9205187,14.4085433 89.0953943,14.9671227 88.9500359,15.5873892 C88.1759049,18.8975523 87.3861799,22.203188 86.6053657,25.5110873 C85.6853193,29.405297 84.8566093,33.3249738 83.8290757,37.1897548 C82.6433743,41.650467 79.721169,44.4371387 75.3041668,45.5169457 C74.051634,45.8231174 72.7395097,45.8859364 71.4513335,46.0279865 C68.5168757,46.3517022 65.5807471,46.656742 62.6451755,46.9680071 C59.7491458,47.2747448 56.8525592,47.5797846 53.9565296,47.8859563 C50.7837063,48.2209908 47.610883,48.5554593 44.4380597,48.8916256 C41.2518701,49.2283579 38.0662375,49.5673539 34.879491,49.9046521 C33.550102,50.0455703 32.2195991,50.1808292 30.890767,50.3291045 C30.7882921,50.3404233 30.6368075,50.40494 30.6045056,50.485303 C30.1662027,51.5594507 29.6115016,52.5792684 29.5101405,53.788109 C29.2628642,56.7298474 31.4326587,59.8068446 34.9039958,59.7977896 C38.1085641,59.7893006 41.3136892,59.7960918 44.5177005,59.7960918 C54.5028767,59.7960918 64.4880529,59.7983556 74.4726721,59.7921302 C75.2345507,59.7921302 75.9223578,59.9290869 76.4219229,60.5748206 C76.921488,61.2211201 77.0445693,61.9375959 76.7354738,62.6965168 C76.4336184,63.4373278 75.8761327,63.873099 75.0819522,63.9676104 C74.872547,63.9925116 74.6598002,63.998171 74.4481673,63.998171 C61.3113311,63.9998527 48.1744949,64.0010007 35.0382157,63.9987369 C29.2049436,63.997605 24.7628796,58.919456 25.3955507,53.020133 C25.55706,51.5170054 26.112875,50.1587576 26.7344075,48.8225813 C26.9861393,48.28098 26.9866962,47.8208736 26.8029097,47.2600304 C22.538506,34.2389614 18.291924,21.211667 14.0414436,8.18550458 C13.2027088,5.6150206 11.2785199,4.20980005 8.60080626,4.20980005 C6.45551658,4.20980005 4.3102269,4.21602535 2.16549415,4.2075363 C1.02434707,4.20244287 0.134374871,3.42314819 0.014078253,2.35465991 C-0.125153943,1.11978627 0.784310762,0.0450726875 2.03517281,0.0190396044 C3.33225995,-0.00812535189 4.63046095,0.00149557012 5.92810502,0.0122483653 C7.25136781,0.0230011605 8.58799689,-0.0601915181 9.89566568,0.0994026 C13.9328424,0.591767432 16.579925,2.90701402 17.9338188,6.76443781 C18.5330742,8.4718685 19.0554734,10.2064641 19.6129591,11.9286092 C19.6497164,12.0417965 19.6892584,12.1538519 19.7321419,12.2806217 Z" id="Stroke-3" stroke="#FFFFFF" stroke-width="3"></path>
                <path d="M33.7799074,77.5207503 C33.7901327,74.6047888 31.4590516,72.2516268 28.537506,72.2282717 C25.6296391,72.2049167 23.2045169,74.6093459 23.2175728,77.5036612 C23.2301645,80.3934195 25.5789139,82.7545564 28.4605632,82.773924 C31.4026269,82.7932916 33.7696146,80.4555097 33.7799074,77.5207503 M28.5608738,68.0010106 C34.0215309,68.0733542 38.0658711,72.4703666 37.9991873,77.5760049 C37.9302238,82.9077882 33.6333974,87.0775162 28.367092,86.9989066 C23.352703,86.9242844 18.9920426,82.911206 19.0000109,77.4649261 C19.0074311,72.1821313 23.3646719,67.9246795 28.5608738,68.0010106" id="Fill-5" fill="#FFFFFF"></path>
                <path d="M33.7799074,77.5207503 C33.7901327,74.6047888 31.4590516,72.2516268 28.537506,72.2282717 C25.6296391,72.2049167 23.2045169,74.6093459 23.2175728,77.5036612 C23.2301645,80.3934195 25.5789139,82.7545564 28.4605632,82.773924 C31.4026269,82.7932916 33.7696146,80.4555097 33.7799074,77.5207503 Z M28.5608738,68.0010106 C34.0215309,68.0733542 38.0658711,72.4703666 37.9991873,77.5760049 C37.9302238,82.9077882 33.6333974,87.0775162 28.367092,86.9989066 C23.352703,86.9242844 18.9920426,82.911206 19.0000109,77.4649261 C19.0074311,72.1821313 23.3646719,67.9246795 28.5608738,68.0010106 Z" id="Stroke-7" stroke="#FFFFFF" stroke-width="3"></path>
                <path d="M67.4776473,82.7738031 C70.3969128,82.7817582 72.7844712,80.4000734 72.7759549,77.4880492 C72.7679621,74.6079252 70.4185454,72.2518744 67.5305903,72.2279493 C64.6340959,72.2045939 62.2391368,74.5629233 62.2225413,77.4555795 C62.2061186,80.3864019 64.5572432,82.7658081 67.4776473,82.7738031 M67.5083884,68.0000228 C72.7400674,68.0114386 76.9937242,72.2649762 76.9999932,77.4897582 C77.0062484,82.7196669 72.7178655,87.0079528 67.4890329,86.9999889 C62.2459682,86.9920028 57.9718173,82.6997293 58.00014,77.4703902 C58.0287453,72.2302279 62.2875256,67.9886528 67.5083884,68.0000228" id="Fill-9" fill="#FFFFFF"></path>
                <path d="M67.4776473,82.7738031 C70.3969128,82.7817582 72.7844712,80.4000734 72.7759549,77.4880492 C72.7679621,74.6079252 70.4185454,72.2518744 67.5305903,72.2279493 C64.6340959,72.2045939 62.2391368,74.5629233 62.2225413,77.4555795 C62.2061186,80.3864019 64.5572432,82.7658081 67.4776473,82.7738031 Z M67.5083884,68.0000228 C72.7400674,68.0114386 76.9937242,72.2649762 76.9999932,77.4897582 C77.0062484,82.7196669 72.7178655,87.0079528 67.4890329,86.9999889 C62.2459682,86.9920028 57.9718173,82.6997293 58.00014,77.4703902 C58.0287453,72.2302279 62.2875256,67.9886528 67.5083884,68.0000228 Z" id="Stroke-11" stroke="#FFFFFF" stroke-width="3"></path>
            </g>
        </g>
    </g>
</svg>