<?xml version="1.0" encoding="UTF-8"?>
<svg width="63px" height="88px" viewBox="0 0 63 88" version="1.1" xmlns="http://www.w3.org/2000/svg" xmlns:xlink="http://www.w3.org/1999/xlink">
    <title>Group 6</title>
    <defs>
        <polygon id="path-1" points="0 0.107388068 62.6443125 0.107388068 62.6443125 77.999809 0 77.999809"></polygon>
    </defs>
    <g id="Mobile" stroke="none" stroke-width="1" fill="none" fill-rule="evenodd">
        <g id="1.-Home-Banner5" transform="translate(-173.000000, -1247.000000)">
            <g id="Group-6" transform="translate(173.000000, 1247.000000)">
                <g id="Group-3" transform="translate(0.000000, 10.000000)">
                    <mask id="mask-2" fill="white">
                        <use xlink:href="#path-1"></use>
                    </mask>
                    <g id="Clip-2"></g>
                    <path d="M21.524475,31.0576831 C21.524475,38.6362424 21.524475,46.2148017 21.5231625,53.7927 C21.5231625,54.0419034 21.513975,54.2930898 21.4896937,54.5409712 C21.3807562,55.6389203 20.6221312,56.5048525 19.555725,56.7606661 C18.489975,57.0164797 17.6460375,56.638378 16.9169437,55.8656492 C14.5596937,53.3670051 12.19785,50.8736492 9.82485,48.3902085 C9.54856875,48.1006831 9.2250375,47.8316492 8.87525625,47.6452424 C7.95388125,47.1560898 7.02463125,47.2063271 6.17938125,47.827022 C5.34856875,48.4371407 5.028975,49.2958017 5.1772875,50.3183949 C5.26981875,50.9562763 5.62813125,51.452039 6.0566625,51.9114458 C11.722725,57.9941237 17.3914125,64.0728356 23.04435,70.1667508 C24.6816937,71.9310051 26.6806312,72.8180898 29.0628187,72.8207339 C35.9061937,72.8286661 42.7495687,72.8273441 49.5929437,72.8194119 C50.7505687,72.8180898 51.8950687,72.6534966 52.9424437,72.1312932 C55.9231312,70.6466492 57.497475,68.2141068 57.5086312,64.8607678 C57.5361937,56.0322254 57.518475,47.2043441 57.5151937,38.3758017 C57.5151937,38.1398186 57.4915687,37.9025136 57.4581,37.6691746 C57.3104437,36.6386492 56.4231937,35.734378 55.39485,35.5565644 C54.3192562,35.3694966 53.2193812,35.9102085 52.7055375,36.8395983 C52.3216312,37.5343271 52.373475,38.2832593 52.3544437,39.0308695 C52.3255687,40.1466661 51.6607875,41.040361 50.609475,41.4098695 C49.6270687,41.7549203 48.5114437,41.429039 47.8131937,40.6054119 C47.3531625,40.0627169 47.2251937,39.4235136 47.2225687,38.7340729 C47.217975,37.2738864 47.23635,35.813039 47.1799125,34.3548356 C47.1385687,33.3018356 46.2250687,32.3294797 45.2059125,32.1239034 C44.0725687,31.8951915 42.8952562,32.4021915 42.4306312,33.4115644 C42.2239125,33.8603949 42.1143187,34.3885475 42.0959437,34.8862932 C42.0421312,36.3709373 42.1143187,37.8608695 42.0250687,39.3428695 C41.9482875,40.6199542 40.6705687,41.623378 39.400725,41.5440559 C37.9386,41.4521746 36.9404437,40.3555475 36.93585,38.8127339 C36.9292875,36.3656492 36.9424125,33.9185644 36.9260062,31.4708186 C36.9233812,31.0709034 36.8689125,30.6511576 36.7402875,30.275039 C36.3380062,29.1037169 35.1383812,28.444022 33.8875687,28.6581915 C32.7187875,28.8584797 31.8420375,29.9227169 31.8420375,31.1409712 C31.8420375,33.6409373 31.8426937,36.1409034 31.840725,38.6408695 C31.840725,38.8510729 31.8381,39.0625983 31.8164437,39.2714797 C31.7114437,40.2577169 30.9626625,41.1586831 30.04785,41.429039 C28.3776937,41.9221576 26.6406,40.8242085 26.6471625,38.7413441 C26.6780062,28.6495983 26.6793187,18.5585136 26.690475,8.46742881 C26.690475,8.20434407 26.6931,7.93927627 26.6629125,7.67883559 C26.5467562,6.68929322 26.0434125,5.9476322 25.1515687,5.52986949 C24.249225,5.10681864 23.3659125,5.22910678 22.56135,5.8147678 C21.7548187,6.40241186 21.5225062,7.25049661 21.5231625,8.20434407 C21.5257875,15.8219034 21.524475,23.4401237 21.524475,31.0576831 M31.8420375,23.7970729 C35.9475375,22.7652254 39.059475,24.0475983 41.2841625,27.6587339 C43.1420062,26.7802424 45.0884437,26.6169712 47.070975,27.2773271 C49.0594125,27.9396661 50.5235063,29.2464966 51.5196938,31.1013102 C52.032225,30.9261407 52.5263812,30.7271746 53.0362875,30.589022 C56.7854437,29.5690729 60.8620687,31.7378695 62.1739125,35.4197339 C62.505975,36.3504458 62.6418187,37.3003271 62.6418187,38.2819373 C62.63985,47.1501407 62.6326312,56.0176831 62.6444565,64.8858864 C62.6490375,68.4725644 61.4106938,71.5568695 58.9523812,74.1169881 C56.977725,76.1740729 54.5391,77.4055475 51.7251,77.8319034 C50.966475,77.9469203 50.1907875,77.9898864 49.4236312,77.9912085 C42.671475,78.0031068 35.9193187,77.9938525 29.1671625,77.999809 C25.6568812,78.0031068 22.5672562,76.882022 20.0190375,74.4349373 C18.7537875,73.2206492 17.6001,71.8887 16.4024437,70.603022 C11.738475,65.5951576 7.081725,60.579361 2.41119375,55.5767847 C1.18925625,54.2692932 0.309225,52.7998525 0.07756875,50.9913102 C-0.27615,48.2282593 0.58025625,45.9001576 2.6376,44.0499712 C5.28163125,41.6729542 9.4534125,41.5010898 12.2601937,43.6831068 C13.1120062,44.3447847 13.8260062,45.1849373 14.6167875,45.9285814 C15.2080687,46.4844966 15.8223187,47.0172763 16.4254125,47.5599712 L16.3748812,47.6829203 L16.3748812,47.2453271 C16.3748812,34.2193271 16.3781625,21.1939881 16.3709437,8.16864915 C16.3702875,5.99192034 17.0429437,4.09678475 18.5359125,2.50505593 C20.7881625,0.101598305 24.4703812,-0.602384746 27.3933187,0.88490339 C30.1981312,2.31203898 31.7560687,4.65137797 31.8125062,7.80971695 C31.9004437,12.7554458 31.8394125,17.7038186 31.8420375,22.6508695 C31.8420375,23.0316153 31.8420375,23.412361 31.8420375,23.7970729" id="Fill-1" fill="#FFFFFF" mask="url(#mask-2)"></path>
                </g>
                <path d="M5,16.9895371 C5.4649354,9.68612546 9.17637934,4.36707433 16.4826984,1.3367183 C19.5644028,0.0581418765 22.8524473,-0.277739594 26.191407,0.220206232 C32.6294894,1.17898391 37.2949218,4.42398242 40.1950736,9.78633319 C41.8598639,12.865556 42.3180999,16.152617 41.7948801,19.5640098 C41.6528538,20.4881478 41.2783597,21.2434172 40.3632275,21.6931148 C39.4748927,22.1304412 38.5698095,22.0698217 37.7364095,21.5898143 C36.9083689,21.1135182 36.4936787,20.378043 36.5332049,19.4712249 C36.5720612,18.5631696 36.7556236,17.6538772 36.7174372,16.7507705 C36.5265055,12.300805 34.3150477,8.89497923 30.2277698,6.58710858 C25.0223692,3.64768179 18.0744657,4.57181976 13.9275635,8.7069351 C11.4019058,11.2257368 10.1886522,14.224546 10.326659,17.6668671 C10.3480969,18.2062569 10.4593063,18.7419353 10.5222802,19.2800879 C10.6629667,20.4757765 9.8731125,21.5953814 8.68129684,21.8972417 C7.35080448,22.2337417 6.0236618,21.7320845 5.54532768,20.5642314 C5.26529455,19.8776229 5.22241866,19.1019408 5.12527798,18.3596613 C5.06833344,17.9235721 5.11522895,17.4757302 5.11522895,17.0322182 C5.07637267,17.0179911 5.03818634,17.0037641 5,16.9895371" id="Fill-4" fill="#FFFFFF"></path>
            </g>
        </g>
    </g>
</svg>