<?xml version="1.0" encoding="UTF-8"?>
<svg width="88px" height="88px" viewBox="0 0 88 88" version="1.1" xmlns="http://www.w3.org/2000/svg" xmlns:xlink="http://www.w3.org/1999/xlink">
    <title>Group 3</title>
    <defs>
        <polygon id="path-1" points="0 0 88 0 88 88 0 88"></polygon>
    </defs>
    <g id="Mobile" stroke="none" stroke-width="1" fill="none" fill-rule="evenodd">
        <g id="1.-Home-Banner3" transform="translate(-163.000000, -1253.000000)">
            <g id="Group-3" transform="translate(163.000000, 1253.000000)">
                <mask id="mask-2" fill="white">
                    <use xlink:href="#path-1"></use>
                </mask>
                <g id="Clip-2"></g>
                <path d="M18.6168805,15.211643 C20.1518199,16.3749244 21.6252572,17.4917531 23.151691,18.6484919 C24.5911057,15.1278972 26.3007378,11.8879818 28.4866853,8.90453791 C24.8901114,10.473463 21.6409599,12.5586024 18.6168805,15.211643 L18.6168805,15.211643 Z M59.5093432,79.0900557 C63.1118056,77.5244019 66.3609571,75.4379539 69.3817651,72.7901475 C67.8579484,71.6360258 66.3773141,70.5146172 64.8469546,69.3552614 C63.4062313,72.8738933 61.7031421,76.1157715 59.5093432,79.0900557 L59.5093432,79.0900557 Z M28.4912652,79.0880929 C26.2915779,76.1111916 24.59176,72.8660421 23.151691,69.3546072 C21.6180601,70.5172343 20.1374258,71.6399514 18.6175347,72.7921103 C21.6461941,75.4399167 24.8914199,77.5302903 28.4912652,79.0880929 L28.4912652,79.0880929 Z M59.499529,8.9065007 C61.7136105,11.886019 63.4075399,15.1429453 64.8508803,18.6419492 C66.3890912,17.476705 67.8638369,16.3598763 69.3817651,15.2103345 C66.3544143,12.5572939 63.1019914,10.4649576 59.499529,8.9065007 L59.499529,8.9065007 Z M46.837914,63.394262 L46.837914,81.9819026 C47.2874039,81.814411 47.7081056,81.6776698 48.1131046,81.5036356 C50.5136557,80.4718613 52.4208802,78.8028338 54.0906012,76.8367704 C56.0887705,74.484037 57.5949217,71.8251081 58.8864692,69.0379434 C59.2365087,68.2829227 59.5400943,67.5069656 59.8750854,66.7185774 C55.7066713,64.8244831 51.387773,63.7357878 46.837914,63.394262 L46.837914,63.394262 Z M59.8731226,21.2845216 C59.6277678,20.6963382 59.410547,20.1493735 59.171735,19.6115685 C57.6688553,16.2205181 55.8597727,13.0192043 53.3074287,10.2883063 C51.8189431,8.69451916 50.1335194,7.36636322 48.1157217,6.49815487 C47.7061428,6.32150359 47.2802069,6.18345388 46.842494,6.01988788 L46.842494,24.6029486 C51.3864644,24.2673112 55.7040542,23.1720732 59.8731226,21.2845216 L59.8731226,21.2845216 Z M41.1626944,6.03231889 C40.9938904,6.08727707 40.8708858,6.12587865 40.7491899,6.16775154 C37.9593425,7.12232274 35.7943319,8.94183096 33.9237471,11.1480092 C31.5997467,13.8893754 29.9175943,17.0154489 28.5285591,20.3109767 C28.3937776,20.6302576 28.2720816,20.9547725 28.14646,21.270782 C31.0638918,22.8462498 38.8426197,24.8077333 41.1626944,24.5564959 L41.1626944,6.03231889 Z M41.1574602,82.0388236 L41.1574602,63.4302465 C38.4853831,63.265372 29.8482407,65.4807099 28.1516942,66.7624131 C29.399405,69.8950292 30.8983592,72.8948297 32.9338224,75.6034827 C34.5433497,77.7455431 36.375332,79.6553398 38.761489,80.9442399 C39.5139103,81.3505378 40.3193283,81.6600047 41.1574602,82.0388236 L41.1574602,82.0388236 Z M46.8431482,30.2289649 L46.8431482,41.1584452 L63.7300997,41.1584452 C63.5678384,36.2429597 62.8514024,31.4380448 61.6200486,26.6468694 C56.8758686,28.7307003 51.9583046,29.8736995 46.8431482,30.2289649 L46.8431482,30.2289649 Z M24.2711631,41.1564824 L41.1646573,41.1564824 L41.1646573,30.2289649 C36.0370696,29.8756623 31.1116542,28.7248119 26.3772885,26.6475237 C25.1498603,31.4504758 24.430153,36.2468853 24.2711631,41.1564824 L24.2711631,41.1564824 Z M46.8372597,46.8315685 L46.8372597,57.7689 C51.9668102,58.1254739 56.8922256,59.2769786 61.6213571,61.3509955 C62.8533653,56.5336495 63.5743812,51.7300432 63.7281368,46.8315685 L46.8372597,46.8315685 Z M41.1646573,46.8433452 L24.3012599,46.8433452 C24.0866563,49.3138462 25.6157072,59.7009416 26.4420621,61.327442 C31.1280112,59.2658561 36.0462295,58.1280909 41.1646573,57.7675915 L41.1646573,46.8433452 Z M69.362791,46.8348398 C69.3385827,47.2830107 69.3281142,47.6886544 69.2940917,48.0923352 C69.1364104,49.9563334 69.0251829,51.82622 68.7981479,53.6817127 C68.3839891,57.0596778 67.7179326,60.3918444 66.7711903,63.6638188 C66.6966025,63.9209445 66.7679189,64.0230097 66.9700913,64.1610594 C68.3414609,65.0973112 69.7167562,66.0283289 71.0593375,67.0051451 C71.8268073,67.5632323 72.5340833,68.204411 73.2740733,68.8122223 C75.9049308,65.7123194 77.9907735,62.3036039 79.5296387,58.5553254 C81.0717753,54.8005042 81.9825322,50.9050162 82.2749951,46.8348398 L69.362791,46.8348398 Z M5.74458746,46.8348398 C5.63793992,53.238776 10.4102539,64.8428025 14.7671004,68.8043711 C16.7430242,67.0646831 18.8262499,65.4636991 21.0972537,64.1198408 C21.3471884,63.9719771 21.2686749,63.812991 21.2156782,63.6265257 C19.8416915,58.8019829 19.0624447,53.8773377 18.7523163,48.8754893 C18.7097881,48.2002888 18.6731485,47.5244341 18.6332374,46.8348398 L5.74458746,46.8348398 Z M82.2717237,41.1610623 C82.0610457,38.0703191 81.4898598,35.0737899 80.5319948,32.1570809 C78.9591071,27.3659056 76.5624816,23.0294437 73.2649134,19.1810628 C73.1615373,19.2680799 73.0607782,19.3492086 72.9632906,19.4342629 C71.1097171,21.0385183 69.17305,22.5308945 67.0610361,23.7798845 C66.7482905,23.9650412 66.702491,24.1371127 66.7960529,24.4622819 C68.2963156,29.6793831 69.0703281,35.0122891 69.3169915,40.4282866 C69.32746,40.6716728 69.3569025,40.9144048 69.3778395,41.1610623 L82.2717237,41.1610623 Z M18.6384717,41.1630251 C18.6620257,40.7207426 18.6718399,40.3150989 18.7065167,39.911418 C18.8635438,38.0474199 18.9734627,36.1775333 19.201152,34.3220406 C19.6153108,30.9440755 20.280713,27.6119088 21.2287638,24.3405888 C21.3020431,24.0860801 21.2379237,23.9820521 21.03248,23.8420396 C19.6611104,22.9064421 18.2864694,21.9741158 16.943888,20.9972997 C16.175764,20.4379039 15.4671794,19.7973795 14.7154124,19.1797542 C9.38630662,25.5549028 6.37073285,32.8564892 5.71514489,41.1630251 L18.6384717,41.1630251 Z M87.99997,43.98552 C88.0280739,68.2345072 68.3283753,87.9507532 44.023204,87.9999117 C19.7808435,88.0482385 -0.0137255778,68.261332 7.14111462e-06,43.9933712 C0.0130998777,19.7129794 19.7206498,0.00720159367 43.9963785,2.34406224e-06 C68.2609845,-0.00784647863 87.9718059,19.6959685 87.99997,43.98552 L87.99997,43.98552 Z" id="Fill-1" fill="#FFFFFF" mask="url(#mask-2)"></path>
            </g>
        </g>
    </g>
</svg>