<svg width="98px" height="37px" viewBox="0 0 98 37" version="1.1" xmlns="http://www.w3.org/2000/svg" xmlns:xlink="http://www.w3.org/1999/xlink">
    <title>Fill 1</title>
    <defs>
        <rect id="path-1" x="0" y="0" width="415" height="101"></rect>
        <filter x="-3.5%" y="-12.4%" width="107.0%" height="128.7%" filterUnits="objectBoundingBox" id="filter-2">
            <feOffset dx="0" dy="2" in="SourceAlpha" result="shadowOffsetOuter1"></feOffset>
            <feGaussianBlur stdDeviation="4.5" in="shadowOffsetOuter1" result="shadowBlurOuter1"></feGaussianBlur>
            <feColorMatrix values="0 0 0 0 0.317849864   0 0 0 0 0.317849864   0 0 0 0 0.317849864  0 0 0 0.5 0" type="matrix" in="shadowBlurOuter1"></feColorMatrix>
        </filter>
        <polygon id="path-3" points="0 0 98 0 98 37 0 37"></polygon>
    </defs>
    <g id="Mobile" stroke="none" stroke-width="1" fill="none" fill-rule="evenodd">
        <g id="1.-Home-Banner1" transform="translate(-32.000000, -33.000000)">
            <g id="Rectangle-Copy">
                <use fill="black" fill-opacity="1" filter="url(#filter-2)" xlink:href="#path-1"></use>
                <use fill="#009CDE" fill-rule="evenodd" xlink:href="#path-1"></use>
            </g>
            <g id="Group-3" transform="translate(32.000000, 33.000000)">
                <mask id="mask-4" fill="white">
                    <use xlink:href="#path-3"></use>
                </mask>
                <g id="Clip-2"></g>
                <path d="M57.561694,24.9806659 L53.4845789,24.9806659 L53.4845789,19.7458727 L57.561694,19.7458727 C60.3399407,19.7458727 61.2455879,20.8599275 61.2455879,22.3936414 C61.2455879,23.9588066 60.3095977,24.9806659 57.561694,24.9806659 L57.561694,24.9806659 Z M53.4845789,11.9881912 L57.1994351,11.9881912 C59.7671383,11.9881912 60.6421327,12.9801408 60.6421327,14.3646152 C60.6421327,15.7164049 59.7671383,16.8008584 57.1994351,16.8008584 L53.4845789,16.8008584 L53.4845789,11.9881912 Z M61.5483991,18.1245885 C63.3299696,17.2205175 64.1151734,15.9572232 64.1151734,14.033143 C64.1151734,10.9339556 62.2131596,8.80020001 57.1994351,8.80020001 L50.0728435,8.80020001 L50.0728435,28.1674236 L57.561694,28.1674236 C62.4843893,28.1674236 64.7192478,25.4897454 64.7192478,22.4519188 C64.7192478,20.5287637 63.7810903,19.0274261 61.5483991,18.1245885 L61.5483991,18.1245885 Z M90.6015595,18.3354973 L86.6470551,18.3354973 L86.6470551,11.9881912 L90.6015595,11.9881912 C93.5912787,11.9881912 94.5579216,13.1330805 94.5579216,15.1755656 C94.5579216,17.2205175 93.5912787,18.3354973 90.6015595,18.3354973 L90.6015595,18.3354973 Z M90.6015595,8.80020001 L83.2343909,8.80020001 L83.2343909,28.1674236 L86.6470551,28.1674236 L86.6470551,21.5237968 L90.6015595,21.5237968 C95.9168568,21.5237968 98,18.9639068 98,15.1755656 C98,11.3872245 95.9475094,8.80020001 90.6015595,8.80020001 L90.6015595,8.80020001 Z M76.5075226,25.0685445 C75.7826952,25.2794533 74.9355668,25.3716488 74.1218777,25.3716488 C71.2516729,25.3716488 70.1952394,24.017084 70.1952394,20.7384391 C70.1952394,17.7628985 70.9525771,16.1376057 73.9998863,16.1376057 C75.2067965,16.1376057 76.0848872,16.3793491 76.5075226,16.5893329 L76.5075226,25.0685445 Z M76.5075226,13.431868 C75.7223188,13.1330805 74.7237847,13.0097421 73.7589996,13.0097421 C69.288973,13.0097421 66.8457383,16.1083128 66.8457383,20.5885829 C66.8457383,25.5800908 69.1685297,28.4995125 74.2429403,28.4995125 C75.3597503,28.4995125 77.9875203,28.3468811 79.828848,27.5649152 L79.828848,8.84645194 L76.5075226,8.84645194 L76.5075226,13.431868 Z M31.5001106,24.1317888 C31.5001106,28.1214801 28.2385424,31.3683653 24.2301636,31.3683653 C21.9476232,31.3683653 19.9090656,30.3138214 18.5761388,28.6712613 C17.2422831,30.3138214 15.2052737,31.3683653 12.9218044,31.3683653 C8.91404488,31.3683653 5.65309591,28.1214801 5.65309591,24.1290137 C5.65309591,20.1377807 8.91404488,16.8921288 12.9218044,16.8921288 L16.9614551,16.8921288 L16.9614551,12.8691362 C16.9614551,8.87851994 20.2224041,5.63101796 24.2310925,5.63101796 C28.2385424,5.63101796 31.5001106,8.87851994 31.5001106,12.8691362 C31.5001106,15.1431893 30.4399616,17.1739572 28.789052,18.5020043 C30.4399616,19.8278928 31.5001106,21.8583524 31.5001106,24.1317888 L31.5001106,24.1317888 Z M24.2310925,0 L0,0 L0,24.1317888 C0,31.2385516 5.78561454,37 12.9218044,37 L37.1525872,37 L37.1525872,12.8685195 C37.1525872,5.76237343 31.3672823,0 24.2310925,0 L24.2310925,0 Z M24.2310925,8.84645194 C22.0039745,8.84645194 20.1911321,10.6512021 20.1911321,12.8691362 L20.1911321,16.8921288 L24.2310925,16.8921288 C26.4575911,16.8921288 28.2682662,15.0879953 28.2682662,12.8691362 C28.2682662,10.6512021 26.4575911,8.84645194 24.2310925,8.84645194 L24.2310925,8.84645194 Z M24.2301636,20.1084879 L20.1911321,20.1084879 L20.1911321,24.1317888 C20.1911321,26.3472561 22.0033553,28.1535481 24.2301636,28.1535481 C26.4569719,28.1535481 28.2682662,26.3472561 28.2682662,24.1317888 C28.2682662,21.9120047 26.4569719,20.1084879 24.2301636,20.1084879 L24.2301636,20.1084879 Z M8.88370183,24.1290137 C8.88370183,26.3472561 10.6946865,28.1535481 12.9218044,28.1535481 C15.1492319,28.1535481 16.9614551,26.3472561 16.9614551,24.1290137 L16.9614551,20.1084879 L12.9218044,20.1084879 C10.6946865,20.1084879 8.88370183,21.9120047 8.88370183,24.1290137 L8.88370183,24.1290137 Z" id="Fill-1" fill="#FFFFFF" mask="url(#mask-4)"></path>
            </g>
        </g>
    </g>
</svg>