<?xml version="1.0" encoding="UTF-8"?>
<svg width="48px" height="38px" viewBox="0 0 48 38" version="1.1" xmlns="http://www.w3.org/2000/svg" xmlns:xlink="http://www.w3.org/1999/xlink">
    <title>Fill 31</title>
    <g id="Symbols" stroke="none" stroke-width="1" fill="none" fill-rule="evenodd">
        <g id="footer" transform="translate(-111.000000, -658.000000)" fill="#FFFFFF">
            <g id="Group-33" transform="translate(27.000000, 657.000000)">
                <path d="M108.113096,4.38665479 C107.924135,4.53715317 107.738808,4.69315758 107.555298,4.85099735 C104.457429,7.57465096 102.49696,11.5830468 102.49696,16.0576206 C102.49696,20.5321944 104.457429,24.5405903 107.555298,27.2642439 C107.738808,27.423919 107.924135,27.5780881 108.113096,27.7285865 C108.302057,27.5780881 108.487384,27.423919 108.670894,27.2642439 C111.768763,24.5405903 113.729232,20.5321944 113.729232,16.0576206 C113.729232,11.5830468 111.768763,7.57465096 108.670894,4.85099735 C108.487384,4.69315758 108.302057,4.53715317 108.113096,4.38665479 L108.113096,4.38665479 Z M117.199571,1.206 C114.190733,1.206 111.392658,2.12000236 109.059717,3.68738792 C109.179635,3.78649661 109.299552,3.88376996 109.415836,3.98471399 C112.880725,7.02955317 114.866631,11.4288778 114.866631,16.0576206 C114.866631,20.6863635 112.880725,25.0875234 109.415836,28.1305272 C109.301369,28.2333066 109.179635,28.3287446 109.059717,28.4278533 C111.392658,29.9970742 114.190733,30.9110766 117.199571,30.9110766 C125.321256,30.9110766 131.904,24.2616177 131.904,16.0576206 C131.904,7.85545891 125.321256,1.206 117.199571,1.206 L117.199571,1.206 Z M106.810356,28.1305272 C106.924823,28.2333066 107.046557,28.3287446 107.166474,28.4278533 C104.833534,29.9970742 102.035459,30.9110766 99.0266203,30.9110766 C90.9049354,30.9110766 84.3221918,24.2616177 84.3221918,16.0576206 C84.3221918,7.85545891 90.9049354,1.206 99.0266203,1.206 C102.035459,1.206 104.833534,2.12000236 107.166474,3.68738792 C107.046557,3.78649661 106.926639,3.88376996 106.810356,3.98471399 C103.345467,7.02955317 101.359561,11.4288778 101.359561,16.0576206 C101.359561,20.6863635 103.345467,25.0875234 106.810356,28.1305272 L106.810356,28.1305272 Z M131.444316,25.2618813 L131.444316,24.6855826 L131.295328,24.6855826 L131.122719,25.0820174 L130.950111,24.6855826 L130.801122,24.6855826 L130.801122,25.2618813 L130.908321,25.2618813 L130.908321,24.8269043 L131.068211,25.2013149 L131.177227,25.2013149 L131.337117,24.8250689 L131.337117,25.2618813 L131.444316,25.2618813 Z M130.499512,25.2618813 L130.499512,24.7846913 L130.69029,24.7846913 L130.69029,24.6855826 L130.203352,24.6855826 L130.203352,24.7846913 L130.395947,24.7846913 L130.395947,25.2618813 L130.499512,25.2618813 Z M131.048225,38.0175367 C131.093648,38.0175367 131.129987,38.0267134 131.155424,38.0469022 C131.179044,38.0689264 131.19358,38.0964566 131.19358,38.1313281 C131.19358,38.162529 131.182678,38.1882239 131.164509,38.2065773 C131.142706,38.2267661 131.113635,38.2396135 131.079113,38.2432842 L131.195397,38.3809352 L131.102733,38.3809352 L130.995534,38.2451196 L130.959195,38.2451196 L130.959195,38.3809352 L130.881067,38.3809352 L130.881067,38.0175367 L131.048225,38.0175367 Z M131.024605,38.5039034 C131.068211,38.5039034 131.106367,38.496562 131.142706,38.4818792 C131.179044,38.4653611 131.209932,38.443337 131.239003,38.4176421 C131.26444,38.3882766 131.286243,38.3552404 131.302596,38.3185334 C131.317131,38.2818265 131.324399,38.2432842 131.324399,38.1992359 C131.324399,38.157023 131.317131,38.1166454 131.302596,38.0817738 C131.286243,38.0432315 131.26444,38.0120306 131.239003,37.9826651 C131.209932,37.9569703 131.179044,37.9349461 131.142706,37.918428 C131.106367,37.9019099 131.068211,37.8945685 131.024605,37.8945685 C130.982816,37.8945685 130.942843,37.9019099 130.906504,37.918428 C130.868349,37.9349461 130.837461,37.9569703 130.810207,37.9826651 C130.782953,38.0120306 130.76115,38.0432315 130.744798,38.0817738 C130.730262,38.1166454 130.721177,38.157023 130.721177,38.1992359 C130.721177,38.2432842 130.730262,38.2818265 130.744798,38.3185334 C130.76115,38.3552404 130.782953,38.3882766 130.810207,38.4176421 C130.837461,38.443337 130.868349,38.4653611 130.906504,38.4818792 C130.942843,38.496562 130.982816,38.5039034 131.024605,38.5039034 L131.024605,38.5039034 Z M131.024605,37.8064719 C131.08093,37.8064719 131.131804,37.8174839 131.179044,37.8376728 C131.228101,37.8596969 131.268074,37.8853918 131.306229,37.9220987 C131.340751,37.9588056 131.369822,37.9991832 131.389808,38.0469022 C131.409795,38.0964566 131.420696,38.1460109 131.420696,38.1992359 C131.420696,38.2542963 131.409795,38.3038507 131.389808,38.3515697 C131.369822,38.3992887 131.340751,38.4396663 131.306229,38.4763732 C131.268074,38.5112448 131.228101,38.5406103 131.179044,38.5607991 C131.131804,38.5809879 131.08093,38.592 131.024605,38.592 C130.970097,38.592 130.917406,38.5809879 130.868349,38.5607991 C130.821109,38.5406103 130.779319,38.5112448 130.742981,38.4763732 C130.708459,38.4396663 130.679388,38.3992887 130.659402,38.3515697 C130.637599,38.3038507 130.628514,38.2542963 130.628514,38.1992359 C130.628514,38.1460109 130.637599,38.0964566 130.659402,38.0469022 C130.679388,37.9991832 130.708459,37.9588056 130.742981,37.9220987 C130.779319,37.8853918 130.821109,37.8596969 130.868349,37.8376728 C130.917406,37.8174839 130.970097,37.8064719 131.024605,37.8064719 L131.024605,37.8064719 Z M94.6023915,36.4079381 C94.6023915,35.7141773 95.0529906,35.14522 95.7888479,35.14522 C96.4920005,35.14522 96.9625858,35.6903178 96.9625858,36.4079381 C96.9625858,37.1237231 96.4920005,37.6688209 95.7888479,37.6688209 C95.0529906,37.6688209 94.6023915,37.101699 94.6023915,36.4079381 L94.6023915,36.4079381 Z M97.7656697,36.4079381 L97.7656697,34.4367764 L96.9153456,34.4367764 L96.9153456,34.9139664 C96.6446228,34.5597446 96.2376301,34.3376677 95.681649,34.3376677 C94.5878561,34.3376677 93.7302643,35.2039511 93.7302643,36.4079381 C93.7302643,37.6119252 94.5878561,38.4782085 95.681649,38.4782085 C96.2376301,38.4782085 96.6446228,38.2561317 96.9153456,37.9000745 L96.9153456,38.3790999 L97.7656697,38.3790999 L97.7656697,36.4079381 Z M126.449571,36.4079381 C126.449571,35.7141773 126.898353,35.14522 127.632393,35.14522 C128.335546,35.14522 128.809765,35.6903178 128.809765,36.4079381 C128.809765,37.1237231 128.335546,37.6688209 127.632393,37.6688209 C126.898353,37.6688209 126.449571,37.101699 126.449571,36.4079381 L126.449571,36.4079381 Z M129.609215,36.4079381 L129.609215,32.8510374 L128.758891,32.8510374 L128.758891,34.9139664 C128.491802,34.5597446 128.081176,34.3376677 127.527011,34.3376677 C126.433219,34.3376677 125.57381,35.2039511 125.57381,36.4079381 C125.57381,37.6119252 126.433219,38.4782085 127.527011,38.4782085 C128.081176,38.4782085 128.491802,38.2561317 128.758891,37.9000745 L128.758891,38.3790999 L129.609215,38.3790999 L129.609215,36.4079381 Z M108.302057,35.1048424 C108.847136,35.1048424 109.199621,35.4498875 109.288651,36.0610577 L107.262772,36.0610577 C107.353618,35.4921004 107.697019,35.1048424 108.302057,35.1048424 L108.302057,35.1048424 Z M108.316592,34.3376677 C107.171925,34.3376677 106.372475,35.1782563 106.372475,36.4079381 C106.372475,37.6614795 107.206447,38.4782085 108.374734,38.4782085 C108.96342,38.4782085 109.501232,38.3313809 109.973634,37.9257694 L109.559374,37.2907396 C109.230509,37.5550295 108.816248,37.7036925 108.423791,37.7036925 C107.875078,37.7036925 107.377239,37.446744 107.253687,36.7364651 L110.155327,36.7364651 C110.162595,36.630015 110.17168,36.5217296 110.17168,36.4079381 C110.162595,35.1782563 109.412202,34.3376677 108.316592,34.3376677 L108.316592,34.3376677 Z M118.567721,36.4079381 C118.567721,35.7141773 119.016503,35.14522 119.750544,35.14522 C120.453696,35.14522 120.927915,35.6903178 120.927915,36.4079381 C120.927915,37.1237231 120.453696,37.6688209 119.750544,37.6688209 C119.016503,37.6688209 118.567721,37.101699 118.567721,36.4079381 L118.567721,36.4079381 Z M121.727365,36.4079381 L121.727365,34.4367764 L120.877041,34.4367764 L120.877041,34.9139664 C120.609952,34.5597446 120.199326,34.3376677 119.645162,34.3376677 C118.551369,34.3376677 117.69196,35.2039511 117.69196,36.4079381 C117.69196,37.6119252 118.551369,38.4782085 119.645162,38.4782085 C120.199326,38.4782085 120.609952,38.2561317 120.877041,37.9000745 L120.877041,38.3790999 L121.727365,38.3790999 L121.727365,36.4079381 Z M113.772838,36.4079381 C113.772838,37.6045838 114.597725,38.4782085 115.856859,38.4782085 C116.443728,38.4782085 116.836185,38.3460636 117.25953,38.0083599 L116.852538,37.3145991 C116.534574,37.5458527 116.198442,37.6688209 115.831422,37.6688209 C115.153706,37.6614795 114.655867,37.1659361 114.655867,36.4079381 C114.655867,35.6499402 115.153706,35.1525614 115.831422,35.14522 C116.198442,35.14522 116.534574,35.2700236 116.852538,35.5012772 L117.25953,34.8075163 C116.836185,34.4679773 116.443728,34.3376677 115.856859,34.3376677 C114.597725,34.3376677 113.772838,35.2112925 113.772838,36.4079381 L113.772838,36.4079381 Z M124.718035,34.3376677 C124.227463,34.3376677 123.907683,34.5689214 123.687835,34.9139664 L123.687835,34.4367764 L122.846595,34.4367764 L122.846595,38.3790999 L123.695102,38.3790999 L123.695102,36.1693432 C123.695102,35.5159599 123.973093,35.1525614 124.529074,35.1525614 C124.701683,35.1525614 124.881559,35.1782563 125.059618,35.2535054 L125.323073,34.4422825 C125.134112,34.3688686 124.888827,34.3376677 124.718035,34.3376677 L124.718035,34.3376677 Z M101.962782,34.7487853 C101.553972,34.4771541 100.990723,34.3376677 100.369333,34.3376677 C99.380922,34.3376677 98.7449959,34.8166931 98.7449959,35.5985505 C98.7449959,36.242757 99.2173981,36.6391918 100.091342,36.7621599 L100.492884,36.8190557 C100.958019,36.8869635 101.179684,37.0099317 101.179684,37.2320085 C101.179684,37.5385113 100.868989,37.7110339 100.287571,37.7110339 C99.700702,37.7110339 99.2755399,37.5201579 98.9902817,37.298081 L98.5905567,37.966147 C99.0556912,38.3130274 99.6425602,38.4782085 100.278486,38.4782085 C101.408618,38.4782085 102.060896,37.9422875 102.060896,37.1916309 C102.060896,36.4997054 101.546705,36.1344716 100.696381,36.0115034 L100.296656,35.9546077 C99.9278184,35.903218 99.6352924,35.8298041 99.6352924,35.5673496 C99.6352924,35.2773649 99.911466,35.1048424 100.378418,35.1048424 C100.876257,35.1048424 101.357744,35.2938831 101.593945,35.4407108 L101.962782,34.7487853 Z M112.915246,34.3376677 C112.424675,34.3376677 112.106712,34.5689214 111.885046,34.9139664 L111.885046,34.4367764 L111.043807,34.4367764 L111.043807,38.3790999 L111.894131,38.3790999 L111.894131,36.1693432 C111.894131,35.5159599 112.172121,35.1525614 112.728102,35.1525614 C112.898894,35.1525614 113.076953,35.1782563 113.258647,35.2535054 L113.520285,34.4422825 C113.331324,34.3688686 113.086038,34.3376677 112.915246,34.3376677 L112.915246,34.3376677 Z M105.669323,34.4367764 L104.283004,34.4367764 L104.283004,33.2382954 L103.425412,33.2382954 L103.425412,34.4367764 L102.631413,34.4367764 L102.631413,35.2186339 L103.425412,35.2186339 L103.425412,37.0191084 C103.425412,37.9349461 103.77608,38.4782085 104.780843,38.4782085 C105.147863,38.4782085 105.573025,38.3625817 105.841931,38.1735411 L105.596645,37.4375673 C105.344092,37.5862303 105.066101,37.6614795 104.846253,37.6614795 C104.421091,37.6614795 104.283004,37.3971897 104.283004,37.0007549 L104.283004,35.2186339 L105.669323,35.2186339 L105.669323,34.4367764 Z M92.9780546,38.3790999 L92.9780546,35.903218 C92.9780546,34.9726975 92.3911856,34.3450091 91.4427472,34.3376677 C90.9449079,34.328491 90.4307163,34.4863308 90.0709638,35.03877 C89.8020579,34.6001222 89.3750789,34.3376677 88.7791253,34.3376677 C88.363048,34.3376677 87.9542383,34.4606359 87.6362753,34.9213078 L87.6362753,34.4367764 L86.7877681,34.4367764 L86.7877681,38.3790999 L87.643543,38.3790999 L87.643543,36.1932027 C87.643543,35.5086186 88.0196479,35.14522 88.601066,35.14522 C89.1643148,35.14522 89.4513901,35.5159599 89.4513901,36.1858613 L89.4513901,38.3790999 L90.3071649,38.3790999 L90.3071649,36.1932027 C90.3071649,35.5086186 90.6996222,35.14522 91.2646879,35.14522 C91.8424722,35.14522 92.1204628,35.5159599 92.1204628,36.1858613 L92.1204628,38.3790999 L92.9780546,38.3790999 Z" id="Fill-31"></path>
            </g>
        </g>
    </g>
</svg>