<svg version="1.1" id="Layer_1" xmlns="http://www.w3.org/2000/svg" xmlns:xlink="http://www.w3.org/1999/xlink" x="0px" y="0px"
	 viewBox="0 0 171 223" style="enable-background:new 0 0 171 223;" xml:space="preserve">
<style type="text/css">
	.st0{fill:#5B9AD4;}
	.st1{fill:#FFFFFF;}
</style>
<g>
	<path class="st0" d="M157.8,216.4H15.2c-3.8,0-6.9-3.1-6.9-6.9v-197c0-3.8,3.1-6.9,6.9-6.9h142.7c3.8,0,6.9,3.1,6.9,6.9v197
		C164.8,213.3,161.7,216.4,157.8,216.4"/>
	<path class="st1" d="M103.9,54.6c0.8,0.5,1.8,0.5,2.8,0.7c14.1,3.2,23.9,15.4,23.9,29.8c0,18.6,0,37.2,0,55.8
		c0,1.2-0.3,1.4-1.5,1.4c-18.7,0-37.4,0-56.1,0c-14.4,0-27.2-10.9-29.6-25.1c-0.3-1.8-0.5-3.7-0.5-5.6c0-19,0-38,0-57H103.9z
		 M84.4,105.9c2.3,0,4.7,0,7,0c2,0,4,0.1,5.9-0.5c10.5-2.8,17.9-14.6,15.7-25.3c-1.5-7.4-7.3-12-13.5-12.2c-5-0.1-10.1-0.2-15.1,0.1
		c-7.7,0.4-12.5,4.1-14.2,11.7c-1.4,6.3-2.4,12.6-3.6,18.9c-1.8,9.7-3.5,19.5-5.3,29.2c-0.1,0.7,0,1,0.7,1c1-0.1,1.9,0,2.9,0
		c2.9,0,4.1-1.1,4.6-3.9c1-6,2.1-11.9,3.1-17.9c0.2-0.9,0.5-1.1,1.4-1.1C77.5,106,81,105.9,84.4,105.9"/>
	<path class="st1" d="M42.4,160c0-2.2,0-4.4,0-6.7c0-0.3,0.1-0.4,0.4-0.4c1.7,0,3.5,0,5.2,0c1.2,0,2.3,0.2,3.3,0.9
		c1.3,0.8,1.7,2.1,1.8,3.5c0,0.7,0,1.4-0.3,2.1c-0.6,1.7-1.9,2.4-3.5,2.7c-1.3,0.2-2.7,0.1-4.1,0.1c-0.4,0-0.5,0.1-0.5,0.5
		c0,1.3,0,2.7,0,4c0,0.3-0.1,0.4-0.4,0.4c-0.6,0-1.2,0-1.8,0c-0.3,0-0.4-0.1-0.4-0.4C42.4,164.5,42.4,162.2,42.4,160 M44.9,157.6
		c0,0.7,0,1.3,0,2c0,0.2,0,0.3,0.3,0.3c1.1,0,2.1,0,3.2,0c0.7,0,1.4-0.2,1.8-0.7c0.6-0.8,0.6-1.7,0.3-2.5c-0.2-0.8-0.9-1.1-1.7-1.2
		c-1.2-0.2-2.5,0-3.7-0.1c-0.2,0-0.2,0.1-0.2,0.3C44.9,156.2,44.9,156.9,44.9,157.6"/>
	<path class="st1" d="M130.1,159.3c0,2.3,0,4.7,0,7c0,0.2,0.1,0.4-0.2,0.5c-2,0.6-4.1,0.9-6.1,0.2c-1.8-0.6-2.7-1.9-3-3.7
		c-0.3-1.5-0.3-3,0.3-4.4c0.7-1.7,2.1-2.6,4-2.8c0.8-0.1,1.5,0,2.3,0.2c0.3,0.1,0.3,0,0.3-0.2c0-1.2,0-2.5,0-3.7
		c0-0.4,0.1-0.5,0.5-0.5c0.5,0,1,0,1.5,0c0.4,0,0.5,0.1,0.5,0.5C130.1,154.6,130.1,157,130.1,159.3 M127.6,161.7c0-0.9,0-1.8,0-2.8
		c0-0.3-0.1-0.4-0.4-0.5c-0.8-0.2-1.5-0.2-2.3-0.1c-1,0.2-1.6,0.8-1.8,1.7c-0.2,0.9-0.2,1.7-0.1,2.6c0.1,1.1,0.6,2,1.8,2.2
		c0.8,0.2,1.6,0.1,2.4-0.1c0.2,0,0.2-0.2,0.2-0.4C127.6,163.6,127.6,162.6,127.6,161.7"/>
	<path class="st1" d="M63,163.1c0,1.1,0,2.1,0,3.2c0,0.2,0,0.4-0.3,0.4c-2,0.6-4,0.8-6.1,0.4c-2.3-0.5-3.3-3.2-2-5.2
		c0.5-0.8,1.4-1.1,2.3-1.3c1.1-0.2,2.1-0.2,3.2-0.1c0.3,0,0.4-0.1,0.4-0.4c0.1-1.5-0.7-1.7-1.7-1.8c-1.1-0.1-2.2,0-3.2,0.4
		c-0.3,0.1-0.4,0.1-0.4-0.2c-0.1-0.5-0.2-1.1-0.2-1.6c0-0.2,0-0.3,0.2-0.3c1.6-0.4,3.2-0.6,4.8-0.3c2.1,0.4,3,1.6,3,3.8
		C63,161,63,162.1,63,163.1 M60.5,163.7c0-0.3,0-0.7,0-1c0-0.2-0.1-0.3-0.3-0.3c-0.6,0-1.2,0-1.8,0c-0.3,0-0.7,0-1,0.2
		c-0.6,0.2-0.9,0.7-0.8,1.5c0,0.6,0.3,1,1,1.1c0.8,0.2,1.7,0.1,2.5,0c0.4,0,0.6-0.2,0.5-0.6C60.5,164.3,60.5,164,60.5,163.7"/>
	<path class="st1" d="M111.7,162.9c0,1.1,0,2.3,0,3.5c0,0.2,0,0.3-0.2,0.4c-2,0.6-4,0.8-6.1,0.4c-2.3-0.5-3.3-3.2-2-5.2
		c0.5-0.8,1.4-1.1,2.3-1.3c1.1-0.2,2.2-0.2,3.2-0.1c0.3,0,0.4-0.1,0.4-0.4c0-1.2-0.5-1.7-1.7-1.8c-1.1-0.1-2.2,0-3.2,0.4
		c-0.3,0.1-0.4,0.1-0.4-0.2c0-0.5-0.1-1.1-0.2-1.6c0-0.2,0-0.3,0.2-0.3c1.6-0.4,3.3-0.6,5-0.2c1.7,0.4,2.7,1.6,2.8,3.4
		C111.7,160.7,111.7,161.8,111.7,162.9L111.7,162.9z M109.3,163.7v-0.5c0-0.8,0-0.9-0.8-0.8c-0.7,0-1.4-0.1-2.1,0.1
		c-0.7,0.2-1.1,0.6-1.1,1.4c0,0.8,0.3,1.2,1.1,1.3c0.8,0.2,1.6,0.1,2.4,0c0.4,0,0.5-0.2,0.5-0.6C109.2,164.3,109.3,164,109.3,163.7"
		/>
	<path class="st1" d="M101.1,156c-1.1-0.6-2.1-0.9-3.3-0.9c-0.6,0-1.2,0-1.7,0.2c-1.1,0.4-1.6,1.2-1.8,2.3c-0.4,1.6-0.4,3.3,0,4.9
		c0.4,1.6,1.5,2.4,3.1,2.5c1.1,0,2.3-0.1,3.8-0.9c0.1,0.7,0.2,1.4,0.3,2.1c0,0.2-0.1,0.2-0.3,0.3c-1.2,0.7-2.5,0.8-3.8,0.8
		c-0.8,0-1.5-0.1-2.2-0.3c-1.9-0.6-3.1-1.9-3.5-3.8c-0.5-2.1-0.5-4.2,0.1-6.3c0.7-2.6,2.4-3.9,5.1-4.1c1.5-0.1,3,0.1,4.3,0.8
		c0.1,0.1,0.3,0.1,0.3,0.4C101.4,154.6,101.2,155.3,101.1,156"/>
	<path class="st1" d="M79.2,160.8c0-1.9,0-3.8,0-5.7c0-0.6,0.1-1.3,0.3-1.9c0.6-1.4,1.7-1.9,3.1-2c0.9-0.1,1.9,0,2.8,0.2
		c0.2,0,0.4,0.1,0.3,0.4c-0.1,0.6-0.2,1.2-0.3,1.7c0,0.2-0.1,0.3-0.3,0.2c-0.8-0.2-1.5-0.4-2.3-0.2c-0.7,0.1-1.1,0.6-1.2,1.3
		c0,0.3,0,0.7,0,1c0,0.3,0.1,0.4,0.4,0.4c1,0,2,0,3,0c0.3,0,0.4,0.1,0.4,0.4c0,0.5,0,1.1,0,1.6c0,0.3-0.1,0.3-0.3,0.3c-1,0-2,0-3,0
		c-0.3,0-0.4,0.1-0.4,0.4c0,2.6,0,5.1,0,7.7c0,0.4-0.1,0.5-0.5,0.4c-0.5,0-1,0-1.5,0c-0.4,0-0.5-0.1-0.5-0.5
		C79.2,164.7,79.2,162.7,79.2,160.8"/>
	<path class="st1" d="M64.6,161.7c0-1.1,0.2-2.1,0.6-3.1c0.8-1.6,2.2-2.4,4-2.6c1.1-0.1,2.2,0,3.3,0.4c0.2,0.1,0.3,0.2,0.3,0.4
		c-0.1,0.5-0.2,1.1-0.3,1.7c0,0.3-0.2,0.3-0.4,0.2c-0.8-0.3-1.7-0.4-2.5-0.4c-1.3,0.1-2.1,0.8-2.4,2.1c-0.2,0.9-0.2,1.8,0.1,2.7
		c0.3,1.1,1.1,1.7,2.2,1.9c1,0.1,1.9,0,2.8-0.3c0.3-0.1,0.4,0,0.4,0.2c0.1,0.6,0.2,1.1,0.3,1.7c0,0.2,0,0.2-0.1,0.3
		c-1.6,0.5-3.1,0.7-4.7,0.2c-2-0.6-3-2-3.4-4C64.6,162.6,64.6,162.1,64.6,161.7"/>
	<path class="st1" d="M113.8,161.8c0-1.6,0-3.2,0-4.8c0-0.3,0.1-0.5,0.4-0.6c1.8-0.5,3.6-0.6,5.4-0.3c0.3,0,0.3,0.1,0.3,0.4
		c-0.1,0.5-0.2,1.1-0.3,1.6c0,0.3-0.1,0.3-0.4,0.3c-0.8-0.2-1.7-0.2-2.5-0.1c-0.3,0-0.4,0.2-0.4,0.5c0,2.6,0,5.2,0,7.8
		c0,0.4-0.1,0.5-0.5,0.4c-0.5,0-1.1,0-1.6,0c-0.3,0-0.4-0.1-0.4-0.4C113.8,165.1,113.8,163.5,113.8,161.8"/>
	<path class="st1" d="M74.5,161.6c0-1.7,0-3.3,0-5c0-0.4,0.1-0.4,0.4-0.4c0.6,0,1.1,0,1.7,0c0.2,0,0.3,0.1,0.3,0.3
		c0,3.4,0,6.8,0,10.2c0,0.3-0.1,0.3-0.4,0.3c-0.6,0-1.1,0-1.7,0c-0.3,0-0.4-0.1-0.4-0.4C74.5,165,74.5,163.3,74.5,161.6"/>
	<path class="st1" d="M86.9,161.6c0-1.7,0-3.3,0-5c0-0.3,0.1-0.4,0.4-0.4c0.6,0,1.2,0,1.7,0c0.2,0,0.3,0.1,0.3,0.3
		c0,3.4,0,6.9,0,10.3c0,0.2-0.1,0.3-0.3,0.3c-0.6,0-1.2,0-1.8,0c-0.3,0-0.4-0.1-0.4-0.4C86.9,165,86.9,163.3,86.9,161.6"/>
	<path class="st1" d="M75.7,154.3c-0.8,0-1.5-0.6-1.5-1.5c0-0.8,0.6-1.5,1.5-1.5c0.8,0,1.5,0.7,1.5,1.5
		C77.2,153.6,76.6,154.3,75.7,154.3"/>
	<path class="st1" d="M86.7,152.8c0-0.8,0.7-1.5,1.5-1.5c0.8,0,1.5,0.7,1.5,1.5c0,0.8-0.7,1.5-1.5,1.5
		C87.3,154.3,86.7,153.7,86.7,152.8"/>
	<path class="st1" d="M84.6,98.4c-3,0-6.1,0-9.1,0c-1,0-1.1-0.3-1-1.2c0.9-4.9,1.8-9.9,2.7-14.8c1-5.1,2.7-6.7,7.8-6.9
		c4.6-0.2,9.1-0.2,13.7-0.1c3.5,0.1,6.1,2.6,6.9,6.3c1.3,6.5-3.5,14.4-9.9,16.3c-1.2,0.3-2.4,0.4-3.6,0.4
		C89.6,98.4,87.1,98.4,84.6,98.4"/>
</g>
</svg>