<svg xmlns="http://www.w3.org/2000/svg" viewBox="0 0 156.58 210.88"><defs><style>.cls-1{fill:#009cde;}.cls-2{fill:#fff;}</style></defs><g id="Capa_2" data-name="Capa 2"><g id="Layer_1" data-name="Layer 1"><rect class="cls-1" width="156.58" height="210.88" rx="6.95"/><path class="cls-2" d="M95.67,49a8.16,8.16,0,0,0,2.75.67,30.45,30.45,0,0,1,23.93,29.84q0,27.87,0,55.75c0,1.19-.35,1.43-1.47,1.43q-28.06-.06-56.13,0a30.5,30.5,0,0,1-29.64-25.09,33.25,33.25,0,0,1-.46-5.55q0-28.51,0-57ZM76.18,100.38c2.32,0,4.65,0,7,0a22.7,22.7,0,0,0,5.92-.46c10.55-2.78,17.89-14.55,15.66-25.3-1.52-7.37-7.34-12-13.55-12.19-5-.14-10.06-.18-15.09,0-7.74.35-12.52,4.14-14.18,11.71-1.38,6.26-2.41,12.61-3.55,18.92-1.77,9.73-3.5,19.46-5.27,29.19-.13.72-.05,1,.75,1,1-.05,1.94,0,2.92,0,2.91,0,4.12-1.08,4.6-3.93,1-5.95,2.1-11.9,3.11-17.85.16-.92.54-1.12,1.41-1.11C69.32,100.41,72.75,100.38,76.18,100.38Z"/><path class="cls-2" d="M34.21,154.44c0-2.22,0-4.44,0-6.66,0-.34.09-.43.43-.43,1.74,0,3.48,0,5.22,0a6,6,0,0,1,3.33.86A4.09,4.09,0,0,1,45,151.74a5.84,5.84,0,0,1-.27,2.11,4.08,4.08,0,0,1-3.47,2.69,23,23,0,0,1-4.06.14c-.38,0-.48.1-.47.48,0,1.34,0,2.68,0,4,0,.29-.09.38-.38.37-.58,0-1.17,0-1.76,0-.29,0-.37-.09-.37-.37C34.21,158.93,34.21,156.69,34.21,154.44ZM36.7,152v2c0,.2,0,.3.26.3,1,0,2.11,0,3.16,0a2.33,2.33,0,0,0,1.85-.74,2.6,2.6,0,0,0,.3-2.54,1.84,1.84,0,0,0-1.66-1.22,30.1,30.1,0,0,0-3.68-.09c-.23,0-.23.13-.23.29Z"/><path class="cls-2" d="M121.86,153.72v7c0,.18.06.38-.21.46a10,10,0,0,1-6.13.25,4.31,4.31,0,0,1-3-3.7,7.83,7.83,0,0,1,.34-4.44,4.46,4.46,0,0,1,4-2.82,6,6,0,0,1,2.28.18c.26.08.3,0,.3-.23,0-1.23,0-2.46,0-3.7,0-.39.12-.48.48-.46a12.18,12.18,0,0,0,1.48,0c.38,0,.5.07.5.48C121.85,149.06,121.86,151.39,121.86,153.72Zm-2.44,2.45c0-.92,0-1.84,0-2.76a.41.41,0,0,0-.36-.48,5.66,5.66,0,0,0-2.28-.12,2.07,2.07,0,0,0-1.79,1.74,7.45,7.45,0,0,0-.07,2.62,2.23,2.23,0,0,0,1.81,2.2,6.52,6.52,0,0,0,2.45-.06c.23,0,.24-.2.24-.39C119.41,158,119.42,157.08,119.42,156.17Z"/><path class="cls-2" d="M54.74,157.55c0,1.07,0,2.14,0,3.21,0,.21,0,.35-.28.42a12.18,12.18,0,0,1-6.08.37,3.29,3.29,0,0,1,.33-6.49,15.51,15.51,0,0,1,3.19-.15c.33,0,.39-.1.41-.41.1-1.45-.72-1.74-1.74-1.82a8.27,8.27,0,0,0-3.2.36c-.27.09-.39.08-.42-.24-.06-.53-.16-1.06-.25-1.58,0-.17,0-.29.19-.35a10.79,10.79,0,0,1,4.79-.29c2.08.42,3,1.64,3.05,3.85C54.75,155.47,54.74,156.51,54.74,157.55Zm-2.43.58c0-.34,0-.69,0-1s-.05-.33-.31-.32c-.6,0-1.21,0-1.81,0a2.83,2.83,0,0,0-1,.16c-.64.23-.89.68-.84,1.51a1.11,1.11,0,0,0,1,1.14,8,8,0,0,0,2.49,0c.38-.05.56-.18.5-.59A6.17,6.17,0,0,1,52.31,158.13Z"/><path class="cls-2" d="M103.47,157.32c0,1.15,0,2.3,0,3.45,0,.18,0,.34-.23.4a12.18,12.18,0,0,1-6.08.38,3.35,3.35,0,0,1-2-5.16,3.32,3.32,0,0,1,2.28-1.33,15.83,15.83,0,0,1,3.23-.15c.32,0,.41-.08.41-.4,0-1.25-.45-1.75-1.7-1.83a8.53,8.53,0,0,0-3.25.36c-.27.09-.4.12-.43-.24a12.08,12.08,0,0,0-.25-1.58c0-.21,0-.3.21-.35a10.81,10.81,0,0,1,5-.25,3.33,3.33,0,0,1,2.8,3.37c0,1.11,0,2.22,0,3.33Zm-2.4.8v-.49c0-.85,0-.85-.85-.84a10.35,10.35,0,0,0-2.08.08,1.3,1.3,0,0,0-1.07,1.4,1.19,1.19,0,0,0,1.07,1.33,8,8,0,0,0,2.44,0c.39-.05.55-.19.5-.6A6.15,6.15,0,0,1,101.07,158.12Z"/><path class="cls-2" d="M92.92,150.47a7.18,7.18,0,0,0-3.31-.95,4.45,4.45,0,0,0-1.74.23A2.94,2.94,0,0,0,86,152a10.36,10.36,0,0,0,0,4.92,3,3,0,0,0,3.14,2.48,7.33,7.33,0,0,0,3.82-.88c.12.72.23,1.43.34,2.14,0,.21-.13.24-.25.31a7.64,7.64,0,0,1-3.81.8,8.39,8.39,0,0,1-2.23-.31,4.87,4.87,0,0,1-3.53-3.8,12.61,12.61,0,0,1,.08-6.34,5.28,5.28,0,0,1,5.09-4.15A8,8,0,0,1,93,148c.15.08.29.13.25.36C93.14,149,93,149.74,92.92,150.47Z"/><path class="cls-2" d="M71,155.25c0-1.9,0-3.81,0-5.71a5.26,5.26,0,0,1,.33-1.89,3.27,3.27,0,0,1,3.11-2,8.85,8.85,0,0,1,2.81.23c.2.05.36.1.31.38-.11.57-.19,1.16-.28,1.74,0,.19-.08.26-.31.19a4.93,4.93,0,0,0-2.35-.19,1.31,1.31,0,0,0-1.16,1.29c0,.34,0,.68,0,1s.07.38.37.38c1,0,2,0,3,0,.28,0,.38.07.37.37,0,.54,0,1.09,0,1.64,0,.26-.08.33-.33.32-1,0-2,0-3,0-.33,0-.41.1-.41.42,0,2.57,0,5.15,0,7.72,0,.37-.1.47-.46.45a10.44,10.44,0,0,0-1.48,0c-.4,0-.53-.07-.53-.51C71,159.11,71,157.18,71,155.25Z"/><path class="cls-2" d="M56.41,156.11a6.36,6.36,0,0,1,.62-3.05,4.57,4.57,0,0,1,4-2.59,7.63,7.63,0,0,1,3.28.37c.24.09.31.2.26.45-.11.55-.22,1.1-.28,1.65,0,.33-.15.3-.38.21a5.48,5.48,0,0,0-2.53-.39A2.34,2.34,0,0,0,59,154.84a6,6,0,0,0,.09,2.72,2.4,2.4,0,0,0,2.24,1.86,6.29,6.29,0,0,0,2.79-.34c.27-.09.36-.05.39.24.07.57.17,1.13.27,1.7,0,.15,0,.25-.15.3a8,8,0,0,1-4.72.19,4.63,4.63,0,0,1-3.37-4A6.74,6.74,0,0,1,56.41,156.11Z"/><path class="cls-2" d="M105.6,156.29c0-1.59,0-3.18,0-4.77a.5.5,0,0,1,.4-.59,11.35,11.35,0,0,1,5.4-.31c.25,0,.34.13.28.4-.12.54-.21,1.08-.28,1.62,0,.27-.15.32-.41.26a6.29,6.29,0,0,0-2.52-.07c-.31,0-.42.18-.42.51,0,2.59,0,5.18,0,7.77,0,.38-.11.46-.46.44-.55,0-1.1,0-1.64,0-.29,0-.38-.08-.37-.37C105.61,159.55,105.6,157.92,105.6,156.29Z"/><path class="cls-2" d="M66.3,156.09c0-1.68,0-3.35,0-5,0-.35.11-.44.44-.43.56,0,1.13,0,1.69,0,.25,0,.33.08.33.33,0,3.41,0,6.83,0,10.24,0,.28-.1.34-.36.34-.56,0-1.12,0-1.68,0-.32,0-.42-.08-.42-.41C66.31,159.46,66.3,157.77,66.3,156.09Z"/><path class="cls-2" d="M78.72,156.07c0-1.67,0-3.34,0-5,0-.32.09-.42.41-.41.58,0,1.15,0,1.73,0,.22,0,.31.06.31.3v10.32c0,.22-.08.28-.29.27-.6,0-1.2,0-1.8,0-.31,0-.36-.11-.36-.38C78.72,159.47,78.72,157.77,78.72,156.07Z"/><path class="cls-2" d="M67.53,148.74a1.48,1.48,0,1,1,0-3,1.48,1.48,0,0,1,0,3Z"/><path class="cls-2" d="M78.46,147.25A1.46,1.46,0,0,1,80,145.78a1.48,1.48,0,1,1,0,3A1.45,1.45,0,0,1,78.46,147.25Z"/><path class="cls-2" d="M76.36,92.88c-3,0-6.09,0-9.14,0-1,0-1.14-.31-1-1.19.93-4.94,1.8-9.89,2.74-14.82s2.68-6.68,7.82-6.9c4.56-.19,9.14-.16,13.71-.06,3.53.07,6.11,2.58,6.87,6.33,1.32,6.53-3.49,14.42-9.9,16.26a12.73,12.73,0,0,1-3.64.36Z"/></g></g></svg>