<svg version="1.1" id="Layer_1" xmlns="http://www.w3.org/2000/svg" xmlns:xlink="http://www.w3.org/1999/xlink" x="0px" y="0px"
	 viewBox="0 0 170.1 170.1" style="enable-background:new 0 0 170.1 170.1;" xml:space="preserve">
<style type="text/css">
	.st0{clip-path:url(#SVGID_2_);}
	.st1{clip-path:url(#SVGID_4_);fill:#FFFFFF;}
</style>
<g>
	<defs>
		<path id="SVGID_1_" d="M65.2,105.6c-23.2,0-42.1-18.8-42.1-41.9c0-23.2,18.8-42,42.1-42c23.2,0,42,18.7,42.1,41.9
			C107.3,86.8,88.5,105.6,65.2,105.6C65.2,105.6,65.2,105.6,65.2,105.6z M118.5,101.2c20.8-29.3,13.9-69.9-15.5-90.7
			C73.5-10.2,32.8-3.3,12,26C-8.8,55.3-1.9,95.9,27.6,116.7c21,14.8,48.7,16,70.9,2.9l48.1,47.7c5.2,5.5,13.8,5.7,19.3,0.5
			c5.5-5.2,5.7-13.8,0.5-19.2c-0.2-0.2-0.3-0.3-0.5-0.5L118.5,101.2z"/>
	</defs>
	<clipPath id="SVGID_2_">
		<use xlink:href="#SVGID_1_"  style="overflow:visible;"/>
	</clipPath>
	<g class="st0">
		<defs>
			<rect id="SVGID_3_" x="-3551.6" y="-1486.9" width="4141.9" height="13796.3"/>
		</defs>
		<clipPath id="SVGID_4_">
			<use xlink:href="#SVGID_3_"  style="overflow:visible;"/>
		</clipPath>
		<rect x="-50" y="-52.3" class="st1" width="270.1" height="274.7"/>
	</g>
</g>
</svg>
