<?xml version="1.0" encoding="UTF-8"?>
<svg width="29px" height="29px" viewBox="0 0 29 29" version="1.1" xmlns="http://www.w3.org/2000/svg" xmlns:xlink="http://www.w3.org/1999/xlink">
    <title>Fill 142</title>
    <g id="Symbols" stroke="none" stroke-width="1" fill="none" fill-rule="evenodd">
        <g id="footer" transform="translate(-175.000000, -508.000000)" fill="#FFFFFF">
            <path d="M195.11633,518.787797 C194.848757,519.113227 194.540019,519.404886 194.19835,519.653563 C194.170563,519.668914 194.154097,519.700638 194.155126,519.732362 C194.169534,520.103843 194.154097,520.475325 194.109845,520.845783 C194.013107,521.62047 193.791845,522.374689 193.458408,523.080811 C193.118796,523.811493 192.656718,524.47975 192.094816,525.059998 C191.158311,526.031171 189.949087,526.701474 188.624602,526.9829 C188.162524,527.081143 187.692214,527.137428 187.219845,527.148685 C185.793476,527.197806 184.38666,526.823255 183.177437,526.069035 C183.163029,526.059825 183.147592,526.050614 183.119806,526.032194 C183.977068,526.130437 184.84565,526.011727 185.644252,525.686297 C186.074427,525.510278 186.477845,525.275928 186.844214,524.990409 C185.768777,524.964825 184.827126,524.26689 184.495748,523.249666 C184.853883,523.318231 185.224369,523.306974 185.577359,523.217942 C185.589709,523.213848 185.602058,523.208731 185.613379,523.201568 C184.930039,523.05932 184.336233,522.642811 183.972951,522.050283 C183.722874,521.651171 183.595262,521.189633 183.603495,520.719909 C183.948252,520.908208 184.332117,521.013614 184.725243,521.026918 C184.201417,520.666694 183.830932,520.123287 183.688913,519.504152 C183.53866,518.885016 183.635398,518.22904 183.957515,517.67847 C185.245981,519.241147 187.136485,520.192876 189.165922,520.301353 C189.151515,520.20004 189.13299,520.114077 189.124757,520.026068 C189.048602,519.452984 189.178272,518.872736 189.494214,518.387661 C189.865728,517.776713 190.493495,517.360203 191.203592,517.254797 C192.012485,517.105386 192.84299,517.36839 193.416214,517.955801 C193.448117,517.994689 193.500602,518.009016 193.548971,517.995713 C194.064563,517.884166 194.559573,517.694843 195.016505,517.432862 L195.051495,517.416488 L195.067961,517.416488 C194.877573,517.983432 194.494738,518.467484 193.98532,518.783703 C194.470039,518.728442 194.944466,518.602568 195.391107,518.408129 C195.395223,518.411199 195.398311,518.414269 195.401398,518.418362 C195.309806,518.537072 195.216155,518.66397 195.11633,518.787797 L195.11633,518.787797 Z M189.263689,508.000512 C181.386757,507.999488 175.001029,514.347418 175,522.179227 L175,522.18025 C175,530.014105 181.385728,536.363058 189.263689,536.363058 C197.140621,536.364082 203.527379,530.015129 203.528408,522.181273 L203.528408,522.18025 C203.527379,514.348442 197.14165,507.999488 189.264718,508.000512 L189.263689,508.000512 Z" id="Fill-142"></path>
        </g>
    </g>
</svg>